<svg xmlns="http://www.w3.org/2000/svg" width="350" height="350"><path fill="#010101" d="M172 0h8c14 0 27 1 40 4l3 1c21 6 41 16 59 30l3 2c18 15 34 33 45 54l1 2c11 22 19 46 19 71v2c0 17 1 34-4 51l-1 3a196 196 0 0 1-16 41c-7 14-17 26-28 37l-3 3c-20 21-49 37-77 45h-3a163 163 0 0 1-49 4c-13 0-26-1-39-4l-3-1A180 180 0 0 1 4 221v-3a166 166 0 0 1-4-50c0-15 1-30 6-44v-2c9-27 24-51 44-71l2-2c20-22 49-37 78-45h2c13-4 26-4 40-4z"/><path fill="#030403" d="m208 75 2 1h2l5 2v2h2l4 4c3 4 5 4 9 5l13 5 1-1-12-4c-4-1-4-1-7-4l15-2-1-1h-5l-3 1h-2l1-2c5-1 10-2 15 1l2 4h2v2l2 1 4 2-1 7-5-1 2 3a2905 2905 0 0 1 5 6c2 4 3 6 3 10l-1 4c-6-1-8-4-11-8l-2-2h-3l-2-2v-3l-3-1-1-3c-2-4-3-4-6-5l-8-1-8-2-9-1h-5l3 1c15 2 15 2 22 6-1 3-3 3-6 5l-3 2-8 1-10 1a68 68 0 0 0 18 1c5-1 8-2 13-5h6l4 3c1 3 4 5 6 7l7 8v2h-2l-10 4c-4 1-5 2-9 1l-4-2c-3-2-3-2-7-2l7 3v1h-13l1 4 2-1h7a1353 1353 0 0 1 19-2h14c6 10 4 21 3 32l2-4 1 10 2-13h1l-1 21 2-12h2c2 9 1 17-1 26h-1v-9l-8-3c-4-2-6-2-9-5v-2l-2-1c-5-3-7-7-9-13-2-4-2-4-6-7l-3-1-5-2h-2c-4-2-6-2-8-6l-4-1v-2l-4 1 4 6 2-2 6 2v1l-5 1h2l6 3 1 5h3c4 0 5 0 8 2l1-2 1 5h-3l6 4c-3 1-4 1-7-1l-2-1a663 663 0 0 1-18-8l7-2v-2l-3 1c-6 2-12 1-18 1h-3l3 1v2l-2 1h-3l-3 1-4 3h-3l-1 4 2-1c5-3 10-6 16-7l1-1c5 0 10-1 14 1l2 2v2c-6 2-6 2-10 1l-2-1h-4l6 1-1 5c-3 2-5 2-9 2l-3-1h-2v2h-4v3h-2l-1 2 3-1 15-2 11-2 6-1h6l-2-1h-3l-3-1-2-1-1-3c6-1 10 1 15 4l8 2c4 1 6 2 9 5l4 6c-4 4-7 7-12 9h-2v2c-8 2-16 4-24 4l23 4-1 2-7 2c6 0 11-1 16-3l3-1 5-2 10-4v-3l-3-1 4-3 2 2-1 8v3l-3 11-1 6c-3 13-10 25-20 35l-11 3-3 1 1 11-1 7-7 1h-4l-1 2c-3 8-7 10-15 13l-9 1c-2-2-2-2-2-5-1-5-2-6-6-9-6-5-7-10-8-18 0-4 1-6 3-9l-1-4-3-2c-2-2-2-3-2-7v-7a323 323 0 0 1-1-1l-1 3v7l-5 4-2 2c-5 2-9 1-13 0v-3h2l-1-2-1-8 4-3 3-2h9v-2l-4-1 3-3-5 1-2 4-5 1h-3v-2l-2 1h-3l-3 1-5 1a808 808 0 0 1 0-15c3-3 4-2 8-2l12-4 8-2 2 1v-2l-3-1-1-2-4-1v-3c0-4-1-5-3-9l-5-1c-4 0-6 1-9 3l-3 2-2 2h2v2l2-1 8-1 3 3v2h2v-3h2l1 2 2 5-3 3-2 2c-9 6-29 4-39 2l-4-3c-4 0-6 3-9 5l2-5h-1l-4 5 2-7h2l2-4c-4 0-6 1-9 3-6 8-6 16-6 26l-1 6v2l-4 5c-3 6-2 12-2 18l-5-1v-2c0-4-2-5-4-8v-2h-2l-1-3-9-12c-2-3-3-4-3-7h-2v-3l-1-3-2-1-1-6-2-9c-2-6-1-12-1-18v-4l1-13-3-1h3l-1-3 2-1v-3l2-7h3l3-4h2v2h7l1-4c2-3 3-6 6-8l-6 4 1-5 4-2v-2l-4 1-2 5-1 3h-3v-7l5-5 3-4 2-4 5-1 2-5 3-6h2c3-1 5-3 7-6l3-2 2-2v9l-1 2-1 2h2v-2h4v-2l1-3v-3l4-5c0 5 0 8-2 12h-2l-1 3-1 3-1 3-1 3-6 2-2 4h-2v2l2 1v-2h2l1-4h2l-2 6 2 1v5l3 1-1-1 1-11v-2c1-3 3-4 5-6l5-5-1 2-4 1 2-7h4l1-3 8-1v2l2-1 4-2c0 5-1 8-3 13l2-1 8-1v-3h-2c2-4 4-6 8-9h4v-2l3-1c3-2 3-2 4-5v-2h5l3 1c3 0 3 0 5 2l-5 1 1 3-1 3-6 1 1 2h11l2-4c6-5 12-4 19-4v-2h-5c5-7 5-7 10-8h3l-2-2 4-2v-2h9l-3-2c1-3 2-5 6-5z"/><path fill="#70372A" d="m170 42 7-1v2h15l5 1v-2c5 0 9 0 14 2v2h6l1 3 5 1 5 2 1 3h3l12 4h2c5 2 6 5 9 9l5 4 5 5 1 1 5 6c6 7 6 7 13 12l2 1 1 5h-3c1 3 1 3 4 5l3 6 2 1c4 4 7 9 9 14v3l-2-1h-2l-2 2v-2c0-4-1-4-3-7a348 348 0 0 1-9-14l-2-3-2-3-2-5h-2v-3h-2c-3-1-4-3-6-6l-5-3-2-3-8-4 2 4-1 1 8 5c2 0 2 0 4 3v7l-1 6 2 1-1 2-1 11v2l2 9 2 1v13c0 6 0 9 3 14l1 5c6-5 6-5 8-12 0-7 0-11-4-16l-3-7 1-3c3 4 4 9 6 14h2v-6h2l1-2h2c1-7 1-7-1-13 4 3 6 7 8 12l1 2v7l-4 6-2 3-2 3h-3v3l-5 13c-1 4-2 7 0 11l1 15v3l-3 19-1 14c5 0 5 0 9-3 3-2 4-2 7-2l4 1-1 3-1-2-6 2v2l5 2 1-2v7l-4 3-1-2-4-4v4h-2v5h4v-2h2c0 6-2 9-5 14h-2v3h-2l-1 3h-2v2c-1 4-4 7-8 9l-5-1-3 3 2 1h-2l-1 3h-2v2l-2 1-19 10-6 1v2l-4 1-4 1-3 1-2 1h-2l-4 3 1 3c-4 2-9 2-13 3-5-1-5-1-9 1l-10 1h-2l-25-1 1-4a343516 343516 0 0 0-12 0h-3c-7 0-11-1-17-5l-7-2-9-3v-2h-2l-3-1h-3l-5-3h4l-5-7-2-2v-2l-3-2-4-5-3-2 4 14c-4-1-5-3-7-7l-1-2a846 846 0 0 1-6-8c-6-9-11-19-15-29l-5-7v-4h-2v-10h2l-1-2a94 94 0 0 1-4-32l-1-20 3 1-2-3v-6h4v-2h-2v-2h2v-3c2-23 2-23 6-32l2 3 1-2a225 225 0 0 1 11-20l7-6 1-2h2l1-2 5-5 8-6h2v-2h3l1-3c8-6 17-12 27-14l8-2v-4a2579 2579 0 0 1 14-4c7-3 13-4 20-3zm32 36 2 4-2-1-6 1v2l-4 2 2 2h-3c-5 1-6 2-8 6l-2 2h5v2h-2c-7 0-12 0-17 4l-2 4h-11l-1-2 6-1v-6l5-1c-3-3-4-2-8-3h-5v2c-1 3-1 3-4 5l-3 1v2h-3c-4 1-6 3-9 7v2h2v3l-9 1 1-4 1-8-2 1-4 2v-2l-8 1-1 3h-4l-2 7 4-1 1-2-3 4-2 2-5 4v6l-1 6 1 3-3-1v-6h-2l2-6h-2l-1 4h-2v2l-2-1v-2l3-1 1-2 1-2h2l4-3 1-3 1-3 1-4h2c2-4 2-7 2-12-3 2-4 4-4 8l-1 3v2h-4v2h-2l1-2 1-2v-9a373343 373343 0 0 0-5 5l-2 1c-4 4-4 4-7 4l-2 4-2 3-1 4h-2c-4 1-5 3-7 6-3 6-3 6-6 8v7h3l3-8 4-1v2l-2 1-3 4v2l7-5-2 2c-4 3-5 7-6 11h-7v-2c-3 1-3 1-5 4h-3l-3 9 1 1-2 2 1 2-3 1h3l-1 3v18a300 300 0 0 1 4 27v2l2 1 1 6h2l1 3c1 4 3 6 6 10l6 9h2l1 2 3 6v4l5 1v-3c-1-7 0-11 5-17l1-7 1-1v-5c0-9 0-16 5-23l6-4h4l-2 4h-2l-2 5 1 2 4-6-1 2-1 2 1 2 2-3 5-2 5 3h5l3 1h5c9 0 18 0 26-3l5-6-2-2-1-4h-2v3h-2l-1-2-2-3c-4 0-7 0-10 2l-1-2c8-7 8-7 13-8l6 4c2 3 2 6 2 10h2l4 4h2v2l-2-1-7 2-3 1-4 2-9 1c-3 0-3 0-5 2v15l5-1h3l5-2v2l9-1 1-4h3v3h3v2l-3-1c-4 0-6 0-9 3l-2 1c-2 2-2 2-2 5s0 5 2 7h-2v3l10 1c5-2 9-5 11-10v-4l1-5v3c-1 7-1 7 1 14l5 3c0 4-1 6-3 9 0 6 1 12 4 17l5 4c5 5 5 5 5 9v3l4 2c7-1 14-3 19-8l4-8h7l4-1v-18l11-3c6-3 10-8 14-14l1-2c4-7 6-13 8-20l1-3 1-4 1-5 2-16-3-2-3 4h3v3l-19 7-2 1c-4 2-8 2-13 2l8-3v-1a167612 167612 0 0 1-9-1l-3-1h-2a182190 182190 0 0 0-9-2h2l22-4v-2l3-1c4-1 7-3 10-6l1-3-2-2-2-2c-5-5-8-6-14-7l-6-3c-4-2-7-2-12-2l1 3 5 2h3l2 1h-6l-3 1-6 1-15 2-11 2 1-2h2v-3h4v-2h2l3 1h2c3 0 5 0 7-2l1-5-6-1 11 2 5-2v-2c-4-4-8-3-14-3l-4 2-6 1-11 6 1-4h2l6-2c2-2 4-2 7-3v-2l-4-2h2c7 2 16 2 23-1v2l-7 1c2 3 5 4 8 5l9 4 3 1 2 1h5l-7-5 4 1-1-5-1 2-2-1-9-1v-2l-3-4-6-2 5-1-7-3-1 2-4-6 4-1v2l2 1 4 3 15 6 5 3 2 6c2 5 4 8 8 11l3 1v2c3 3 6 5 11 6l6 2v9c4-7 4-18 2-26h-2l-2 12 1-21h-1l-2 13-1-10-2 4v-2c2-15 2-15-3-30h-10l-6 1c-5 2-9 1-14 1h-8l-4 1-1-4h13l-7-4c3 0 5 1 8 3 3 1 5 2 9 1l7-3 8-2-5-8-6-7c-3-3-5-5-9-5l-6 2-12 3h-3l-13-1c4-2 8-1 12-1 5-1 7-2 11-5l4-2c-2-3-5-4-8-5l-9-2h-2a842 842 0 0 0 16 2l8 1 5 3 1 2 2 4h2v2l4 4h2l3 3c2 4 5 5 9 6 1-5 2-8-1-12l-3-4-1-2-4-5 5 1 1-7-6-3v-2h-2v-2l-5-4-12 1-1 2h2l3-1h5l1 1-15 2c3 3 5 4 10 5l10 4-3-1-6-2-4-1-2-1c-7-1-9-4-12-9h-3v-2l-4-1-3-1c-4-2-5 0-8 2z"/><path fill="#29422B" d="m208 75 2 1h2l5 2v2h2l4 4c3 4 5 4 9 5l13 5 1-1-12-4c-4-1-4-1-7-4l15-2-1-1h-5l-3 1h-2l1-2c5-1 10-2 15 1l2 4h2v2l2 1 4 2-1 7-5-1 2 3a2905 2905 0 0 1 5 6c2 4 3 6 3 10l-1 4c-6-1-8-4-11-8l-2-2h-3l-2-2v-3l-3-1-1-3c-2-4-3-4-6-5l-8-1-8-2-9-1h-5l3 1c15 2 15 2 22 6-1 3-3 3-6 5l-3 2-8 1-10 1a68 68 0 0 0 18 1c5-1 8-2 13-5h6l4 3c1 3 4 5 6 7l7 8v2h-2l-10 4c-4 1-5 2-9 1l-4-2c-3-2-3-2-7-2l7 3v1h-13l1 4 2-1h7a1353 1353 0 0 1 19-2h14c6 10 4 21 3 32l2-4 1 10 2-13h1l-1 21 2-12h2c2 9 1 17-1 26h-1v-9l-8-3c-4-2-6-2-9-5v-2l-2-1c-5-3-7-7-9-13-2-4-2-4-6-7l-3-1-5-2h-2c-4-2-6-2-8-6l-4-1v-2l-4 1 4 6 2-2 6 2v1l-5 1h2l6 3 1 5h3c4 0 5 0 8 2l1-2 1 5h-3l6 4c-3 1-4 1-7-1l-2-1a663 663 0 0 1-18-8l7-2v-2l-3 1c-6 2-12 1-18 1h-3l3 1v2l-2 1h-3l-3 1-4 3h-3l1-5h-2l-1 5h-1l1-9-3 2-5 1v2l-5 5-4-1-3 1c-6 0-9 0-14-3l-6-1v10h-2v-10l-4 1-1 2v-6l-3 10h-1c-1-7 0-11 4-17l3-3 1-2-7 1-3 5h-2v2h4v2l-3 2-5 2-2 1-10 6h-5l-4 2v-4l5-4 1-2-3 1c-3 2-6 3-10 3l2 2 3-1 1 10h-2v-4c-3 2-5 2-6 6l-1 3c-1 8-1 8-3 11l-3 1-2-1v-4h2v-2l4-6-1-1-5 2c0-4 3-6 6-9l2-5-5 1-1 2-1-9 2-1 1-3-4 1 3-6-9 7h3v3c-3-1-4-2-6-5l2-1 1-4-4-2 3-1 2-5h2l-1 9c3-3 5-5 5-9v-5l6 1v3h3v6h4v2l-2 1-1 5v4l10-9 4-2-1 8 2-1 7-1c-1-3-2-4-5-5l-3-2v-2h-4c0-8-1-14 5-21l3-2 1-1c4-3 6-5 10-5l-1 5 2-1 8-1v-3h-2c2-4 4-6 8-9h4v-2l3-1c3-2 3-2 4-5v-2h5l3 1c3 0 3 0 5 2l-5 1 1 3-1 3-6 1 1 2h11l2-4c6-5 12-4 19-4v-2h-5c5-7 5-7 10-8h3l-2-2 4-2v-2h9l-3-2c1-3 2-5 6-5z"/><path fill="#793423" d="M155 184c3 2 4 5 6 8l-1 6h2l6 4v2h-3l-9 3c-4 2-9 3-14 3l-3 1-1 8v7l2-1h3l3-1 5-1v2c6 0 8-2 12-6l4-1-3 4 3 1v2h-3c-4 0-6 1-9 3l-3 2 1 10h-2v3c7 1 11 0 17-4l4-5-2-1 3-17h1a2360 2360 0 0 1 0 13v5l-1 6 2 1 5 4c0 4-1 6-3 9 0 6 1 12 4 17l5 5c2 3 3 4 3 8-2 6-6 10-11 13h-2v2l-8 3 26-1 1-1h8v-3l13-2-2-5c3-6 3-6 6-7h2l-1 4 12-10 2-2 2-3v-10l5-3 2 1-1 2-1 8v5l-3 1-3 2v2l-1 2-6 3-1 3c6 1 11-1 16-4 2-3 2-4 2-7l-1-2 1-2h2l1-3c1-5 4-8 8-10l2-1c-2 5-2 5-4 6l-2 4v6l7-4h2v-2c0-6 0-6 2-10l2-1 1 2 2-1h2l1 1v-22h2c2 3 1 6 2 10v7l1-8v-5l3 1-1 10 8-3-2 5h-2v3h-2l-1 3h-2v2c-1 4-4 7-8 9l-5-1-3 3 2 1h-2l-1 3h-2v2l-2 1-19 10-6 1v2l-4 1-4 1-3 1-2 1h-2l-4 3 1 3c-4 2-9 2-13 3-5-1-5-1-9 1l-10 1h-2l-25-1 1-4h-15c-7 0-11-1-17-5l-7-2-9-3v-2h-2l-3-1h-3l-5-3h4l-5-7-2-2v-2l-3-2-4-5-3-2 4 14c-4-1-5-3-7-7l-1-2a846 846 0 0 1-6-8c-11-16-11-16-13-25h4v2l3 1v2l3 1 1 2v-2l-2-8 5 5v3h2l3 4 1 2v6l4-1v-2c-1-7 0-11 5-16l1-7 1-1v-5c-1-9 0-18 7-25 2-2 4-3 8-3l2 1-3 4h-2v3l5-4-1 2-1 4 2-2 4-2 5 3h5l3 1h24l1-2h3c4-1 5-3 7-6l-2-2v-4h-2v3h-2l-1-2c-2-2-2-2-5-2l-5 1h-2l-3-2c13-9 13-9 18-8z"/><path fill="#AE3B25" d="M245 80c4 1 6 4 9 7l5 3 2 9v6l3 1 1-3v2l2 1-1 2-1 11v2l2 9 2 1v13c0 6 0 9 3 14l1 5c6-5 6-5 8-12 0-7 0-11-4-16l-3-7 1-3c3 4 4 9 6 14h2v-6h2l1-2h2c1-7 1-7-1-13 4 3 6 7 8 12l1 2v7l-4 6-2 3-2 3h-3v3l-5 13c-1 4-2 7 0 11l1 15v3l-3 19-1 14c5 0 5 0 9-3 3-2 4-2 7-2l4 1-1 3-1-2-6 2v2l5 2 1-2v7l-4 3-1-2-4-4v4h-2v5h4v-2h2c0 4-1 6-3 9-2 2-5 3-8 3v-10l-2-1v3l1 3v3c0 3 0 3-3 6l-1-19h-2l1 23-3-1-4 1-1-2-2 6c0 4 0 4-2 7l-3 2-2 2-4-1v-8l5-4v-2l-7 6-1 7-3-1 1 7c-1 4-4 6-7 7-5 2-7 2-12 1l1-4 6-2 1-5 6-2v-2l-1-3v-3l1-7-5 2 1 2c0 5 1 9-3 13l-6 5-4 4-4 1 1-4c-3 2-5 3-6 6v6c-5 2-8 2-13 2v3l-6 1-3 1c-10 2-21 1-31 1v-1h2l3-1h3l5-2v-2l4-3c5-4 5-4 8-9l-1-5v-3c4 4 4 4 4 8v2l1 1c7 0 13-2 19-6l3-5c2-3 2-4 6-5h8v-4l-1-5v-7l2-4 9-2c7-2 10-7 14-13l1-2c4-7 6-13 8-20l1-3 1-4 1-5 2-16h-3l-1 1 3 3-7 5a1218389 1218389 0 0 1-9 3h-2l-6 3-9 1h-4c3-3 5-3 9-4l-4-1h-5l-2-1-12-3v-1h2l14-2 9-1v-2l3-1c6-3 6-3 10-9l-3-2-1-3c-4-3-8-4-13-5l-6-3c-4-2-7-3-12-3 3 3 5 4 9 4l3 1h3c-3 2-6 2-10 3l-9 1-11 2-15 1 1-3 2 1v-3h4v-2a163414 163414 0 0 1 14-1l1-5h-10c5-3 7-2 12-1l3 1 5-1v-2c-4-2-7-2-11-2h-3l-4 2-6 1-8 5-2 1-2-1c1-4 3-5 7-7l10-2v-2h-2l-3-1-1-2h3c8 2 16 2 24 0v2l-6 2 3 1a594294 594294 0 0 0 16 7l2 1 4 1-8-5 3-1 2 1-1-2-8-1-4-3-1-2-1-2-4-1h-4l3-3-2-1-2 2-1-1-6-4 3-1-3-2h7v2l5 1 1 3 4 1c13 3 13 3 17 8l4 9c2 4 4 6 8 9v2c3 1 5 3 9 3 6 2 6 2 8 5l1 5 1-22h-2l-1 14-2-2v-8l1-2v-5l-1 8-2-1-1-5-2-1a138309 138309 0 0 0 1-21l-3-9v-2h-7l-3 1-6 1-9 1h-17v-3h-7v-1l16-1-6-3v-1c4 0 6 0 10 2 3 2 5 3 9 2l7-3 8-1c-3-4-6-9-10-12l-3-3v-2c-3-2-6-2-10-2l-3 2-12 3h-3c-5 0-10 0-15-2 4-3 9-2 14-2 5-1 7-2 11-5l3-2c-6-3-11-4-17-5h-3l-6-1c2-2 3-2 7-2 6 0 12 1 17 3l8 1 5 3 1 2c1 3 1 3 4 5l1 3 2 2h3l3 3c2 3 4 5 7 6l2 1c1-7-1-10-5-16l-1-2-4-5 3-1 2 1 2-6-2-1-4-2v-2h-2v-2l-4-2v-2z"/><path fill="#2F221E" d="m251 77 5 2 3 2c2 1 3 2 4 5l2 1 6 4c2 3 2 3 5 4v3h2l8 12 7 11 4 9 2-1v2h3l-1-3-2-3-2-3-1-5-3-1v-2l-3-1-3-6-3-2v-3h3l-1-5-2-1-7-5-2-2-2-2 1-2 1 1 2 2 2 2 7 1 7 14h5l-1-2-1-6h-2v-4l5 1v3h2c6 14 13 35 8 50h2v-3l1-19h3c5 16 2 37-1 53l-1 1v6l-2 8h-2v10l-4 10-1 4v4l-3 1v3l-1 3v4c0 6-2 11-6 15h-2l-1 3-4-1 2-3 1-5h-2v2h-4v-5h2v-4c3 1 4 2 6 5 2-2 2-2 2-5v-2l-5-2v-2l6-2 1 1 1-2c-6-1-9 0-13 4l-5 1-2-1c-1-6-1-10 1-16 2-7 2-13 2-20v-4c0-7 0-7-2-13 0-6 2-12 4-17l1-3 2-5 3-1 4-6 1-2c2-2 3-4 3-7-2-6-5-10-8-15l2 3-2 8h-2l-1 3-2-1v6h-2l-1-2-1-2-1-3-3-6 5 12c3 5 3 10 2 16l-7 9h-2c-6-9-6-18-5-29l1-3-3-1-2-12v-7l2-5-1-5v-7l-2-5h-4l-4-4h-2v-2h2v-2l-4-2v-2z"/><path fill="#435A41" d="m168 50 3 1h2l-1 3h-2l-2-1h-3l-4 1v4l6 4v3l16-1c4 0 7 0 11 2l3 1 2 1v-2h-3v-2l2-1-12-1v-3c5-2 8-2 13-2v2h-3v2l2-1 4 1v2h3v-3h2l1 2 5 1c5 1 5 1 7 3h-12v2l6 2-2 3 12 2 1 4 5 1 1-1h9v-3l-5-2-1 2h-2l-1-7 8 4 2 1 3 2 2 2 6 4-3 1-2-1-9-1-3 1h-3l10-1v2l-14 3 13 4c3 1 5 2 7 5l-12-3-4-2h-3l-2-1c-3-1-5-3-6-6l-4-3v-2a360 360 0 0 0-8-2l-6 2v2l5 3h-5l-3-1h-4v2l-3 2 3 3h-9l-2 4-2 2 3 1v2h-9l-8 4h-2l-1 5h-12l-1-3 6-1-1-3 1-3 4-1c-2-2-4-2-7-2l-3-1h-2v5c-2 2-4 3-7 3v2l-3 1c-4 2-6 4-9 8h2v3h-2l-2 1h-3l-4 2 4-14-2 2-4 1v-2l-4 1h-2l-3 3h-4v2l-2 5h2l1-3h2c-1 3-3 5-6 7l-3 3v6l-1 9-4-1v-2l-1-6 2-4h-2l-1 4h-2v2h-5l3-1v-2l2-1 3-6 5 1v-3l4-9h2l1-11-4 12h-4v2h-2l2-12-11 10-3-1-1 3-4 8-3 1h-2l-2 5-1 2h-2c1-5 1-5 3-7v-4c0-4 0-4 2-6l5-1v-2c2-5 5-9 9-12h7l-1-2 1-4-6 2v2l-6 4c2-4 4-6 8-8l2-1v-2l6-1-1-3 5-4 3-2 5-2v-2l5-1 2-2 2-3h3v-2l6-1-3 3 1 2 6-2 2-6 4-1v2l4-2 6-3v-2l3-1 5-4 9-1z"/><path fill="#283B28" d="M151 93h5l3 1c3 0 3 0 5 2l-5 1 1 3-1 3-6 1 1 2h11l2-4c3-2 5-3 9-3v4l-1 3-1 3 7 1-3 1v2c5 0 8 1 13-2 3-3 6-2 10-1h2l-2 3h-3v-2h-4v2l-2 1 2 1c3 2 3 2 4 5v3c-6 3-11 4-18 3l-3-2-5-1h-4v-2h2v-2l13-1c-4-3-9-2-14-2l-8 3h-3v2h-3v2h-7l-1-4h2v-2l-3 2c-5 2-10 1-16 1v7h-2v6l7-5c2-2 2-2 5-2h9l-2 4-7 1v5l12-2h7v-2l8 1v-2l-2-1h2v-2l4 1 1 3h5v3l3-2c2-2 3-3 6-3h2l-1 2-2 7-3 7 1-1c6-5 9-6 16-6v2h2a156 156 0 0 1 7 0l5 4 2-2 6 2v1l-5 1h2l6 3 1 5h3c4 0 5 0 8 2l1-2 1 5h-3l6 4c-3 1-4 1-7-1l-2-1a663 663 0 0 1-18-8l7-2v-2l-3 1c-6 2-12 1-18 1h-3l3 1v2l-2 1h-3l-3 1-4 3h-3l1-5h-2l-1 5h-1l1-9-3 2-5 1v2l-5 5-4-1-3 1c-6 0-9 0-14-3l-6-1v10h-2v-10l-4 1-1 2v-6l-3 10h-1c-1-7 0-11 4-17l3-3 1-2-7 1-3 5h-2v2h4v2l-3 2-5 2-2 1-10 6h-5l-4 2v-4l5-4 1-2-3 1c-3 2-6 3-10 3l2 2 3-1 1 10h-2v-4c-3 2-5 2-6 6l-1 3c-1 8-1 8-3 11l-3 1-2-1v-4h2v-2l4-6-1-1-5 2c0-4 3-6 6-9l2-5-5 1-1 2-1-9 2-1 1-3-4 1 3-6-9 7h3v3c-3-1-4-2-6-5l2-1 1-4-4-2 3-1 2-5h2l-1 9c3-3 5-5 5-9v-5l6 1v3h3v6h4v2l-2 1-1 5v4l10-9 4-2-1 8 2-1 7-1c-1-3-2-4-5-5l-3-2v-2h-4c0-8-1-14 5-21l3-2 1-1c4-3 6-5 10-5l-1 5 2-1 8-1v-3h-2c2-4 4-6 8-9h4v-2l3-1c3-2 3-2 4-5v-2z"/><path fill="#070808" d="M155 184c3 2 4 5 6 8l-1 6h2l6 4v2h-3l-9 3c-4 2-9 3-14 3l-3 1-1 8v7l2-1h3l3-1 5-1v2c6 0 8-2 12-6l4-1-3 4 3 1v2h-3c-4 0-6 1-9 3l-3 2-1 5v4l-3-2v2c-2 4-5 4-8 6l-3 3v2l-2 2v2l-4 5v3l3 2a86 86 0 0 1 2 10l1 6 3-2-1 8h-2l-1 4-2-10v11h-12l7 2v2h2v2c-4 0-6-1-10-3l-8-2-5-3v-3l10 3-1-2-2-15h-2l-3-3-7-7v-2l-4-1h-3l-5 1c-4-3-5-5-6-10l23 4 3-8-7 4 1 2-21-4 3-9c2-2 2-4 2-7l1-1v-5c-1-9 0-18 7-25 2-2 4-3 8-3l2 1-3 4h-2v3l5-4-1 2-1 4 2-2 4-2 5 3h5l3 1h24l1-2h3c4-1 5-3 7-6l-2-2v-4h-2v3h-2l-1-2c-2-2-2-2-5-2l-5 1h-2l-3-2c13-9 13-9 18-8z"/><path fill="#283429" d="M147 55h2l-2 5h-2l-1 3-7-1-1 3c-1 3-2 4-5 6l-5-3 1-2h-2v2h-3l-1 2c-1 2-2 4-5 5l-3-1v2l-9 6-3 2v3l-6 1v2c-4 3-4 3-7 3l-1 4 4-2v-2l7-3-1 7h-3c-5 1-7 3-10 7l-2 5c-1 3-4 4-7 5v4l-1 6-2 1v2c0 4-2 5-4 8h-2v7h3v-2l3-6 4-1-2 4-2 2 1 1 6-4c-1 3-2 4-4 5-3 3-3 5-4 9h-8v-2l-4 4v8h-1v-8h-3v3l-3 10v15a813 813 0 0 1 0 11v3l2 11 1 6v6l3 1v6h2c5 7 10 16 11 25l-8-7v-2h-4l-1-3-4-6c-2-2-2-2-2-6h-2v-10h2l-1-2a94 94 0 0 1-4-32l-1-20 3 1-2-3v-6h4v-2h-2v-2h2v-3c2-23 2-23 6-32l2 3 1-2a225 225 0 0 1 11-20l7-6 1-2h2l1-2c1-2 2-3 5-4l8-7h2v-2h3l1-3c5-4 14-11 20-11v2h-3l-1 2-7 6-3 3-13 11h-2l-1 3-3 1-2 2c-2 3-2 3-5 4-5 2-7 6-9 11l-2 4-1 2-3 3h-2v8l4-2 3-8c2-6 4-10 9-14l3-1v-2h3l1-3 4-2 10-8 3-1 2-3h3v-2l4-5h3c3 0 3 0 5-2 4-4 6-4 11-5l2-1 1-2h4v-2h8v-2z"/><path fill="#7A3225" d="m168 50 3 1h2l-1 3h-2l-2-1h-3l-4 1v4l6 4v3l16-1c4 0 7 0 11 2l3 1 2 1v-2h-3v-2l2-1-12-1v-3c5-2 8-2 13-2v2h-3v2l2-1 4 1v2h3v-3h2l1 2 5 1c5 1 5 1 7 3h-12v2l6 2-2 3 12 2 1 4 5 1 1-1h9v-3l-5-2-1 2h-2l-1-7 8 4 2 1 3 2 2 2 6 4-3 1-2-1-9-1-3 1h-3l10-1v2l-14 3 13 4c3 1 5 2 7 5l-12-3-4-2h-3l-2-1c-3-1-5-3-6-6l-4-3v-2a360 360 0 0 0-8-2l-6 2v2l5 3h-5l-3-1h-4v2l-3 2 3 3h-9l-2 4-2 2 3 1v2h-9l-8 4h-2l-1 5h-12l-1-3 6-1-1-3h3v-2h2c11-2 11-2 20-6l1-2-7-2h-4v-1l9-1h-12v1h-4l-2-1-5-2-3 2 1-4h12l-3-2v-2h-10l-2 5-4-2v-5l-4 1-1 4-5-1 1-5 6-2 1-3 3-4 2-1v-2c-3 1-5 3-7 6l-3 3h-2l4-9 1-2 3-3h2v-2l3-1 5-4 9-1z"/><path fill="#030202" d="M298 138c3 1 3 3 4 6 2 6 2 13 2 20v3a1751 1751 0 0 1 0 14c0 12-2 22-5 33l-1 3-2 6-7 2-4 3-6 2-2-1c-1-6-1-10 1-16a59 59 0 0 0 2-24c0-7 0-7-2-13 0-6 2-12 4-17l1-3 2-5 3-1 4-6 2-3h3l1-3z"/><path fill="#AD3B26" d="M245 80c4 1 6 4 9 7l5 3 2 9v6l3 1 1-3v2l2 1-1 2-1 11v2l2 9 2 1v13c0 6 0 9 3 14l1 5c6-5 6-5 8-12 0-7 0-11-4-16l-3-7 1-3c3 4 4 9 6 14h2v-6h2l1-2h2c1-7 1-7-1-13 4 3 6 7 8 12l1 2v7l-4 6-2 3-2 3h-3v2l-5 13-1 2-2 6-2-2-2 1-2-9h-2l-1 14-2-2v-8l1-2v-5l-1 8-2-1-1-5-2-1a138309 138309 0 0 0 1-21l-3-9v-2h-7l-3 1-6 1-9 1h-17v-3h-7v-1l16-1-6-3v-1c4 0 6 0 10 2 3 2 5 3 9 2l7-3 8-1c-3-4-6-9-10-12l-3-3v-2c-3-2-6-2-10-2l-3 2-12 3h-3c-5 0-10 0-15-2 4-3 9-2 14-2 5-1 7-2 11-5l3-2c-6-3-11-4-17-5h-3l-6-1c2-2 3-2 7-2 6 0 12 1 17 3l8 1 5 3 1 2c1 3 1 3 4 5l1 3 2 2h3l3 3c2 3 4 5 7 6l2 1c1-7-1-10-5-16l-1-2-4-5 3-1 2 1 2-6-2-1-4-2v-2h-2v-2l-4-2v-2z"/><path fill="#040603" d="M61 148h2v2h8v5l-3-1-2 4h4l-1 3 9 1v2l-4 2 4 1v2l-2 1-3 4h7l1 3h-7l7 5-3 1-2 6 3 1v2l-3 1v12h6l-1 3c-6 1-8 1-13-2h-6v2h-2v2l-2 5 3 1c4 5 5 10 5 16l-2 1-4-9h-2v-3l-1-3-2-1-1-6-2-9c-2-6-1-12-1-18v-4l1-13-3-1h3l-1-3 2-1v-3l2-7h3l3-4z"/><path fill="#743523" d="M197 42c5 0 9 0 14 2v2h6l1 3 5 2 5 1 1 3h3l12 4h2c5 2 6 5 9 9l5 4 5 5 1 1 5 6c6 7 6 7 13 12l2 1 1 5h-3l4 6 3 5 2 2c4 3 7 8 9 13v3l-2-1h-2l-2 2v-2c0-4-1-4-3-7a348 348 0 0 1-9-14l-2-3-2-3-2-5h-2v-3h-2c-3-1-4-3-6-6l-5-3-2-3-8-4 2 4-1 1 8 5c2 0 2 0 4 3 1 5 0 10-2 14l-4-1v-6l-1-4-1-5-2-1-6-6 1-1-3-2-3-2-2-2-7-5-4-2c-3-1-5-3-7-6-3-3-8-4-13-5h-5l2-5h-11l-3-1h-6l-3-1h-2c-4 0-5-1-8-3v-2h3v-2l7-1h2l9 1v-2z"/><path fill="#1D1513" d="M252 130h7c6 10 4 21 3 32l2-4 1 10 2-13h1l-1 21 2-12h2c2 9 1 17-1 26h-1v-9l-8-3c-4-2-6-2-9-5v-2l-2-1c-5-3-7-7-9-13-2-4-2-4-6-7l-3-1-5-2h-2c-4-2-6-2-8-6l-4-1v-2h-8l-2-2 15 1 1-1h-2l-3-3-1-2h4v2l2-1h13l20-2z"/><path fill="#F1F1F1" d="M92 237h6l14 4v2h-3v2h4l1-2c9 6 9 6 11 11 2 3 3 4 6 5v3l3 2 2 8v2l1 6 3-2-1 8h-2l-1 4-2-10v11h-12l7 2v2h2v2c-4 0-6-1-10-3l-8-2-5-3v-3l10 3-1-2-2-15h-2l-3-3-7-7v-2l-4-1h-3l-5 1c-4-3-5-5-6-10l23 4 3-8-7 4 1 2-21-4c1-6 2-11 8-11z"/><path fill="#9F3724" d="M206 138h7v2l5 1 1 3 4 1c13 3 13 3 17 8l4 9c2 4 4 6 8 9v2l11 4 6 4 1 5v3l-2 8h-2v-10h-3l-1 1 3 3-7 5a1218389 1218389 0 0 1-9 3h-2l-6 3-9 1h-4c3-3 5-3 9-4l-4-1h-5l-2-1-12-3v-1h2l14-2 9-1v-2l3-1c6-3 6-3 10-9l-3-2-1-3c-4-3-8-4-13-5l-6-3c-4-2-7-3-12-3 3 3 5 4 9 4l3 1h3c-3 2-6 2-10 3l-9 1-11 2-15 1 1-3 2 1v-3h4v-2a163414 163414 0 0 1 14-1l1-5h-10c5-3 7-2 12-1l3 1 5-1v-2c-4-2-7-2-11-2h-3l-4 2-6 1-8 5-2 1-2-1c1-4 3-5 7-7l10-2v-2h-2l-3-1-1-2h3c8 2 16 2 24 0v2l-6 2 3 1a594294 594294 0 0 0 16 7l2 1 4 1-8-5 3-1 2 1-1-2-8-1-4-3-1-2-1-2-4-1h-4l3-3-2-1-2 2-1-1-6-4 3-1-3-2z"/><path fill="#384733" d="m251 77 5 2 3 2c2 1 3 2 4 5l2 1 6 4c2 3 2 3 5 4v3h2l8 12 7 11 4 9 2-1v2h3l-1-3-2-5 3 1 6-1v3h-2l1 5-6 2 1 11-4-5-1 2h-2l1-6h-1l-1-2c-1-5-3-9-6-13l2 3-2 8h-2l-1 3-2-1v6h-2l-1-2-1-2-1-3-3-6 5 12c3 5 3 10 2 16l-7 9h-2c-6-9-6-18-5-29l1-3-3-1-2-12v-7l2-5-1-5v-7l-2-5h-4l-4-4h-2v-2h2v-2l-4-2v-2z"/><path fill="#030302" d="m140 248 3 3v2l3 1 2 3 1-2h5l-1 4h4v2h2v2c2 9 4 13 11 18 4 4 6 8 8 14-8 3-17 5-26 3v-2l-2 1-7-1-3-1-2-1v-11l-2-3a207 207 0 0 1-3-16l-3-2 1-4 4-1v-2h2l-1-3 4-4z"/><path fill="#0F0F0F" d="M173 216h1a2360 2360 0 0 1 0 13v5l-1 6 2 1 5 4c0 4-1 6-3 9 0 6 1 12 4 17l5 5c2 3 3 4 3 8-2 5-5 9-10 12l-3-1v-4c-2-6-7-11-13-15-3-3-3-5-3-9l-1-3v-3h-2v-2l-5 1 2-5h-5l-2 4-1-2-4-6-2-2-3 6h-2v2l-4 1 1-2h2v-2l3-7 1-2 4-2 4-2 1-6 3 3 2-2 1 4h-2v3c7 1 11 0 17-4l4-5-2-1 3-17z"/><path fill="#464330" d="m208 75 2 1h2l5 2v2h2l4 4c3 4 5 4 9 5l13 5 1-1-12-4c-4-1-4-1-7-4l15-2-1-1h-5l-3 1h-2l1-2c5-1 10-2 15 1l2 4h2v2l2 1 4 2-1 7-5-1 2 3a2905 2905 0 0 1 5 6c2 4 3 6 3 10l-1 4c-6-1-8-4-11-8l-2-2h-3l-2-2v-3l-3-1-1-3c-2-4-3-4-6-5l-8-1-8-2-9-1h-5l17 3v2c-11 3-22 3-34 3l1-4h-5c5-7 5-7 10-8h3l-2-2 4-2v-2h9l-3-2c1-3 2-5 6-5z"/><path fill="#1A231B" d="M108 98h1c0 5 0 8-2 12h-2l-1 3-1 3-1 3-1 3-6 2-2 4h-2v2l2 1v-2h2l1-4h2l-2 6 2 1v5l3 1-1-1 1-11v-2c1-3 3-4 5-6l5-5-1 2-4 1 2-7h4l1-3 8-1v2l2-1 4-2-1 8-4 2-6 4-5 2c-3 5-4 9-5 15v6h4v2h2l6 4v3l-9 2 1-8-10 9-4 2v-9l3-1v-2h-4v-6h-3v-3l-6-1 1 4-2 8-2 2h-2l1-9c-3 1-3 3-4 6s-3 3-6 4v-5l6-5-7 4 1-5 4-2v-2l-4 1-2 5-1 3h-3v-7l5-5 3-4 2-4 5-1 2-5 3-6h2c3-1 5-3 7-6l3-2 2-2v9l-1 2-1 2h2v-2h4v-2l1-3v-3l3-5z"/><path fill="#F2F2F2" d="m105 198 2 1-3 4h-2v3l5-4-1 2-1 4 2-2 4-2 6 4-1 4h9l12 4v9l-3-1-1 4c-7 1-12 0-19-3l-4-1 10 4v4l-6-1v8l-4-1h-3l-4-2H91l-2-4 1-1v-5c-1-9 0-18 7-25 2-2 4-3 8-3z"/><path fill="#30422C" d="M186 130h2l-1 2-2 7-3 7 1-1c6-5 9-6 16-6v2h2a156 156 0 0 1 7 0l5 4 2-2 6 2v1l-5 1h2l6 3 1 5h3c4 0 5 0 8 2l1-2 1 5h-3l6 4c-3 1-4 1-7-1l-2-1a663 663 0 0 1-18-8l7-2v-2l-3 1c-6 2-12 1-18 1h-3l3 1v2l-2 1h-3l-3 1-5 2v-10l-2 1h-3l-3 1h-2l-2-2 4-7c-3 0-5 0-8 2l-2 2-3 3-4 7-11 1-5-3v2l-3-1 1-1c2-2 3-3 3-6l-4 2 1-5c6-3 11-4 17-5l9-2 2 1-4 4-3 2-6 5 19-16c3-3 4-4 8-4z"/><path fill="#0E0E0D" d="m68 238 5 5v3h2l3 4 1 2v6l4-1v-11l1 2 7 2h12l1-3 7-1-3 8-23-4 4 9 3-1c5 0 7 0 11 2l5 6 5 4v2h2l2 7v4l1 6-5-2-2-1-4-3-8-7-2-2-6-3v-2h-2c-3-1-4-3-6-5-1 6-1 9 2 14l1 2-1 2-10-12-1-2a1300 1300 0 0 1-15-28h4v2l3 1v2l3 1 1 2v-2l-2-8z"/><path fill="#1B1918" d="M233 177h3l6 1h5l4 2 1 1c-8 7-8 7-13 7v2c-8 2-16 4-24 4l23 4c-1 3-3 3-6 4-7 2-13 2-20 2l-8 1 4-4h-6l-4 4-3 1-1 2 9-2-4 4h-9v3l-3 10h-2c-2-4-1-8 0-12l2-2h3v-2l-5-1-1-5h2l1 2c2 2 3 3 6 3l-4-4h3c5 0 6-1 9-5l3-2h-8l6-4 3-1 2-2 3-1 19-7c-11 1-19 2-28 9l-8 1c11-12 24-14 40-13z"/><path fill="#703223" d="m83 263 2 2 6 4v2h2l8 5 3 3c3 2 4 3 5 6l4 2-5-1 1 3c5 3 11 4 16 6l6 2v-2h-2v-2l-9-1v-3l2 1 6 1h6v-3l-1-13h1l2 11h2v8h2l9 2h3v2h8l3-1 8-1h7l-2 1v2l-8 3 26-1 1-1h8v-3l11-2v2h-3l-1 2h-3l1 3h-9v1h-14v2l-13 2h-7l-3 1h-7l1-4a343516 343516 0 0 0-12 0h-3c-7 0-11-1-17-5l-7-2-9-3v-2h-2l-3-1h-3l-5-3h4l-5-7-2-2v-2l-3-2-4-5-2-1-1-5 1-1z"/><path fill="#31462F" d="m167 128 4 1 1 3h5l1 4c-6 6-12 11-19 15l-2-1 3-2 3-2 2-2 5-5-2 1-23 5v3h2c-1 5-1 5-3 7l2 1v-2l2 1 9 1h5l1-3 6-8 2-2 6-2 2 1-3 7 7 1 2-1h2l1 11h-3l1-5h-2l-1 5h-1l1-9-3 1-5 2v2l-5 5-4-1-3 1c-6 0-9 0-14-3l-6-1v10h-2v-10l-4 1-1 2v-6l-3 10h-1c-1-7 0-11 4-17l3-3 1-2-4-1 7-1 1-3h2v3l3-1 1-3 1-2h8v-2l8 1v-2l-2-1h2v-2z"/><path fill="#B33C26" d="M262 212h2l2 6-2 7-2 12h1c-1 17-1 17-3 23l-5 2c-4 3-5 4-6 9v3l-3-1 1 7c-1 4-4 6-7 7-5 2-7 2-12 1l1-4 6-2v-2c1-3 2-4 5-5l3-2-1-6h3l3-8h2l-1-3v-3l-9 3c0-4 1-6 3-9l2-2c10-10 14-21 17-33z"/><path fill="#365635" d="m180 115 4 4h-14v2h-2v2h2c3 0 6-1 9 1l5 5-5 6h-2v-3l-2 1-7-1h3l-1-3-3-1v5l-8-1v2h-3c-4 0-4 0-7 2h-10l1-5 3-1c4-1 4-1 6-4h-12l-2 4c-3 2-3 3-7 3v-6h2v-7l11-1 8-2v2h-2l1 3 7 1v-2h3v-2c7-3 14-6 22-4z"/><path fill="#030202" d="m259 134 1 4-2 3 3-1v18l1 4 2-4 1 10 2-13h1l-1 21 2-12h2c2 9 1 17-1 26h-1v-9l-8-3c-4-2-6-2-9-5v-2l-2-1c-5-3-8-8-10-14l1-3 1 1h5l1-1-1-3c0-4 1-5 3-7l6-5 3-4z"/><path fill="#8F3926" d="M55 124h5a3811 3811 0 0 1-4 24v4l-3 8v5c-2 5-1 10-1 15a813 813 0 0 1 0 11v3l2 11 1 6v6l3 1v6h2c5 7 10 16 11 25l-8-7v-2h-4l-1-3-4-6c-2-2-2-2-2-6h-2v-10h2l-1-2a94 94 0 0 1-4-32l-1-20 3 1-2-3v-6h4v-2h-2v-2h2v-3c1-8 1-15 4-22z"/><path fill="#575656" d="M113 246c4 1 5 2 8 5l2-1 2 3c1 3 3 5 6 6v3l3 2a86 86 0 0 1 2 10l1 6 3-2-1 8h-2l-1 4-2-10v11h-12l7 2v2h2v2c-4 0-6-1-10-3l-8-2-5-3v-3l10 3-1-2-2-15-2-1 9-3h6l-1-3h2v-2h-2v-2h-3v-3l-6 1v-2l4-1v-2h-2c-3-1-5-3-7-6v-2z"/><path fill="#283B27" d="m237 104 4 3c1 3 4 5 6 7l7 8v2h-2l-10 4c-4 1-5 2-9 1l-4-2c-3-2-3-2-7-2l7 3v1h-7l-7-1h-8v-2h-7c1-3 2-3 5-4h13v-2l-13-1 2-4h7l5 2 6 1h6l3-6h1l1 6 3-1c0-5 0-5-3-9l-5-2-2 5h-2l-15 1c2-2 3-3 5-3h2l9-3c3-2 5-3 9-2z"/><path fill="#515151" d="M155 184c3 2 4 5 6 8l-1 6h2l6 4v2h-3l-9 3c-4 2-9 3-14 3l-3 1-1 8v7l2-1h3l3-1 5-1v2c6 0 8-2 12-6l4-1-3 4 3 1v2h-3c-4 0-6 1-9 3l-3 2-1 6h-1v-6h-3l-1 4-1-7-13 4c-4 2-8 0-12-1v-2h-3l-8-4c4-1 5-1 8 1 5 2 10 3 16 3l1-4h2l1-8h-2l-4-2-8-1h-2l-5-1 1-4h31l1-2h3c4-1 5-3 7-6l-2-2v-4h-2v3h-2l-1-2c-2-2-2-2-5-2l-5 1h-2l-3-2c13-9 13-9 18-8z"/><path fill="#172218" d="m127 104-1 8-4 2-6 4-5 2c-3 5-4 9-5 15v6h4v2h2l6 4v3l-9 2 1-8-10 9-4 2v-9l3-1v-2h-4v-6h-3v-3h-2l-5-2v-2l8 1v-2h2l1-4h2l-2 6 2 1v5l3 1-1-1 1-11v-2c1-3 3-4 5-6l5-5-1 2-4 1 2-7h4l1-3 8-1v2l2-1 4-2z"/><path fill="#1F3120" d="m86 133 6 1v3h3v6h4v2l-2 1-1 5v4l10-9 4-2v3h-2l-2 4 2 1c-1 3-2 4-5 6l-7 1 2 2 3-1 1 10h-2v-4c-3 2-5 2-6 6l-1 3c-1 8-1 8-3 11l-3 1-2-1v-4h2v-2l4-6-1-1-5 2c0-4 3-6 6-9l2-5-5 1-1 2-1-9 2-1 1-3-4 1 3-6-9 7h3v3c-3-1-4-2-6-5l2-1 1-4-4-2 3-1 2-5h2l-1 9c3-3 5-5 5-9v-5z"/><path fill="#426A3A" d="m252 176 2 1 2 2 3 1 6 4-3 4 3 3-7 5a1218389 1218389 0 0 1-9 3h-2l-6 3-9 1h-4c3-3 5-3 9-4l-4-1h-5l-2-1-12-3v-1h2l14-2 9-1v-2l3-1 9-6 1-5z"/><path fill="#100F0F" d="M176 99v4l-1 3-1 3 7 1-3 1v2c5 0 8 1 13-2 3-3 6-2 10-1h2l-2 3h-3v-2h-4v2l-2 1 2 1c3 2 3 2 4 5v3c-6 3-11 4-18 3l-3-2-5-1h-4v-2h2v-2l13-1c-3-2-4-2-8-2h-3l-8 2h-4l-1-3-4-1c1-4 3-5 6-8h4l1-2c2-4 6-5 10-5z"/><path fill="#A53B25" d="m153 51-4 1v2h-4v2l-6 1v2h-4l-1 3-5 2-9 3-1 3h-3l-5 1-2 5-3 1-2 3c-4 3-4 3-7 3l-1 2c-1 2-2 3-5 4s-3 1-5 4h-3v2l-2 1c-3 1-4 2-5 5l-1 2-1 2-1 3-2 5c-2 6-2 6-6 8h-2l1-9 4-1 1-3c2-6 5-13 10-17l4-1c3-1 4-3 5-5l3-1 3-3 7-6 8-7 8-6 1-2h3v-3l4-1 11-3c5-1 11-3 17-2z"/><path fill="#EDEDEE" d="M93 209h2l2 4h2l1-2 1 3 3-1 1 3-2 1c1 3 3 3 6 4l3 1 2 1-4 1 10 4v4l-6-1v8l-4-1h-3l-4-2H91l-2-4 1-1v-10c0-5 0-8 3-12z"/><path fill="#3E3938" d="m208 75 2 1h2l5 2v2h2l2 1 1 3h-10v7l-10 1 17 3v2c-11 3-22 3-34 3l1-4h-5c5-7 5-7 10-8h3l-2-2 4-2v-2h9l-3-2c1-3 2-5 6-5z"/><path fill="#273C29" d="M206 120h12v2h-6l-4 1c-3 0-4 0-7 2l6 1v2l11-1-2 2 1 2-3 1 1 3 5 1-2 2h-7l-3-1h-3l3 1 2 2v1h-2l-13 2 4-2v-2c-7 1-10 3-15 7h-2l1-2 3-10 1-3-7-4v-1h3c8-1 16-6 23-6z"/><path fill="#7F9478" d="m168 50 3 1h2l-1 3h-2l-2-1h-3l-4 1v4l6 4v2h-3v2l-7 2v1l6 1-1 2 3 1 2 2c4 2 7 1 11 1-3 2-5 3-9 3l-3-1h-10l-2 5-4-2v-5l-4 1-1 4-5-1 1-5 6-2 1-3 3-4 2-1v-2c-3 1-5 3-7 6l-3 3h-2l4-9 1-2 3-3h2v-2l3-1 5-4 9-1z"/><path fill="#374735" d="M208 155c5 0 8 0 11 3v2c-6 2-6 2-10 1l-2-1h-4l6 1-1 5c-3 2-5 2-9 2l-3-1h-2v2h-4v3h-2l-1 2 3-1 14-1-1 2-6 1c-5 0-9 0-13 4l-2 2v-3h-3v2h-3l-1 3-4 2-3-1c3-4 5-6 10-6v-2l4-2v-3l1-4c-4 1-7 2-10 5l-1 1h-2v3l-3 1-2-1-1 2c1-5 4-7 8-10l12-7 1 3 2-1c4-4 9-5 15-7 2-2 4-1 6-1z"/><path fill="#A33A26" d="M300 132h6c2 10 2 20 2 30 0 11 0 11 2 21l-1 6-1 8c-1 7-2 12-5 18h-2l-2 9h-2c-1-7 1-12 3-18s2-12 2-18l1-3a2344 2344 0 0 0 0-15c0-10 0-20-2-31l-1-7z"/><path fill="#5B2E20" d="M308 151h2l1 6 2 5v10c0 17 0 17-2 21h-2v10l-4 10-1 4v4l-3 1v3l-1 3v4c0 6-2 11-6 15h-2l-1 3-4-1 2-3 1-5h-2v2h-4v-5h2v-4c3 1 4 2 6 5 2-2 2-2 2-5v-2l-5-2v-2l6-2 1 1 1-2-6-1v-1h5l1-3v4h2v-3l2-6h2v-3l2-5 1-9 3-15v-2l-1-1c-2-10-1-19 0-29z"/><path fill="#080808" d="M186 130h2l-1 2-2 6-5 12-3 1-2-2 4-7c-3 0-5 0-8 2l-2 2-3 3-4 7-11 1-5-3v2l-3-1 1-1c2-2 3-3 3-6l-4 2 1-5c6-3 11-4 17-5l9-2 2 1-4 4-3 2-6 5 19-16c3-3 4-4 8-4z"/><path fill="#B03B25" d="m241 249 1 2-2 4 3-1c3-2 5-3 8-3l-1 8h-2v2l-3 8-1-2v4l-1 3c-3-4-2-8-1-12v-2l-5 2 1 2c0 5 1 9-3 13h-12l-5-1 1-1-2-2 11-1v-4l-1-5v-7l2-4 6-2h3l3-1zm-10 24-1 2h2l-1-2z"/><path fill="#A03A26" d="M179 44c5 0 8 0 12 2h3l16 2h2l6 4c4 3 9 6 15 8l5 2 1 4 2-2 3 3-3 3-9-3 1 2-4-1-4-5c-3-3-8-4-13-5h-5l2-5h-11l-3-1h-6l-3-1h-2c-4 0-5-1-8-3v-2h3v-2z"/><path fill="#AD3A25" d="M287 118c4 3 6 7 8 12l1 2v7l-4 6-2 3-2 3h-3v2l-5 13-1 2-2 6-2-2-2 1c-2-4-2-6-2-10l2 1v2h2v-3l4-6c3-3 3-8 2-13 0-4-1-6-4-9l-3-7 1-3c3 4 4 9 6 14h2v-6h2l1-2h2c1-7 1-7-1-13z"/><path fill="#AF3C26" d="m244 69 3 1 10 2v3l2 1c8 4 14 8 19 15l5 4c3 2 3 2 4 5v2h-3l4 6 3 5 2 2c4 3 7 8 9 13v3l-2-1h-2l-2 2v-2c0-4-1-4-3-7a348 348 0 0 1-9-14l-2-3-2-3-2-5h-2v-3h-2c-3-1-4-3-6-6l-5-3-2-3-5-3-8-5-3-2-2-1 1-3z"/><path fill="#552C21" d="M133 275h1l2 11h2v8h2l9 2h3v2h8l3-1 8-1h7l-2 1v2l-8 3 26-1 1-1h8v-3l11-2v2h-3l-1 2h-3l1 3h-9v1h-14v2l-13 2h-7l-3 1h-7l1-4-16-1v-1h6v-5h-4v-2l-7 1c-2-7-2-14-2-21z"/><path fill="#863724" d="m170 42 7-1v2h9v1h-7v2h-3v2l4 1-1 4-6 1v-3h-14l-1 3-7 2v2l-3 1 1-4h-2v2l-3-1 1-2h4v-2h-3l-3 1h-3l-5-1 1-3 5-2 3-1 3-1 3-1c7-2 13-3 20-2z"/><path fill="#8F3624" d="M270 193h2v8l3-1h2l1-7h1c0 7 0 14-3 20l-4 1v2l-3 8-3 17c0 6-1 11-4 16l-2-1v-4l1-5v-2l1-3v-2l-1-4 3-12v-12h-2l3-13h2l1 6 2-12z"/><path fill="#291F1C" d="m68 238 5 5v3h2c3 4 5 8 6 13l1 3v7c0 4 1 6 3 9l1 2-1 2-10-12-1-2a1300 1300 0 0 1-15-28h4v2l3 1v2l3 1 1 2v-2l-2-8z"/><path fill="#332E2B" d="m255 133 2 1-1 5-4 3-3 5v6l-4 2c-4 0-5-1-8-3l-12-5-3-3 5-1v-2h-2l1-3 5-2 1-1c5 0 8 0 13 2v2c-6 3-11 4-17 5l19-4v-2h3v-2l5-3z"/><path fill="#344832" d="M106 94h4v3h2l2-1 3-1h6l-1 5h-8l4 4h7l-2 3h-2v-2l-4 1h-2l-3 3h-4v2l-2 5h2l1-3h2c-1 3-3 5-6 7l-3 3v6l-1 9-4-1v-2l-1-6 2-4h-2l-1 4h-2v2h-5l3-1v-2l2-1 3-6 5 1v-3l4-9h2l1-11-4 12h-4v2h-2v-2l3-12h2l1-2 2-3z"/><path fill="#020201" d="M272 123h1v3l4 6 2 4 3 5c1 6 1 11-1 16l-6 6h-2c-6-9-6-18-5-29l4-11z"/><path fill="#716E6E" d="m202 76 2 1-1 3 5 3h-5l-3-1h-4v2l-3 2 3 3h-9l-2 4-2 2 3 1v2h-9l-8 4h-2l-1 5h-12l-1-3 6-1-1-3h3v-2h2c11-2 11-2 20-6l1-2-7-2h-4v-1l9-1h-12v1h-4l-2-1-5-2-3 2 1-4h17c14 1 14 1 26-5l2-1z"/><path fill="#2C2C28" d="m251 77 5 2 3 2c2 1 3 2 4 5l5 2 4 6v2h-2l1 4v2l2 5v5l2 10v7l-1 1-2-5-2 7-4-2-2-12v-7l2-5-1-5v-7l-2-5h-4l-4-4h-2v-2h2v-2l-4-2v-2z"/><path fill="#EFEFEF" d="M300 63c4 2 6 4 9 8l2 3c2 3 2 5 2 9h-2l-4 3-1 2h-5l-4-4-1-2-2-2-2-3c-2-2-2-2-2-5l4-4 2-1 2-2 2-2z"/><path fill="#4F2B21" d="M51 135h1l-1 14h-2v2h2v2l-3 1 1 8h-2l1 26v2c0 8 1 13 4 20v5h-2v10h2l-1 3v-2h-2l-2-4-1-2v-9c1-11 0-20-3-30-3-9-2-18-2-28h3v2h2v-3c0-6 2-12 5-17z"/><path fill="#65362B" d="M147 55h2l-2 5h-2l-1 3-7-1-1 3c-1 3-2 4-5 6l-5-3 1-2h-2v2h-3l-1 2c-1 2-2 4-5 5l-3-1v2l-9 6-3 2v3l-6 1v2c-4 3-4 3-7 3l-1 2-6 8-1 2-3 4-3-1h2l1-5h2v-3l-5 4 7-9h2v-2h3l1-3 4-2 10-8 3-1 2-3h3v-2l4-5h3c3 0 3 0 5-2 4-4 6-4 11-5l2-1 1-2h4v-2h8v-2z"/><path fill="#101010" d="m140 248 3 3v2l3 1 2 3 1-2h5c-1 4-4 7-7 10l-2 4h-2l-1 9h-3l-1 5c-3-4-3-8-4-13l-1-6-3-2 1-4 4-1v-2h2l-1-3 4-4z"/><path fill="#2A3F2B" d="m70 123 2 4c0 4-2 5-4 8h-2v7h3v-2l3-6 4-1-2 4-2 2 1 1 6-4c-1 3-2 4-4 5-3 3-3 5-4 9h-8v-2l-4 4v8h-1v-8h-3l1-8v-5l1-2 1-6h2l2-4 1 2c3-1 5-3 7-6z"/><path fill="#512A1E" d="M272 238h2c2 3 1 6 2 10v7l1-8v-5l3 1-1 10 8-3-2 5h-2v3h-2l-1 3h-2v2c-1 4-4 7-8 9l-5-1-5 2v2l-3 3-3-1h2l1-2c1-2 2-3 5-4v-2c0-6 0-6 2-10l2-1 1 2 2-1h2l1 1v-22z"/><path fill="#EBEBEB" d="m114 20 2 4 1 3v6h-2v2a1413 1413 0 0 1-14 5l-1-2-1-2-2-2-3-5v-3l7-4 1-1c5-2 7-3 12-1z"/><path fill="#E8E8E8" d="M150 9c2 2 2 4 3 7v3l-2 5-6 2-3 1-8-1c-2-4-4-8-3-13 4-5 13-5 19-4z"/><path fill="#A73925" d="M207 91c6 0 12 1 17 3l8 1 5 3 1 2c1 3 1 3 4 5l1 3 2 2h3l3 4-4 1-3-3-2-1-1-4c-3-2-6-2-10-2l-3 2-12 3h-3c-5 0-10 0-15-2 4-3 9-2 14-2 5-1 7-2 11-5l3-2c-6-3-11-4-17-5h-3l-6-1c2-2 3-2 7-2z"/><path fill="#283D29" d="M151 100h7l1 3-6 1 1 2 6 1-5 7 5 1 1 4h-3v2h-3v2h-7l-1-4h2v-2l-3 2c-5 2-10 1-15 1 2-4 3-5 7-7h3v-2l-4-1v-1h8l1 5 5-6h-5v-3l4-1 1-4z"/><path fill="#232522" d="m209 194 15 6v-3l14 1c-1 3-3 3-6 4-7 2-13 2-20 2l-8 1 4-4h-6l-4 4-3 1-1 2 9-2-4 4h-9v3l-3 10h-2c-2-4-1-8 0-12l2-2h3v-2l-5-1-1-5h2l1 2c2 2 3 3 6 3l-4-4h3c4 0 5 0 7-3l3-2 4 1v-2h3v-2z"/><path fill="#477040" d="m168 52 2 1h2v1l-8 1 1 2c5 0 5 0 9-2h12v-2h3l1 3 2 2-6 1v3h13l-1 2h-2v2h3v2l-8-2h-26l2-1v-3l-6-2 1-5-2-1c3-2 4-2 8-2z"/><path fill="#101010" d="m147 235 3 3 2-2 1 4h-2v3c7 1 11 0 17-4h2v3l-4 2-3 1-5 1v3c0 4-1 6-3 9l-3 2 2-5h-5l-2 4-1-2-4-6-2-2-3 6h-2v2l-4 1 1-2h2v-2l3-7 1-2 4-2 4-2 1-6z"/><path fill="#405E3E" d="M145 60v5l-1 3-2 2-1 2 2-2 8-8 3 1-4 4-2 4c-1 2-2 3-5 4l-7 6-4-1 1-3-2 2c-4 3-7 3-12 4 1-3 2-5 5-7l-4-2 8-6 1 2 6-2 2-6 4-1v2l3-1 1-2z"/><path fill="#3C3534" d="M199 57v2h-3v2l2-1 4 1v2h3v-3h2l1 2 5 1c5 1 5 1 7 3h-12v2l6 2-2 3 12 2v3l-4 1-1-1c-2-2-4-3-7-3l-11-5-1 3h-5l-1-2-6-1-3-1h-2l1-4 5 1h3l7 2v-2h-3v-2l2-1-12-1v-3c5-2 8-2 13-2z"/><path fill="#AC3A25" d="M262 212h2l2 6-3 9v6c-1 6-4 9-8 14l-5 1-2 2-8 6c0-4 1-6 3-9l2-2c10-10 14-21 17-33z"/><path fill="#251D1A" d="m239 288 2 1c-3 2-5 3-9 3v2l-4 1-4 1-3 1-2 1h-2l-4 3 1 3c-4 2-9 2-13 3-5-1-5-1-9 1l-10 1h-3l-20-1v-1a3271 3271 0 0 1 26-2v-2h6l4-1 5-1h7l-1-3 8-1v-2c12-6 12-6 19-5l6-2z"/><path fill="#1A261C" d="m123 119 6 3c0 8-2 15-8 21-4 1-5 0-8-2v-4l-3 1c1-6 3-9 7-13l6-6z"/><path fill="#344E33" d="M147 86v6l-5 5-1 3 3 1v2l-3 1c-4 2-6 4-9 8h2v3h-2l-2 1h-3l-4 2 3-8v-3l1-6 4-3 4-4c3-4 7-8 12-8z"/><path fill="#693122" d="M52 211h2l1 6 3 1v6h2c5 7 10 16 11 25l-8-7v-2h-4l-1-3-4-6c-2-2-2-2-2-6h-2v-10h2v-4z"/><path fill="#434343" d="M177 310h2v4h6l3-1h6v-2l10-1 1 3 5 2h2l2 1v2h-3c-8-2-15-2-23-2h-3c-4 0-4 0-8 3l-2 2h-2v-4h-16l-2 3h-5l2-3-2 1-5-1v-2h2l1-4h3v2h3l6 1h7l1-2v2h7l2-4z"/><path fill="#E8E8E8" d="M334 180h8c2 2 2 2 2 6v6c-1 4-1 7-3 10h-8c-2-2-2-2-2-6v-6c1-4 1-7 3-10z"/><path fill="#304830" d="m177 141 2 1-3 7 7 1 2-1h2l1 11h-3l1-5h-2l-1 5h-1l1-9-3 2-5 1v2l-5 5-4-1-2-1h-2c0-5 0-7 3-11 8-7 8-7 12-7z"/><path fill="#0B0807" d="m251 98 3 4 2 2 1 2 2 3c3 4 2 6 1 11-6-1-8-4-11-8l-2-2h-3l-2-2v-3l-3-1v-4l12-2z"/><path fill="#EAEAEA" d="M76 37c4 1 4 2 6 5l2 3 1 4c-1 4-3 6-6 8l-3 2-6 2c-3-1-4-3-6-5l-2-2-2-2 1-3 5-2 6 7 5-4c0-3-3-5-5-8v-2l4-3z"/><path fill="#3F2A25" d="M203 141h5l5 4 2-2 6 2v1l-5 1h2l6 3 1 5h3c4 0 5 0 8 2l1-2 1 5h-3l6 4c-3 1-4 1-7-1l-2-1a663 663 0 0 1-18-8l7-2v-2l-3 1-13 1 1-7-7-2 4-2z"/><path fill="#060504" d="m237 104 4 3c1 3 4 5 6 7l7 8v2h-2l-10 4-9 1v-2l6-4 1-5c0-4-1-7-4-10l-5-2-2 5h-2l-15 1c2-2 3-3 5-3h2l9-3c3-2 5-3 9-2z"/><path fill="#283A29" d="m203 110-2 3h-3v-2h-4v2l-2 1 2 1c3 2 3 2 4 5v3c-6 3-11 4-18 3l-3-2-5-1h-4v-2h2v-2l13-1-1-2h7v-2l-2-1c6-4 9-4 16-3z"/><path fill="#1C1C19" d="M197 90h2v4h2c6-1 12-1 18 1v2c-11 3-22 3-34 3l1-4h-5c4-7 8-8 16-6z"/><path fill="#0D0E0C" d="m183 150 1 5h2l-1 6-6 4-14 10-2-1c0-5 0-8 2-13h5l1-2 4-3v-2l8-4z"/><path fill="#3A4B38" d="M120 85v7h3l3 1 1 2 2-1 3-2 2-1 7-4-2 4h-2l-1 2-4 6-2 2c-2 2-3 3-6 3h-8l-2-4h3l5-1v-3h-5l-1 1h-5v-7c2-5 4-5 9-5z"/><path fill="#0A0807" d="M226 98v3l-5 3-3 2h-7l-4 1a13771 13771 0 0 1-18 0l2 1v2c-3 2-5 2-9 2l1-3-1-3h-2v-4l8 1c10 1 19-1 28-5h10z"/><path fill="#EDEDED" d="m270 35 4 1 1 4-5 7 2 4 4 1 5-7c4 1 4 1 5 3l1 2-4 5-2 2-4 3c-4-1-6-3-9-6l-3-2-2-6 4-7 2-2 1-2z"/><path fill="#F3F3F3" d="m119 270 11 1v3h2l-1 3c0 4 0 6 2 9l-1 2h-7l-5-1v-2h-2l-2-9 3-3v-3z"/><path fill="#1C261D" d="M151 93h5l3 1c3 0 3 0 5 2l-5 1 1 3-9 1v4h-5v3h5c-1 3-3 5-6 7v-6l-7 1 3 1v2l-2 1-2 1-2 1-4 4h-2v-5h5v-3h-2c2-4 4-6 8-9h4v-2l3-1c3-2 3-2 4-5v-2z"/><path fill="#211B19" d="M321 180h1c-1 6-2 11-5 16l-1 3-2 6h-2v2l-3 7-1 3-1 2h-2v3l-3 9-1 4-1 2h-1c0-5 0-10 2-15l2-1 1-5 2-7 2-9 1-3v-3h5v-2c1-5 4-8 7-12z"/><path fill="#304E30" d="m96 97-2 4-2 2 4 2-8 6-2-1-1 3-4 8-3 1h-2l-2 5-1 2h-2c1-5 1-5 3-7v-4c0-4 0-4 2-6l5-1v-2c1-4 2-5 5-8l2-2c3-2 4-2 8-2z"/><path fill="#4C4A49" d="m219 96 1 2c-13 5-26 8-40 4v4h2l2 4-1 1 6 1-2 2h-5l-2-1h-2v-2l-5-1 3-11-2-1h12v1c11 0 22 0 33-3z"/><path fill="#354835" d="M199 125v2h2v4h-2l-2 1-1 3h2c4 1 8 2 12 5v1h-2l-13 2 4-2v-2c-7 1-10 3-15 7h-2l1-2 2-6c3-9 3-9 6-11l8-2z"/><path fill="#A43A26" d="M245 80c4 1 6 4 9 7l5 3 2 9v6l3 1 1-3v2l2 1-1 2-2 13c0 6 0 6-2 8-3-7-3-7-2-12s-2-9-5-13l-5-7 3-1 2 1 2-6-2-1-4-2v-2h-2v-2l-4-2v-2z"/><path fill="#67382D" d="m211 160 5 3c5 3 10 4 16 4-3 2-6 2-10 3l-9 1-11 2-15 1 1-3 2 1v-3h4v-2a163414 163414 0 0 1 14-1l1-5h-10c4-2 7-2 12-1z"/><path fill="#50634D" d="m164 64 3 1 16-1c4 0 7 0 11 2v1l-10-2-1 4 11 1v1h-3l-19 4 2-3h-6l-1 3-9-2 1-2 4-1h-9c4-4 4-4 8-4h2v-2z"/><path fill="#7E3424" d="M300 132h6c2 13 2 25 2 38h-4v22h-1a926575 926575 0 0 1 0-21c0-11 0-21-2-32l-1-7z"/><path fill="#464646" d="m164 218 3 1-3 3 3 1v2h-3c-4 0-6 1-9 3l-3 2-1 6h-1v-6h-3l-1 4-1-7-13 4c-4 2-8 0-12-1v-2h-3l-8-4c4-1 5-1 8 1 5 2 10 3 16 3l1-4 3 1 14-2v2c4 0 6-1 10-3l2-3 1-1z"/><path fill="#231A17" d="M312 125h3c5 16 1 37-1 53h-1v-10l-3-11-1-5v-4h5v-2h-2c-2-7-1-14 0-21z"/><path fill="#447240" d="m180 115 4 4h-14v2h-2v2h2c3 0 6-1 9 1l5 5-5 6h-2l2-5-11-3-8-2-1-6c7-3 13-6 21-4z"/><path fill="#47281F" d="m296 220 1 4h3l1-2a1158 1158 0 0 1-1 10c0 6-2 11-6 15h-2l-1 3-4-1 2-3 1-5h-2v2h-4v-5h2v-4c3 1 4 2 6 5 2-2 2-2 2-5v-2l-5-2v-2l6-2 1 1 1-2-6-1v-1h5v-3z"/><path fill="#68382D" d="m271 92 5 3v3h2l8 12 7 11 4 9 2-1v2h3l-1-3-2-5 3 1 6-1v3h-2l1 5-6 2 1 11-4-5-1 2h-2l1-6h-1l-1-4-7-13-7-12-5-5v-4h-3l-1-5z"/><path fill="#7A3524" d="m108 289 8 2 2 1 8 4 5 1v-2h-2v-2l-9-1v-3l2 1 6 1h6l1-2v6h7v2h4v5c-9 1-16 2-24-4l-12-5v-2h-2v-2z"/><path fill="#40322C" d="M230 66c9 2 18 6 23 14l2 1v2l-1 1 8 5c2 0 2 0 4 3 1 5 0 10-2 14l-4-1v-6l-1-4-1-5-2-1-6-6 1-1-3-2-18-13v-1z"/><path fill="#656464" d="m121 190 2 1v2h-2l1 2-1 8h-2l-2 1-1 3-2-1-4-1-7 5 2-5h-1l-4 5 2-7h2l2-5h4l1-3h3v-4c3-2 4-2 7-1z"/><path fill="#DEDEDE" d="M228 319c3 5 3 5 3 8l-5 4-11 2c-2-3-3-4-3-7v-3c6-2 10-4 16-4zM7 180h3a52 52 0 0 1 2 8v-5l1-3h5c2 7 3 13 3 20h-4v-13h-2v3l1 4v7l-4 1h-2l-2-7v-8l-1-7z"/><path fill="#243726" d="M100 100c1 3 1 5-1 9a363978 363978 0 0 1-7 15h-3v2h-4l2-8-6 3 5-11h2c3-1 5-3 7-6l3-2 2-2z"/><path fill="#E4E4E4" d="M203 9h6l3 1 8 2-1 4-12-2-1 7 11 2v5c-15-3-15-3-17-5 0-5 0-9 2-13l1-1z"/><path fill="#284129" d="m93 138 2 1v4h4v2l-2 1-1 5v4l10-9 4-2v3h-2l-2 4 2 1c-1 3-2 4-5 6l-7 1 2 2-4 2v-3l-3-1 1-3-3-1h2v-3l-1-3v-3l1-5h2v-3z"/><path fill="#3E3837" d="m256 180 9 4-3 4 3 3-7 5-2 1-6-1 3-3-11 2 3-3 3-4 3-1v-3l5-4z"/><path fill="#243726" d="m140 146 1 3h2l4-1c-1 5-1 5-3 7l2 1v-2l2 1 9 1h5v3l2 1-5 1c-4 0-6-1-10-3l-6-1v10h-2v-10l-4 1-1 2v-6l-3 10h-1c0-5 0-8 2-12l6-6z"/><path fill="#823525" d="M220 124c4 0 6 0 10 2 3 2 5 3 9 2l3-1 14-2v2l-6 1 8 1v1h-6l-4 1-5 1-9 1h-17v-3h-7v-1l16-1-6-3v-1z"/><path fill="#EDEDED" d="M93 237h6l5 1 1 3c-5 3-5 3-8 3l2 6 2 1c-12-1-12-1-17-3 1-6 2-11 9-11z"/><path fill="#E7E7E7" d="m322 232 2 1 8 3-2 6-5-2-2 7 3 1-1 5-7-2-2-2-2-1 3-7 1-2 4-7z"/><path fill="#522B1F" d="M121 58v2h-3l-1 2-7 6-3 3-13 11h-2l-1 3-3 1-4 5-4-1c3-4 4-6 9-8l3-5 3-3h2v-2h3l1-3c5-4 14-11 20-11z"/><path fill="#D3D3D3" d="M30 232c4 7 4 7 4 11h2v5l-7 4-4-2 1-4h2l-2-5h-5l-1-6c4-2 6-3 10-3z"/><path fill="#151712" d="M56 191v2l1 2v3l2 3v6l3-1v2h-2v2l-2 5 3 1c4 5 5 10 5 16l-2 1-4-9h-2a4512 4512 0 0 1-5-21v-4l-1-7 4-1z"/><path fill="#1B1817" d="m48 224 1 2h2l3 4 2 2 1 5-2-1a643709 643709 0 0 0 8 28c-7-6-11-16-13-25v-6l-2-5v-4z"/><path fill="#396934" d="M246 179v4h-5l-1-1c-7-2-14-2-21-1h-2c-6 1-11 4-16 8l-8 1c14-16 34-15 53-11z"/><path fill="#2D4C22" d="M70 162h8v2l-4 2 4 1v2l-2 1-3 4h7l1 3h-7l7 5-4 1-3-3-2 5-3-3h2l-1-3-3 3-3-1 3-3h-4v-2l7-1-3-1-2-5 6-1-4-5 3-1z"/><path fill="#B03C26" d="M55 124h5a3811 3811 0 0 1-4 24v4l-3 8-3-1 1-3h-2l2-5h-2v-2h2v-3c1-8 1-15 4-22z"/><path fill="#EDEDED" d="M45 66c4 1 6 2 8 5l2 2 2 1-4 10-2 2c-2 2-2 2-5 2h-2l-1-5 5-3 3-3-2-1c-3-1-5-4-7-6l3-4z"/><path fill="#953522" d="M267 137h1v3c0 8 1 13 5 20v3h2v3h-2l-2-2h-2l-1 14-2-2v-8l1-2v-5l-1 8-2-1-1-5-2-1c0-7 1-12 4-18h1l1-7z"/><path fill="#776961" d="m168 50 3 1h2l-1 3h-2l-2-1h-3l-4 1c0 4 0 4 2 6l1 1-5 2h-3l-6 1-4 4-3 4h-2l4-9 1-2 3-3h2v-2l3-1 5-4 9-1z"/><path fill="#111211" d="m150 192 3 3v2h2v-3h2l1 2 2 5c-6 6-6 6-10 6-4-2-5-5-7-9l-1-5 8-1z"/><path fill="#B33C25" d="m231 273 1 2-2-1 1-1zm-14 1 3 1h3l1 2 2-1 6 1-8 10h-3l1-4-7 6h-2v-2h-2c1-5 3-10 6-13z"/><path fill="#5A5652" d="M287 118c4 3 6 7 8 12l1 2v7l-4 6-2 2-1 2h-2v-3l-1-15h2c1-7 1-7-1-13z"/><path fill="#A93924" d="M272 223h2l1 3h2v3c5 0 5 0 9-3 3-2 4-2 7-2l4 1-1 3-1-2-6 2v2l5 2 1-2v7l-4 3-1-2-4-4-1 4v-3l-5 1v-4l-3-1v2l-4-3-1-7z"/><path fill="#D9D9D9" d="M155 184c3 2 4 5 6 8l-1 6h-3v-4h-2v3h-2l-1-2c-2-2-2-2-5-2l-5 1h-2l-3-2c13-9 13-9 18-8z"/><path fill="#0B0C0B" d="M240 184h3l-2 4h-2v2c-8 2-16 2-24 2l3-4h5v-2l-2-1h3v-2l5-1h3l8 2z"/><path fill="#8E3827" d="M194 150h3c8 2 16 2 24 0v2l-6 2 7 3v3l2 2h-7l-1 2-3-2 6-2v-2c-4-2-7-2-11-2h-3l-4 2-6 1-8 5-2 1-2-1c1-4 3-5 7-7l10-2v-2h-2l-3-1-1-2z"/><path fill="#9B4231" d="M206 138h7v2l5 1 1 3 4 1 5 1 2 1 6 3v7a251 251 0 0 1-8-1l-4-3-1-2-1-2-4-1h-4l3-3-2-1-2 2-1-1-6-4 3-1-3-2z"/><path fill="#302321" d="M267 155h1l-1 21 2-12h2c2 9 1 17-1 26h-1v-9l-8-3c-4-2-7-3-9-6l4-1h3l6 1 2-17z"/><path fill="#0A0A0A" d="M213 131h4v2l2-1h9v2h11v1h-3l-6 3-2 1h-2l-1 2h2v2l-8 1-2-3-4-1v-2h-8l-2-2 15 1 1-1h-2l-3-3-1-2z"/><path fill="#EDEDED" d="m52 272 5 3 1 8 4-2 2 4-6 7-5-3-1-5v-4l-1 2-4 1-2-5 7-6z"/><path fill="#293228" d="M169 85h14l-1 3 3 2-7 6c-5 0-5 0-8-3l-6-2h-3l-3-1 11-4v-1z"/><path fill="#201917" d="M197 42c5 0 9 0 14 2v2h6l1 3 5 2 5 1 1 2c-9 1-9 1-13-2l-3-3-8-1-8-1-7-1-4-2 7-1 2 1h2v-2z"/><path fill="#4C291F" d="m273 85 8 6h5c4 6 6 11 7 18h2l2 10-1-2-3-1v-2l-3-1-3-6-3-2v-3h3l-1-5-5-2-4-4-2-2-2-4z"/><path fill="#151515" d="M104 185c6 0 10 0 15 3l-2 3h-3v4l-3 1-1 2-5 1h-4v-2l3-12z"/><path fill="#090E09" d="M83 158h4l1 4 5-1c-1 4-1 6-4 9-3 2-6 3-10 3l-1-6h-5l6-5 4-4z"/><path fill="#8D3725" d="M179 50h8v2h15l3 7-2 1v-2l-13-1-1-4h-3v2h-6l-3 1-6 2h-6l-1-3 5-1 2-1h8v-3z"/><path fill="#F1F1F1" d="m86 302 9 4 3 1 2 1v3l-9-2 7 4-1 5c-6 0-11-3-16-7v-2l12 5v-2l-3-1-6-3 2-6z"/><path fill="#EBEAEA" d="m238 18 6 2-1 2v2l-1 3-1 5 7 3-1 4-10-4-3-1-2-1c3-11 3-11 6-15z"/><path fill="#BA3D26" d="M179 44c5 0 8 0 12 2v2h2l14 1 2 4h-11l-3-1h-6l-3-1h-2c-4 0-5-1-8-3v-2h3v-2z"/><path fill="#823B2B" d="M131 278c3 3 3 5 3 10v3h-12l7 2v2h2v2c-4 0-6-1-10-3l-8-2-5-3v-3l10 3-1-7 1 3h2v2l12 1v-6l-3-1h2v-3z"/><path fill="#F0F0F0" d="M168 326h15l2 2-2 6h-10v3h-5v-11z"/><path fill="#27241B" d="M51 181h1l1 7h2l-1-6 3 1v2l5-1-1 2v8a750956 750956 0 0 1 0 13h-2c-2-5-3-10-3-16l-4 1 1 2 4 23h-2v-2l-1-4v-3l-2-6-1-13v-8z"/><path fill="#B23D26" d="m276 95 9 10 3 3 3 5 2 2c4 3 7 8 9 13v3l-2-1h-2l-2 2v-2c0-4-1-4-3-7a348 348 0 0 1-9-14l-2-3-2-3-2-5h-2v-3z"/><path fill="#E4E3E3" d="m126 319 5 1h3l6 2v3h-7l6 2v2l-10-2v2l9 2v3l-14-3 2-12z"/><path fill="#D1D0D0" d="m107 239 5 2v2h-3v2h4l1-2 8 6-1 3-2-2-6-4v2l3 1 1 3h-3v-3h-3v-3l-7 4 1 2h-6l-2-8 3-2 2-2 5-1z"/><path fill="#6A463E" d="m231 69 8 4 2 1 3 2 2 2 6 4-3 1-2-1-9-1-3 1h-3l10-1v2l-16 3-4-6h8l1-1h9v-3l-5-2-1 2h-2l-1-7z"/><path fill="#729567" d="m163 70-1 2 3 1 2 2c4 2 7 1 11 1-3 2-5 3-9 3l-3-1h-10l-2 5-4-2v-7c4-4 7-6 13-4z"/><path fill="#3A4D38" d="m176 72-1 2 2-1c6-2 11-2 18-2v1l-16 3v2l9-1v2c-6 2-12 4-18 4l-4-2 9-3h-2c-3 0-3 0-5-2v-3h8z"/><path fill="#2E352C" d="M186 58v4h13l-1 2h-2v2h3v2l-8-2h-26c4-2 6-2 10-1v-2h-5l-1-2 17-3z"/><path fill="#E8E8E8" d="m105 198 2 1-3 4h-2v3l5-4-4 8h4v3l-3 2v-2l-4 3-1-3h-4v-4h-2c1-5 3-7 7-10l5-1z"/><path fill="#20291F" d="M186 130h2l-1 2-2 6-5 12-3 1-2-2 4-7h-6c0-3 0-3 2-5l2-2 2-1 2-2c2-2 2-2 5-2z"/><path fill="#A7A6A6" d="M170 239v3a563 563 0 0 1-7 3l-5 1v3c0 4-1 6-3 9l-3 2 2-5h-5l-2 4-2-6 5-3 4-4-3-3h2c7 0 11-4 17-4z"/><path fill="#3E483C" d="m197 166-3 1v2h-4v3h-2l-1 2 3-1 14-1-1 2-6 1c-5 0-9 0-13 4l-2 2v-3h-3v2h-3l-1 3-4 2-3-1c3-4 5-6 10-6v-2l3-1 4-1 1-3-2-1c3-6 8-5 13-4z"/><path fill="#212B20" d="M246 144v2l3 1v6l-4 2c-4 0-5-1-8-3l-3-1-4-4c5-2 10-3 16-3z"/><path fill="#365836" d="m231 106 7 2c2 3 1 6 1 9l-4 2-1-4-2 3-12-1v-2l9-4 2-5z"/><path fill="#060505" d="M216 83c5 0 9 3 13 6l-4 4c-5 0-8 0-13-2l-1-7 5-1z"/><path fill="#181916" d="m270 96 5 1c2 4 2 8 2 13 0 9 1 16 4 24h-2c-7-16-7-16-7-25l-2-7v-6z"/><path fill="#656565" d="M173 216h1a2360 2360 0 0 1 0 13v5l-1 6 2 1 5 4c0 4-1 6-3 9v9a258592 258592 0 0 0-2-8v-5h2l-1-7-4-1 1 4-3 2-2 5-1-8-4-1 7-2-1-2 1-4 2-2-2-1 3-17z"/><path fill="#364E34" d="m139 100 5 1v2l-3 1c-4 2-6 4-9 8h2v3h-2l-2 1h-3l-4 2 3-8v-7l3-1-1 5h2l1-2c1-3 1-3 4-4h2l1 1 1-2z"/><path fill="#4D4937" d="M194 111h4v2l2-1 7-1 1 4-3 4h10v1h-6l-3 1c-3 0-3 0-5 2h-3v-3l-1-3-5-2-1-2h3v-2z"/><path fill="#090909" d="m167 128 4 1 1 3h5c-5 6-15 7-22 8h-4v-2h2l2-4h4v-2l8 1v-2l-2-1h2v-2z"/><path fill="#505E4D" d="m111 76 2 1c-3 5-5 9-10 12h-2v2l-2 4 3 1-4 2-2-5 1-2-6 2v2l-6 4c2-4 4-6 8-8l2-1v-2l6-1-1-3 11-8z"/><path fill="#EAEAEA" d="M299 273c0 3-1 4-3 6l-1 1 1 4c3-1 5-3 7-6l3 1c-2 5-5 8-9 11-3 0-4 0-7-2l-1-7 3-4 2-2c2-2 2-2 5-2z"/><path fill="#7D3526" d="M278 193h1c0 7 0 14-3 20l-4 1v2l-4 10v2l-2 5h-2c1-7 3-13 6-19l4-14h3l1-7z"/><path fill="#332B29" d="M208 155c5 0 8 0 11 3v2c-5 2-7 2-12 0-6 0-11 2-16 4l-4 1-1 2 1-5c4-3 10-5 15-6 2-2 4-1 6-1z"/><path fill="#747F6F" d="m177 96 1 2-11 4-1 5h-12l-1-3 6-1-1-3h3v-2l16-2z"/><path fill="#0D0B0B" d="m244 80 4 4-3 4c-5 2-11 2-16 0l-2-2c3-2 6-2 10-3h5l-1-1h-5l-3 1h-2l1-2 12-1z"/><path fill="#0F0F0F" d="m168 244-1 11-6 1v2l-7 1 1-3c2-3 3-6 3-10l4-1 3-1h3z"/><path fill="#0F0F0D" d="M229 89c5 0 11 2 15 5l-4 5h5v1h-6l-1 2-1-2c-3-4-6-4-10-5h-2l-5-1v-1l3-1 6-3z"/><path fill="#2F4F2E" d="M130 85h6l-1 6c-3 3-5 4-9 5l-1-2-5-2c1-6 4-7 10-7z"/><path fill="#57332A" d="m99 84 2 1v2l-6 1v2c-4 3-4 3-7 3l-1 2-6 8-1 2-3 4-3-1h2l1-5h2v-3l-5 4 7-9h2v-2h3l1-3 4-2 2-1 2-1 2-1 2-1z"/><path fill="#535353" d="m114 231 6 1-1 7-4 2-2 4h-4v-2h3v-2h-2l-6-2-7-1h-6v-3c8-1 15 1 23 4l-1-2 1-6z"/><path fill="#141110" d="M170 119h7l5 1 9 1h6l-1 3c-5 2-11 3-16 2l-3-2-5-1h-4v-2h2v-2z"/><path fill="#636262" d="m85 254 4 3v2l3-1 11 2-3 1v4l-1 3-2 4v-6l-4 2c-8-7-8-7-8-11v-3z"/><path fill="#2A4720" d="M74 186h3l-1 3 3 1v2l-3 1v11l-7-1 1-10h-3v-2h3l-1-4 4 2 1-3z"/><path fill="#372119" d="M89 80v3h-2l-4 3-1 2-4 6-6 7-4 6-2 2-1 2h-2a52 52 0 0 1 8-16l7-6 1-2h2l1-2c2-3 4-4 7-5z"/><path fill="#484036" d="m251 77 5 2 3 2c2 1 3 2 4 5l2 1c3 1 3 2 4 5v11h-2v2h-2V95l-2-6h-4l-4-4h-2v-2h2v-2l-4-2v-2z"/><path fill="#36211B" d="M242 59c8 2 8 2 11 6l2 3 5 4 5 5 2 2 1 1-2 1-5-3-2-1-2-2v-3h-2l-9-4-2-5-2-4z"/><path fill="#893322" d="m274 169 5 7 1 2c2 21 2 21 0 31h-1l-1-9-2 2c-3-4-2-7-1-12h4v-9l-3-1c-2-4-2-7-2-11z"/><path fill="#050605" d="m123 119 6 3-1 5h-4l-1 3-4 1v2h-7c0-3 1-4 4-6l1-2 6-6z"/><path fill="#291F1B" d="m294 93 5 1v3h2c2 6 2 6 1 10l-3 3h-2l1 4 3 2-2 3h-2l-2-10h-2l-1-3 5-1-1-8h-2v-4z"/><path fill="#3A221A" d="m89 275 10 3v2l3 1-1 2h-2c2 3 2 3 5 4v2h4v2h2v2h3l4 1 1 2c-4 0-7 0-10-2v-2h-2l-3-1h-3l-5-3h4l-5-7-2-2v-2l-3-2z"/><path fill="#080B09" d="M137 126h12c-2 4-2 4-5 5l-3 1c-6 1-9 3-13 7l-1 6-4-1c2-7 7-12 13-16l1-2z"/><path fill="#3C2923" d="M170 43v1h-3l-3 1h-4l-5 3-6 2c-4 0-6 1-9 3l-5-1 1-3 5-2 3-1 3-1 3-1c14-4 14-4 20-1z"/><path fill="#603124" d="m68 238 5 5v3h2c3 4 5 8 6 13l1 3v2l-2-2-6-4v-3l-2-1-3-3 1-6-2-7z"/><path fill="#34221C" d="m308 199 4 2c-1 6-2 12-5 18h-2v3l-3 9-1 4-1 2h-1c0-5 0-10 2-15l2-1 1-5 3-9 1-4v-4z"/><path fill="#477443" d="m148 75 3 1v9c0 3 0 3-2 5l-2 1v-5l-6 3v-2l-6 4 1-2v-6h8l1-3 1-4 2-1z"/><path fill="#66291C" d="M272 238h2c2 3 1 6 2 10v7l1-8v-5l3 1-1 10 4-1c-5 6-5 6-9 7h-2v-21z"/><path fill="#263227" d="M97 90v7h-3c-5 1-7 3-10 7l-2 5c-1 3-4 3-7 5l-3 5v-6l2-2h3v-2c2-6 7-11 12-14h2v-2l6-3z"/><path fill="#181717" d="M226 66c4 2 4 2 5 5l1 5h2l1-4v2l5 2v3h-9l-1 2-9-2 3-2 2-4v-7z"/><path fill="#27211F" d="M133 275h1l2 11h2v8h2l9 2h3v2l8 1v1l-6 1v-2h-6v2l3 1v1h-11v-1h6v-5h-4v-2l-7 1c-2-7-2-14-2-21z"/><path fill="#121211" d="M197 90h2l-1 2h-3l-1 5h-2v2l3 1h-10l1-4h-5c4-7 8-8 16-6z"/><path fill="#466F42" d="m139 76 1 2 3 3h2l-1 3h-6l-4 1h-12l-2-1c3-3 5-4 9-5l4-2v3l4-1 2-3z"/><path fill="#24221E" d="M147 55h2l-2 5h-2l-1 3-7-1-1 3c-1 3-2 4-5 6l-5-3 2-2h3l1-3h2l1-4h4v-2h8v-2z"/><path fill="#131310" d="m61 127 2 2 3-1-3 8v10l-6 2a1181 1181 0 0 1 1-17h2l1-4z"/><path fill="#B03C26" d="m187 291 2 1v2l-3 1c-3 1-3 1-5 4l6-1-2 3h-2v2h-20v-1h2l3-1h3l5-2v-2c3-3 6-6 11-6z"/><path fill="#72463C" d="M186 277c5 4 5 4 5 8v2l1 1h6l3-1h2l-3 3h-3l-1 3-5 3-3 1-7 2 3-5h5l-4-4 2-2v-8l-1-3z"/><path fill="#6B3323" d="M71 102c0 4-1 6-3 9l-4 1v3l-1 3v3l-3 5v-2h-5l-1 6h-1c0-6 1-11 4-16l2 3 1-3c2-3 2-3 5-4l3-4 2-2 1-2z"/><path fill="#385937" d="M86 111a220 220 0 0 1-3 8l-5 3h-2l-2 5-1 2h-2c1-5 1-5 3-7v-4c0-4 0-4 2-6l10-1z"/><path fill="#52342B" d="m271 92 5 3v3h2l8 12 6 9 5 9-2 3-2-3a42505 42505 0 0 0-13-22l-5-5v-4h-3l-1-5z"/><path fill="#656565" d="M148 311h3v2h3l6 1h7l1-2v2h6v2l-14 1h-3l-2 3h-5l2-3-2 1-5-1v-2h2l1-4z"/><path fill="#763526" d="M142 295v2h4v5l-7 1h-2c-5 0-8-1-12-4v-1h2l15-3z"/><path fill="#070504" d="m244 260-1 2-1 8v5l-3 1-3 2v2c-1 3-2 3-4 4l-6 2c2-4 4-6 7-8l4-6v-10c4-4 4-4 7-2z"/><path fill="#656261" d="m202 76-4 3-3 2c-6 4-14 3-21 1v-1l14-3v-2h14z"/><path fill="#344233" d="m255 133 2 1c0 4-2 6-5 9l-2 2-4 1v-2l-3 1h-8l4-3 3-1h3l2-1v-2h3v-2l5-3z"/><path fill="#273A28" d="M140 132v4l9-1 1 2-4 4-1-2 1-2-1 1c-2 2-4 3-7 3l-2 1h-2v-3l-2 1h-2l-2-2a290 290 0 0 1 6-5l6-1z"/><path fill="#2D402D" d="M106 94h4v3h2l-2 4-2-2-4 12h-4v2h-2v-2l3-12h2l1-2 2-3z"/><path fill="#4D643E" d="m278 103 1 2 4 4c4 5 6 12 7 18l-2 4h-2l-1 3c-2-7-2-14-2-21h-2c-2-4-3-6-3-10z"/><path fill="#162018" d="M203 215h3l-1 9v7l-4 1-6-1-1-5h7v-7l2-4z"/><path fill="#733524" d="M264 80c5 1 7 4 10 7l4 4 2 2 4 3 2 1 1 5-4 1-2-3-3-3-2-2-10-12-2-3z"/><path fill="#E5E5E5" d="M7 180h3l2 9v6h1l1-9 2 1v11l-1 4h-5l-2-7v-8l-1-7z"/><path fill="#252424" d="M208 66c6 0 11 0 16 2v7h-4l-3-1-5-1 2-3h-2l-4-2v-2z"/><path fill="#181A17" d="m224 197 14 1c-1 3-4 3-7 4-5 2-8 2-13 1v-2l-7 1v-2c3-2 5-2 9-2l4 2v-3z"/><path fill="#030303" d="M181 157c-3 7-8 13-14 17h-3l1-3 1-3c2-5 9-11 15-11z"/><path fill="#436A40" d="m110 86 2 1-3 5-2 2-2 3-2 2-1 2h-2l-1 2-5 1h-2v-3l4-2v-2l5-1 1-5 3 1 1-2 1-3 3-1z"/><path fill="#050505" d="m199 143 8 1v2l-1 5-1 1-8-1-7 1v-3l5-3 4-3z"/><path fill="#E3E3E3" d="m225 321-6 3-1 5h7v2c-4 2-7 3-11 1-2-3-2-5-2-9 4-3 9-4 13-2z"/><path fill="#344830" d="m218 189-2 2 10 1v1l-11 1 10 2-1 4-15-6v2h-3v2h-4v-2l4-2-1-2 5-2 3-1h5z"/><path fill="#703323" d="M308 151h2c2 9 2 16 1 25v6c0 3 0 3-2 5v-3l-1-4c-2-10-1-19 0-29z"/><path fill="#963B25" d="M206 120h12v2h-2c-9 1-15 2-23 6l-8 2-5-4h3c8-1 16-6 23-6z"/><path fill="#19211A" d="M118 105v7c-3 4-8 8-13 9l6-8-3 3h-2l2-7h4l1-3 5-1z"/><path fill="#943825" d="M210 74c6 0 9 2 13 6l4 2h-3c5 5 10 7 17 8 3 1 5 2 7 5l-12-3-4-2h-3l-2-1c-3-1-5-3-6-6l-4-3v-2l-5-1v-2l-2-1z"/><path fill="#4E4340" d="m252 176 4 3-2 4-3 1 1 3-2 2-2-1v2l-1 2-6 2v-7l7-4c2-1 3-2 4-5v-2z"/><path fill="#283427" d="m86 133 5 1c-1 7-3 11-9 16l-3 3h3v3c-3-1-4-2-6-5l2-1 1-4-4-2 3-1 2-5h2l-1 9c3-3 5-5 5-9v-5z"/><path fill="#44853F" d="M198 137h4c3 0 5 1 8 3v1h-2l-13 2 4-2v-2c-7 1-10 3-15 7h-2c1-3 2-6 5-8l11-1z"/><path fill="#090808" d="M229 128v1h-7l-7-1h-8v-2h-7c4-9 23-1 29 2z"/><path fill="#923825" d="m236 277 1 2h2l-1 4 2-1h6c-3 4-6 6-11 7l-7-1 1-4 6-2 1-5z"/><path fill="#241B18" d="M312 125h3l1 11v2c0 4 0 7-2 10v-2h-2c-2-7-1-14 0-21z"/><path fill="#EFEFEF" d="M259 305c3 4 3 4 3 7l3-2 5-2 2 1c-3 4-7 6-11 8-3-1-4-1-5-4l-1-2v-5l4-1z"/><path fill="#50332D" d="M266 106h1l1 12 1-9h2c0 8-1 15-3 22l-3-4-1-9v-7l2-5z"/><path fill="#4F4441" d="m208 75 2 1h2l5 2v2h2l2 1 1 3-3-1h-9c-3 0-5-1-8-3 1-3 2-5 6-5z"/><path fill="#464444" d="m176 133 2 3c-6 6-12 11-19 15l-2-1 3-2 3-2 2-2 5-5-3 1-3 1h-3l-6 1v-2l2-1 19-6z"/><path fill="#A93E28" d="M207 91c6 0 12 1 17 3l11 2 1 3-4-1-1 2-3-2-6-1-5-1-17-3c2-2 3-2 7-2z"/><path fill="#717A6B" d="m194 167 13 1v2h5l-10 3-15 1 1-3 2 1v-3h4v-2z"/><path fill="#0E0D0D" d="M173 308h19v5l4 1h-17v-5h-6v-1z"/><path fill="#271A17" d="M229 155h3l4 2 1-2 1 5h-3l6 4c-4 1-4 1-7-1l-3-1-2-1-4-2-3-1v-3h7z"/><path fill="#262A25" d="M166 127c6 0 10 0 15 2l-4 4h-9l3-1-1-3-3-1v5l-8-1v2h-4l1-3h3v-2h7v-2z"/><path fill="#2F2B2A" d="M180 102c5 0 10 0 15 2l2 3h-8l2 1v2c-3 2-5 2-9 2l1-3-1-3h-2v-4z"/><path fill="#686767" d="M113 246c4 1 5 2 8 5l2-1 2 3c1 3 3 5 6 6v7l-3 1-1-2h2v-2h-2v-2h-3v-3l-6 1v-2l4-1v-2h-2c-3-1-5-3-7-6v-2z"/><path fill="#3B5934" d="m239 188 2 1v4c-5 3-7 3-13 2h-13l-1-2h2l14-2 9-1v-2z"/><path fill="#162017" d="M61 148h2v2h8v5l-3-1-2 4h4l-2 5h-5l-2-15z"/><path fill="#1A1716" d="m72 256 1 3h2l3 10h2l1-2 5 15c-4-1-5-4-8-7l-1-2c-4-6-5-10-5-17zm9 10h2l-1 2-1-2z"/><path fill="#9F3825" d="M241 249v3h-4v2l-6 8-3 4-1-12c3-3 5-3 8-4h3l3-1z"/><path fill="#A93D28" d="M73 100h2l-1 4v3l-3 4-1 4c-2 4-2 4-5 6h-2l1-9 4-1 1-3 4-8z"/><path fill="#893624" d="M250 251v8h-2v2l-3 8-1-2v4l-1 3c-2-3-2-6-2-10l2-6h4v-2l-2-1 5-4z"/><path fill="#120E0D" d="M230 66c9 2 18 6 23 14l2 1-1 2a86 86 0 0 1-19-12l-5-4v-1z"/><path fill="#F2F2F2" d="M333 190h1v6l8-2v7c-2 2-5 1-7 1l-4-2c0-4 0-6 2-10z"/><path fill="#3D563C" d="M151 100h7l1 3-6 1 1 2 6 1-2 4-4 1-1-3-7-1v-3l4-1 1-4z"/><path fill="#789270" d="m153 87 3 4-3 1c-3 1-3 1-4 4l-1 3-2 2-7-1 2-1 1-2c2-5 6-7 11-10z"/><path fill="#3A3525" d="M57 161v6l2 6v4h-3v3h-2l-1-4 2-1-1-3h-2l-1 4 1-9-3-1h3l-1-3 5-1 1-1z"/><path fill="#3C7939" d="M160 122v3l8 1-2 1v2h-7v2l-6 1 2-5-4 1v2l-2-1c3-4 6-7 11-7z"/><path fill="#9C9898" d="m202 76 2 1-1 3 5 3h-5l-3-1h-4v2l-3 2 3 3h-7l-5-2 6-1-3-3 4-1 8-4 3-2z"/><path fill="#F1F1F1" d="m319 241 1 2-1 2 4-2v4l3 1-1 5-7-2-2-2-2-1c1-4 2-5 5-7z"/><path fill="#A33A25" d="m51 216 4 2 3 5 1 1 5 7-1 4c-4-1-5-3-7-7l-2-3c-2-3-3-5-3-9z"/><path fill="#454F43" d="M145 60v5l-3 5-1-2-5 1-1 3-6 1 4-5h2l1-3 1-3 4-1v2l3-1 1-2z"/><path fill="#3B2721" d="m206 45 11 1 1 3 5 2 5 1 1 2c-9 1-9 1-13-2l-3-3-11-1 4-1v-2z"/><path fill="#323232" d="m83 246 1 2 7 2h12l1-3 7-1-3 8-20-3h-5v-5z"/><path fill="#0D0D0C" d="M209 161c0 5 0 5-3 6-4 1-8 1-11-1l-2-1v-2l5-1 3-1h8z"/><path fill="#264228" d="M120 152h2c0 3-1 5-3 7l-2 1-3 2-7 1-4 2c0-4 0-4 2-6l9-2 4-3h2v-2z"/><path fill="#090C09" d="M145 106v2l-7 2 3 1v2l-2 1-2 1-2 1-4 4h-2v-5h5v-3h-2l2-4c4-2 7-3 11-2z"/><path fill="#575C53" d="m168 52 2 1h2v1l-8 1c2 3 2 3 5 4h2l-1 3 5 1v2l-8-1v-2l-6-2 1-5-2-1c3-2 4-2 8-2z"/><path fill="#3E673C" d="M149 117v2h-2l1 3 3 1v2h-13v-2h-2l2-4h2l9-2z"/><path fill="#9D9F99" d="m157 56-1 4-4 3-7 7-2 2h-2l2-5 1-2c1-3 2-5 5-7l8-2z"/><path fill="#0A0C0A" d="M207 115h7l5 2 4 1h4l-2 2h-4l2 3-6-2-7-2h-5l2-4z"/><path fill="#DEDEDE" d="m86 302 9 4 3 1 2 1v3l-8-2-2-1-3 2-3-2 2-6z"/><path fill="#9F3A26" d="M300 132h6l1 12-1 3v5h-2l-2-16h-2v-4z"/><path fill="#878684" d="M175 115h2c3 0 3 0 7 4l-22 1 2-1v-2c4-2 7-2 11-2z"/><path fill="#EEE" d="m31 240 3 1v2h2v5l-7 4-4-2 1-4h3v-2h3l-1-4z"/><path fill="#0C0B0C" d="M272 123h1v3l2 4 4 7 1 2 1 2-3 1-1-2c-2-4-4-4-8-6l3-11z"/><path fill="#80827C" d="M157 82h22l1 3-10 1v1h-4l-2-1-5-2-3 2 1-4z"/><path fill="#414040" d="m164 218 3 1-3 3 3 1v2h-3c-4 0-6 1-9 3l-3 2-1 6h-1v-6l-3-1h2l2-1 1-2-7-1 6-2v2c4 0 6-1 10-3l2-3 1-1z"/><path fill="#61715C" d="m120 85 1 4-4 4-2 4h-4v-7c2-5 4-5 9-5z"/><path fill="#A29D9C" d="M131 278c3 3 3 5 3 10v3h-9l-6-2v-3h-2l1-4v3h2v2l12 1v-6l-3-1h2v-3z"/><path fill="#221D1C" d="M84 251h1v4c1 6 4 9 9 13l-1 3h-2v-2h-2c-3-1-5-4-7-7l-1-2-1-2 3-1 1-6z"/><path fill="#6F3122" d="m296 220 1 4h2l-1 7v4l-3 5-1-8-5-2v-2l6-2 1 1 1-2-6-1v-1h5v-3z"/><path fill="#271B17" d="m41 153 3 1h-2l1 10 1 3v3l1 3 1 4v13c-6-11-5-24-5-37z"/><path fill="#A23B26" d="M179 44c5 0 8 0 12 2v1l-5 1 5 2v2c-11-1-11-1-15-4v-2h3v-2z"/><path fill="#813624" d="M306 197h1c1 7-2 12-4 18h-2l-2 9h-2c0-7 1-12 3-18h1l1 5 4-14z"/><path fill="#7A3122" d="M256 125v2l-6 1 8 1v1h-6l-4 1-6 1h-5l1-3c6-4 12-4 18-4z"/><path fill="#903A26" d="M253 72h4v3l2 1 8 6 1 2 8 11c-3 0-4-1-6-3l-2-3-5-4h2a975 975 0 0 0-5-6l-4-3v-2l-3-1v-1z"/><path fill="#943523" d="m178 296-2 1v2c-5 4-11 3-17 3l1-4h4l3-1 11-1z"/><path fill="#723222" d="M280 254h2l-1 3h-2l-1 3h-2v2h-2v2l-3 3-2 1-2 1v-9l4-1 1 1 2-2 4-2 2-2z"/><path fill="#878787" d="m104 242 5 1v2h4l1-2 8 6-1 3-2-2-6-4v2l3 1 1 3h-3v-3h-3v-3l-8 4 1-8z"/><path fill="#B33C26" d="M266 132h2l-1 18-2-2-2 3-1-16 4-1v-2z"/><path fill="#151914" d="M213 131h4v2l2-1h9v1h-6v2l2 1-4 2-2 1-5 1v-2h-8l-2-2 15 1 1-1h-2l-3-3-1-2z"/><path fill="#434B41" d="M272 110h1v2l1 3v3l2 6-2 6-2-5-2 7-2-1v-3l3-14 1-4z"/><path fill="#1A1F1B" d="M215 216h3l1 9h-9l-1-2-2 1 1-4 6 1 1-5z"/><path fill="#2B1F1C" d="M258 130c6 7 5 13 5 22l-2 8h-1v-19h-2v-4l-2-4h2v-3z"/><path fill="#475445" d="M169 85h14l-1 3 3 2-1 2-3-1-4 1-2 1-2 1v-2l4-2-9-1 1-4z"/><path fill="#512218" d="M269 164h2c2 9 1 17-1 26h-1v-9l-2-1 1-1v-5l1-10z"/><path fill="#141513" d="m183 150 1 5h2l-1 6-8 5-2-1 6-8-6 2 2-2c2-2 2-2 2-5l4-2z"/><path fill="#2E4E2F" d="m93 138 2 1v4h4v2l-2 2c-3 3-3 5-4 9l-4-1h2v-3l-1-3v-3l1-5h2v-3z"/><path fill="#454242" d="m219 96 1 2c-18 7-18 7-25 5l3-1-11-1v-1h3l29-4z"/><path fill="#262521" d="m179 50 1 2h6v3h-6l-3 1-6 2h-6l-1-3 5-1 2-1h8v-3z"/><path fill="#752F21" d="m233 265 1 4c-2 4-4 7-8 9l-2-1h-6l1-2-2-2 11-1 1-4 2 2 2-5z"/><path fill="#66564E" d="m194 150 7 2 1 5h-2l-13 7-2 1-2-1c1-4 3-5 7-7l10-2v-2h-2l-3-1-1-2z"/><path fill="#223624" d="m144 101 1 3 5-1 1 2h-5v3h5c-1 3-3 5-6 7v-6l-2-1h2l-1-2-8 1 4-4h4v-2z"/><path fill="#455D42" d="m131 66-2 1c-3 1-5 3-7 6v2l4 1c-4 2-6 2-10 2v-2h-3v-2l5-1 2-2 2-3h3v-2h6z"/><path fill="#67534F" d="m220 61 5 1c2 3 2 6 2 9v5l-3 1v-9h-7l1-4h3l-1-3z"/><path fill="#B63C26" d="M262 111h3v10c-1 6-1 6-3 8-3-6-3-9-2-15l2-3z"/><path fill="#933825" d="M288 241h2c0 4-1 6-3 9-2 2-5 3-8 3v-11h2l1 5h3l1-3-2-1h4v-2z"/><path fill="#AD3C26" d="M220 158c8 1 8 1 12 4l6 2-1 3c-7 0-11-3-16-7l-1-2z"/><path fill="#1C291D" d="m91 134 1 3h3l-2 4h-2v4l-1 6-5 1 3-6-2-1 2-4 1-3 2-4z"/><path fill="#030302" d="M56 191c2 7 2 13 2 20-2-2-2-2-2-5v-2h-2l-2-12 4-1z"/><path fill="#3D251D" d="M310 157c3 3 3 6 3 11v4c0 17 0 17-2 21l-2-1v-3a3842 3842 0 0 0 1-15l1-4v-4l-1-9z"/><path fill="#878382" d="M293 129c3 1 3 2 4 5 0 5-2 7-5 11l-2 2-1 2h-2l3-6 1-5 2-9z"/><path fill="#953623" d="M232 98h5l1 3 4 4 1 3 2 2h3l3 4-4 1-3-3-2-1-1-4-7-3v-4h-2v-2z"/><path fill="#0A0A0A" d="m270 96 5 1 1 9v5l-4-3-2-12z"/><path fill="#19100E" d="m211 94 8 1v2c-6 2-12 2-19 2 3-4 5-6 11-5z"/><path fill="#A8A6A5" d="M184 65a761 761 0 0 1 16 4v4h-5l-1-2-6-1-3-1h-2l1-4z"/><path fill="#191919" d="m109 24 2 6-4 4h-3l-2-6c2-3 4-4 7-4z"/><path fill="#171717" d="M146 13v7l-8 1-1-7 9-1z"/><path fill="#7B3625" d="M286 234c3 1 4 2 6 5l3-2-2 6h-2l-1 2v-4h-2v2h-4v-5h2v-4z"/><path fill="#181818" d="M116 192h3c1 4 1 6-1 10l-2 2-4-1v-2h-2v-2h2l1-3 1 3h2v-7z"/><path fill="#893D2E" d="M284 133c4 4 4 6 4 11l-1 5 2 1-4 1-1 4v-22z"/><path fill="#5C6458" d="m124 95 1 2h2l-1 7h-10l-2-4h3l5-1 2-4z"/><path fill="#1B1D1B" d="M262 89h2c3 4 2 7 2 12l-2 5h-3l1-17z"/><path fill="#3A4538" d="m166 77 3 2-2 1 3 2-2 2-7-1-3-1-3-1 1-3c3-2 7-1 10-1z"/><path fill="#8F533F" d="M211 166v3l7-1v-2l14 1-10 3-8 1-7-1v-2l-3-1 7-1z"/><path fill="#374437" d="M245 137v2l-14 4 1-2 1-5c5-1 8-1 12 1z"/><path fill="#353" d="M199 125v2h2v4h-2l-2 1-1 2-2-1 1-2-5-1v2l-3 1 2-5c3-2 6-3 10-3z"/><path fill="#4A2A21" d="M302 104h2l3 17-2 1-2-1v-4l-2-2-2-5 3-6z"/><path fill="#070907" d="M102 122h4v16l-4 1v-2l1-3v-3l-2-5 1-4z"/><path fill="#080504" d="m250 87 7 4-1 7-9-6 3-5z"/><path fill="#652A1D" d="M265 258c2 3 3 4 2 8l-5 7h-2v2l-3 3-3-1h2l1-2c1-2 2-3 5-4v-2l1-10 2-1z"/><path fill="#585858" d="m114 231 6 1-1 7-4 2-2 4h-4v-2h3v-4h2l-1-2 1-6z"/><path fill="#1B2C1D" d="m57 186 2 1 1 5 1 2v13h-2l-3-12-1-3 2-6z"/><path fill="#040404" d="M96 125h2l-2 6 2 1-2 4h-4v-2h-2l-5-2v-2l8 1v-2h2l1-4z"/><path fill="#423430" d="m80 98-1 5h-2v8h-3l-1 2-2 5h-2c1-7 1-7 3-9l1-2c1-4 4-6 7-9z"/><path fill="#364E35" d="m113 76 3 1c-3 4-5 8-9 11l-2 4h-2l-1 3h-3l2-6 4-1 2-4 4-3 2-5z"/><path fill="#3A2824" d="m213 295 1 2h-3l-1 2h-3l1 3h-9v1h-11v-1c5-2 9-2 15-2v-3l10-2z"/><path fill="#565656" d="M117 208h9l12 1v1h-14l-1 3-7-1 1-4z"/><path fill="#4A3C38" d="M206 138h7v2l5 1 1 3 4 1h-5l-3-1-2 2-1-1-6-4 3-1-3-2z"/><path fill="#20251E" d="M239 134h5v2l5-1c-1 3-1 5-4 6-7 2-12 4-19 4 3-3 4-3 8-4h3l8-2v-2h-5l-1-3z"/><path fill="#070707" d="m160 107 4 1c0 4 0 6-2 9l-2 1-1-3-4-1c1-3 2-5 5-7z"/><path fill="#4F2D23" d="m242 59 4 1 3 1 3 2v7l-5-1-3-5-1-3-1-2z"/><path fill="#1C1918" d="m260 273 4 2h-2l-1 3h-2v2l-5 3-3 1-5 1v-2c4-3 6-4 11-5l1-3h2v-2z"/><path fill="#CACACA" d="m153 248-2 6 4-1 2-5h1c0 7 0 7-4 11l-2 1 2-5h-5l-2 4-2-6 5-3 3-2z"/><path fill="#2C4B21" d="M62 196h3v3c1 3 1 3 4 5l11 2-3 3c-4 0-6-1-9-3l-6-1v-2h2l-2-7z"/><path fill="#2D2925" d="M204 161v1l-11 1 1 3h-2c-4 1-4 2-6 5v2l-1 2-3 1v-7c2-3 3-4 7-5l3-2c4-2 7-2 12-1z"/><path fill="#161711" d="M59 150h1v11l-4 2-2 2v-4l-2-1 3-8h3l1-2z"/><path fill="#2B4B2C" d="M110 144v3h-2l-2 4 2 1-1 3-8 1c1-4 2-6 5-8l2-2 4-2z"/><path fill="#101010" d="M184 76h4v2c-6 2-12 4-18 4l-4-2c4-2 7-2 12-2h6v-2z"/><path fill="#918E8E" d="M205 60h2l1 2 5 1c5 1 5 1 7 3h-6l-3 1-5 1v-3h-5v-2h4v-3z"/><path fill="#838181" d="m85 254 4 3v2l7-1 1 5-3 3-4-4-3-2c-2-2-2-2-2-6z"/><path fill="#111010" d="M206 157c-2 3-5 4-8 5-4 0-8 1-11 3l-1 2 1-5c6-4 12-5 19-5z"/><path fill="#282E27" d="M140 146c0 5-1 9-3 14h-1v-6l-3 10h-1c0-5 0-8 2-12l6-6z"/><path fill="#A03B26" d="M51 143h1v6h3l-1 10-4 1 1-4h-2l2-5h-2v-2h2v-6z"/><path fill="#B6422C" d="M274 125c3 2 4 3 5 7l1 3 1 4h2v-6h1v22h-1v-14l-4-2-3-5-1-3-1-6z"/><path fill="#060806" d="M183 137c0 5 0 9-3 13l-3 1-2-2 4-7h-2c1-3 2-5 6-5z"/><path fill="#0A0909" d="m311 121 3 1v3h-2l-1 22h-2v-22l2-4z"/><path fill="#687763" d="M231 110h2v7l-9 1-2-1h-2v-2l11-3v-2z"/><path fill="#0C0C0C" d="M199 83c3 1 5 2 7 5l-1 2-5-1h-3l-5-3c2-2 4-3 7-3z"/><path fill="#1D1E1C" d="m220 187-3 1-3 2-4 1-5 4h-9c6-6 16-10 24-8z"/><path fill="#040404" d="M214 101v2c-3 2-4 2-7 2l-2 1h-3a240758 240758 0 0 0-8 0l3-3 17-2z"/><path fill="#803625" d="m238 62 9 3v3l2 1 4 3-4 1-5-4-1 3-7-3h6l1-3-2-1-2 2-1-5z"/><path fill="#797878" d="m131 270-1 4v-3h-10l-2 5h-2l-1 2v-6l-2-1c6-4 11-3 18-1z"/><path fill="#B9B9B9" d="M136 217h1v8l-3-1-1 4h-10l1-4 12-1v-6z"/><path fill="#364D30" d="m210 182-7 6-3 1-7 1c5-5 10-11 17-8z"/><path fill="#030604" d="m109 143-3 4-2 2-5 5-2-1 2-2 1-7c4-2 5-2 9-1z"/><path fill="#848080" d="M171 124c5 1 9 2 13 5l-5 6h-2l2-5-8-3v-3z"/><path fill="#352623" d="m229 89 5 1h3l2 1c-3 3-5 3-9 3l2 2-12-2v-1l3-1 6-3z"/><path fill="#433734" d="M207 59h8l5 1 1 4-13-1-1-4z"/><path fill="#2E1D18" d="m271 211 2 1-7 21h-2c1-8 4-15 7-22z"/><path fill="#030303" d="m85 133-1 6h3l-4 8h-2v-13l4-1z"/><path fill="#040504" d="M87 118c0 4-1 5-4 8-3 2-4 3-8 2 8-10 8-10 12-10z"/><path fill="#1D281E" d="m154 113 6 2 1 4h-3v2h-3v2l-6-1 3-4 6-1v-2h-4v-2z"/><path fill="#8A9185" d="M167 62v2h-3v2l-11 1v-3c5-3 8-3 14-2z"/><path fill="#DBDBDB" d="M127 261v2h2l-1 5-12 1 2-1 2-2v-4l7-1z"/><path fill="#863424" d="M265 236h1c1 8-1 14-4 21l-2-1 2-14h2l1-6z"/><path fill="#151515" d="M335 187h6l-1 9h-5v-9z"/><path fill="#191411" d="M279 111h1v8h2v-5l2 4v2l1 13c-2-2-2-2-2-5v-2h-2c-3-5-2-10-2-15z"/><path fill="#693A2F" d="M192 106h10l-2 2 7 1v1h-10c-3 0-5 1-8 3l-2-2 4-1v-2l-3-1 4-1z"/><path fill="#100B08" d="M234 104v2h-3l-2 5h-2l-15 1c2-2 3-3 5-3h2c6-1 10-5 15-5z"/><path fill="#6E2E21" d="m256 238 1 3 4-3-6 9-8 1 9-10z"/><path fill="#4C4239" d="m238 197 9 1c-6 5-12 5-19 5l6-3 3-1 1-2z"/><path fill="#191615" d="M321 180h1l-4 14-4-2 7-12z"/><path fill="#050505" d="M200 153v2l-2 1h-3l-3 1-5 2c0-5 0-5 3-6h10z"/><path fill="#395C38" d="m115 77 8 1-1 1-2 4 6 1-2 4-4-1v-2h-5l2-5-3-1 1-2z"/><path fill="#495B47" d="m151 62 3 1-2 3-4 5c-2 3-5 4-8 5v-5h2c3-1 4-3 6-5l2-2 1-2z"/><path fill="#432820" d="m89 275 10 3v2l3 1-3 3-5-2-2-5-3-2z"/><path fill="#3C241E" d="m68 238 5 5v3h2l3 4 1 2 1 2-2 2-1-2-1-1-2-2-1-2h-2l-3-11z"/><path fill="#66291D" d="m263 224 2 2-1 7h2l-2 12h-1v-3l-2-6 2-12z"/><path fill="#783526" d="m264 189 1 3c-8 5-8 5-13 5l-2-1 2-1 1-3h7v-2l4-1z"/><path fill="#1E120F" d="M217 162c7 0 10 1 16 4v1c-6 0-11 0-16-3v-2z"/><path fill="#77986D" d="m165 67 1 2 3-1h8l3 3 4 1-4 2h-8l3-2v-2l-9 1-1-4z"/><path fill="#96918F" d="M199 57v2h-4v4l-9-1v-3c5-2 8-2 13-2z"/><path fill="#0C0B0A" d="m245 145-3 3h-3v2c-7-1-7-1-9-3 5-2 10-2 15-2z"/><path fill="#030403" d="m111 144 7 3v3l-9 2v-5h2v-3z"/><path fill="#1C1B1B" d="M179 110h2l-3 1v2l11 1v2h-11a465231 465231 0 0 0-6-1c3-5 3-5 7-5z"/><path fill="#687E62" d="M205 111h2l1 4-4 2h-6c3-6 3-6 7-6z"/><path fill="#161616" d="m171 241 6 2 1 5-4 8v-3l-1-3v-3l-2-6z"/><path fill="#767676" d="M137 225a1029 1029 0 0 1 15 1l-1 3h-4v5c-2-2-2-2-2-5v-2h-8v-2z"/><path fill="#C5C5C4" d="M106 202c0 4-1 5-3 8h4v3l-3 2v-2l-4 3-1-8h2l5-6z"/><path fill="#272727" d="m124 210 13 1-1 4h-2l-11-2 1-3z"/><path fill="#363B33" d="M233 181c-3 2-5 2-9 2l-1 5-7-1-6 1c6-6 15-7 23-7z"/><path fill="#1A1F19" d="m197 143 2 1-6 5h-3l1 2 4 1-7 2-1-5 4-3 2-2 4-1z"/><path fill="#493D3A" d="M222 79c7 1 7 1 9 3h6l3-1h2v2l-16 3-4-7z"/><path fill="#273627" d="m131 75-3 6-5 1-2 1h-2c1-4 3-5 6-7l6-1z"/><path fill="#2B1C17" d="m107 65 2 1-1 2h-3l-1 2c-1 3-3 4-6 6l-3 2-5 1 5-5h2v-2h3l1-3 6-4z"/><path fill="#462A22" d="M152 296v2l8 1v1l-6 1v-2h-6v2l3 1v1h-11v-1h6v-5l6-1z"/><path fill="#D6D5D5" d="m85 250 8 1-3 1 4 6-3 2c-4-3-6-5-6-10z"/><path fill="#9D3925" d="m63 235 5 2c2 3 3 6 3 10l-1 2c-4-3-5-6-7-11v-3z"/><path fill="#474646" d="M158 198c4 0 5 0 8 2l2 4h-10v-6z"/><path fill="#141414" d="M180 166h4l-2 9-4 1v2h-2l4-11v-1z"/><path fill="#131914" d="m82 103-1 8-6 3-3 5v-6l2-2h3v-2c1-3 2-6 5-6z"/><path fill="#3E6A3C" d="m139 100 5 1v2c-8 4-8 4-11 4l-2-1 1-4 5-1 1 1 1-2z"/><path fill="#384437" d="m123 95-1 5h-8v2h-2c2-6 5-7 11-7z"/><path fill="#090A09" d="m134 85 3 1c-1 3-1 5-4 6l-6 4c0-4 2-6 5-9h2v-2z"/><path fill="#686565" d="M199 73v1l-7 2h-2l-11 1v-2c7-2 13-3 20-2z"/><path fill="#423A2D" d="m134 63-9 3v2h-3l-1 2-5 5v-3h2l1-2c1-4 3-5 7-7h8z"/><path fill="#773423" d="M188 302c-3 2-4 2-7 2h-13v2h-8c2-3 2-3 4-3l3-1h21z"/><path fill="#172518" d="M108 147h1v5l2 1-1 2 7-1-3 4h-6l1-3-2-1 1-2-3-1 3-4z"/><path fill="#382D29" d="m68 118-1 5-2 1-1 2 2 1-2 1-3-1-1 4h-2l1-5h2v-2c1-3 1-3 4-5l3-1z"/><path fill="#181515" d="M269 109h2c0 8-1 15-3 22l-2-1v-2l3-19z"/><path fill="#140B09" d="m248 116 6 8-8 1v-8l2-1z"/><path fill="#181110" d="M219 99h2l-1 3h-3l-1 2 2 2h-20v-1h6l4-1 6-1v-2l-2-1h3l4-1z"/><path fill="#151F16" d="M140 150h2l1 17h-2v-10l-3 1 2-8z"/><path fill="#171616" d="M259 134v7c-1 3-3 4-6 5l-4-2 2-2 2-2 3-2 3-4z"/><path fill="#1E221D" d="m150 135-1 4-4 2 1-4-1 2c-3 2-6 1-10 1l2-1v-2c5-2 8-2 13-2z"/><path fill="#5E3226" d="M223 128h7l1 2-5 1v1l-9 1v-3h-7v-1l13-1z"/><path fill="#1B1715" d="m199 109 2 1h2l-2 3h-3v-2h-4v2l-2 1 2 1v2l-6 1 2-3v-2c2-4 5-4 9-4z"/><path fill="#9D9E9A" d="m177 96 1 2c-6 3-10 3-16 3v-2l3-1 12-2z"/><path fill="#343232" d="M200 78c-7 5-12 6-20 5l7-3 8-2h5z"/><path fill="#6F8666" d="M153 72c2 3 3 5 3 8l-2 3-4-2v-7l3-2z"/><path fill="#4B332D" d="m179 48 1 2-1 3-6 1v-3h-5v-2l11-1z"/><path fill="#140B09" d="m236 274 4 2-2 1-2 1v2c-1 3-2 3-4 4l-6 2c1-3 3-5 6-7l4-5z"/><path fill="#6B6B6B" d="M138 245h3l4 8h-2l-3-4-3 6h-2v2l-4 1 1-2h2v-2l3-7 1-2z"/><path fill="#522319" d="M270 193h2c1 14 1 14-3 20h-1l2-20z"/><path fill="#40833C" d="M234 192v2l-13 1h-6l-1-2 20-1z"/><path fill="#743525" d="m47 153 3 1-1 2h2v2l3 4-4 1h-3v6h-1v-8l3 1-2-3v-6z"/><path fill="#060606" d="m123 137-2 6h-5l-3-3c4-2 6-3 10-3z"/><path fill="#1F2B20" d="M137 126h12l-2 4-7 1v-4l-3-1z"/><path fill="#2F4930" d="m115 119 1 4-2 1-4 3v2h2l-1 3h-2l-2-4 4-8 4-1z"/><path fill="#29412A" d="M137 109h8v6l-7 1v-3h3v-2l-4-1v-1z"/><path fill="#111210" d="M155 98h4l1 2h-7l-4 4h-4l1-4c3-2 5-2 9-2z"/><path fill="#779973" d="m266 91 3 1v11h-2v2h-2l1-14z"/><path fill="#545650" d="m151 81 3 1 4-1-1 2v8l-2-1-4-2v-7z"/><path fill="#373130" d="m206 75 4 3 3 1v2h-10v-4l3-2z"/><path fill="#543B35" d="M209 70h5l-2 3 12 2v3l-4 1-1-1c-3-3-6-3-10-4v-4z"/><path fill="#0F0F0F" d="m199 63-3 1v2h3v2l-8-2-10-2v-1l7-1h4l7 1z"/><path fill="#673021" d="M223 53c5 0 10 2 15 4-5 1-10 1-15-1l-2-1 2-2z"/><path fill="#963826" d="m187 291 2 1v2l-3 1c-3 1-3 1-5 4l2 1-5 2 1-2v-5c4-4 4-4 8-4z"/><path fill="#130E0D" d="M229 155h3l4 2 1-2 1 5-3-1-13-2v-2h7z"/><path fill="#3A4E37" d="m173 151 4 2-2 1v2l-5 5-4-1 7-9z"/><path fill="#332D2C" d="m220 149 5 2-1 4h-2v2l-7-2-1-2 7-1-1-3z"/><path fill="#563830" d="m85 94 3 1-11 14-3-1h2l1-5h2l1-3 2-1 1-3h2v-2z"/><path fill="#203021" d="m141 68-2 8-4 1-1 2v-3l-2-1 2-1 3-5 4-1z"/><path fill="#8A3322" d="m212 281-1 6h2l-4 5h-5l5-3-1-3-2-1 6-4z"/><path fill="#612519" d="m228 253 2 4 5-2-5 7-2 4-1-12 1-1z"/><path fill="#6C3325" d="m48 166 4 1-1 24h-1l-1-19-1-6z"/><path fill="#4D3D39" d="m226 150 4 1 3 1 2 1 1 4-11-2 1-5z"/><path fill="#283E2A" d="M208 132h6l1 3 5 1-2 2-6-1v-2h-4v-3z"/><path fill="#23271F" d="m199 125 8 1v2l11-1-2 2 1 2-9 1v-3h-2v-2h-7v-2z"/><path fill="#54884E" d="M164 123h10c3 0 3 0 6 3l-9-2v3l-8-1 1-3z"/><path fill="#3D2A24" d="m125 298 7 1v2l2-1 5-1 1 3c-8 2-8 2-11 0l-4-3v-1z"/><path fill="#110B0A" d="m258 259 1 2-2 2-5 6-1 2h-2c0-5 2-7 6-10l3-2z"/><path fill="#141210" d="m58 219 4 3 1 2 1 3 2 5-2 1-4-9h-2v-5z"/><path fill="#474747" d="m122 191 1 2h-2l1 2-1 8h-2l-2 1-1 3-2-3 2-1c3-3 3-7 3-11l3-1z"/><path fill="#926757" d="m253 193-1 3h-2v2h-10l3-3 2-1h3l5-1z"/><path fill="#C3C3C3" d="M149 184h6c2 3 2 3 2 7l-4 1-2-6h-2v-2z"/><path fill="#4A2F29" d="m236 178 10 1v4h-5l-1-1-7-1 3-1v-2z"/><path fill="#843222" d="M265 144h1v6l-1 4-2 9-2-1c0-7 1-12 4-18z"/><path fill="#495146" d="m171 127 10 2-4 4h-9l3-2v-4z"/><path fill="#773727" d="M288 115c3 4 7 8 9 13l-2 3-3-6-2-3c-2-3-2-3-2-7z"/><path fill="#0F0F0E" d="M125 104h2l-1 8-5 1-1-3 5-6z"/><path fill="#A5A2A2" d="m183 100 17 1c-3 3-5 3-8 3-4 0-4 0-9-4z"/><path fill="#3D413B" d="M148 81h3v7l-4 3v-5l-5 2v-2l5-3 1-2z"/><path fill="#2F2B2A" d="m226 66 4 2c1 4 0 5-1 9l-3-1V66z"/><path fill="#487C44" d="M176 70c-2 2-2 2-5 2h-3l-1 3-9-2 1-2 5-1h12z"/><path fill="#151414" d="M208 67h8v2h2l1 4h-7l2-3h-2l-4-3z"/><path fill="#191919" d="M222 323h2l1 5-7 1v-5l4-1z"/><path fill="#E0E0E0" d="m81 309 12 5-1 3c-4-1-8-3-11-6v-2z"/><path fill="#251A17" d="M183 306v2h-24v-1l24-1z"/><path fill="#E4E4E4" d="m115 252 7 2v2l2 1h-6l-1 2-3-2 1-5z"/><path fill="#512D22" d="m294 240 2 1-1 5-3 1-1 3-4-1 4-6h2l1-3z"/><path fill="#753225" d="M272 223h2l1 3h2v3l5 1v1h-5v2l-4-3-1-7z"/><path fill="#0E100E" d="M206 216h1l1 7 2-1v3h8v1h-8l-4-1v5h-1c-1-5-1-9 1-14z"/><path fill="#7B594C" d="m244 186 3 3-1 4-5 1v-7l3-1z"/><path fill="#EFEEEF" d="m151 186 2 4-9 1v-4c4-2 4-2 7-1z"/><path fill="#3D261F" d="m48 143 2 3h-2l-1 6 2 1-1 3 1 6h-2v-2h-2l-1-5h2v-4c0-3 0-5 2-8z"/><path fill="#202F21" d="M142 148h5c-1 5-1 5-3 7l2 1v-2l2 1v2h-6l-1-8 1-1z"/><path fill="#43763F" d="m89 104 3 1-1 4c-3 2-6 3-10 3l1-3h2l4-3 1-2z"/><path fill="#121212" d="M180 102c5 0 5 0 8 2l2 1c-4 3-6 2-10 1v-4z"/><path fill="#5E8655" d="m141 87-2 4h-2l-1 2c-1 3-4 5-6 7l-1-2c7-11 7-11 12-11z"/><path fill="#798274" d="M151 65h2v2l6-1c-4 5-4 5-8 5h-3l3-6z"/><path fill="#3B231C" d="M61 240h2v2l3 1v2l3 1 1 7-9-10v-3z"/><path fill="#19261B" d="M203 215h3l-1 8-4 1v-7l2-2z"/><path fill="#324930" d="m86 133 5 1-1 5-1 3-5 5v-2l2-12z"/><path fill="#29241E" d="m220 119 4 1 1 4h-14l-3-1h-3v-1h7l4-1h5l-1-2z"/><path fill="#46251C" d="m57 114 3 3-1 4h-2l-3 9h-1c0-6 1-11 4-16z"/><path fill="#273327" d="m86 110 3 1-2 7-6 3 5-11z"/><path fill="#2B402C" d="M80 111v8h-4l-2-5c2-2 3-3 6-3z"/><path fill="#625F5F" d="m178 107 5 1v3l6 1-2 2h-5l-2-1h-2v-2l2-1-2-1v-2z"/><path fill="#251C19" d="m293 105 2 2h6v2l-4 1 1 4 3 2-2 3h-2l-2-10h-2l-1-3 1-1z"/><path fill="#735D55" d="m119 289 3 1a189 189 0 0 0 9 1h3l1-2-1 5-15-3v-2z"/><path fill="#DDD" d="M296 273h3l-4 7-2 3-1-2-3 2 7-10z"/><path fill="#1C2B1D" d="M55 167c4 6 4 6 4 10h-3v3h-2l-1-4 2-1-2-5h2v-3z"/><path fill="#8A301F" d="M282 141h1l1 8v8l-2 2h-2l-4 3 4-6 2-9v-6z"/><path fill="#252424" d="M195 71v1l-7 2h-3l-9 1 4-3 15-1z"/><path fill="#466A42" d="m136 65 4 1-1 3h-3l-1 3-6 1 4-5h2l1-3z"/><path fill="#18100E" d="M268 173h1v6l-9-1-2-1-3-3 12 2 1-3z"/><path fill="#1A2A1C" d="M126 163c3 2 4 3 5 6h2l-1 4-4 1-2-11z"/><path fill="#1E1D1A" d="M203 141h5l3 3 1 2h-6l-2-2-5-1 4-2z"/><path fill="#435541" d="M249 139v2c-5 4-8 4-14 4 1-3 3-3 6-4l3-1 5-1z"/><path fill="#0E110E" d="m130 133 2 3-2 1c-3 3-3 4-3 8l-4-1c1-5 4-7 7-11z"/><path fill="#212D22" d="m204 134 4 1h4l-1 2-18-1c4-4 6-3 11-2z"/><path fill="#161616" d="m167 128 4 1 1 3h5l-3 3h-5l-2-1h-2l2-1v-2l-2-1h2v-2z"/><path fill="#973925" d="M55 124h5l-2 11h-1l-1-6-2 5c-1-4 0-6 1-10z"/><path fill="#090B0A" d="m100 100 1 4-5 5h-4v-2l4-4 2-2 2-1z"/><path fill="#556852" d="M131 77h2l1 5h-9v2h-5c3-3 5-4 9-5l2-2z"/><path fill="#2D2A29" d="m234 72 1 2 5 2v3l-9-1 1-4v2h2v-4z"/><path fill="#394536" d="M174 55h4l-1 4-6 2v-2h-5v-1l3-1 5-2z"/><path fill="#DBDBDB" d="M170 239v3l-13 5-1-2 6-3 3-2 5-1z"/><path fill="#5A5959" d="m147 235 3 3 2-2 1 4h-2v3l-8 1 1-1c3-3 3-5 3-8z"/><path fill="#1C2C1E" d="m203 235 1 4-8 5-1-4 8-5z"/><path fill="#1B2A1C" d="M59 216h2c4 5 5 9 5 15-4-4-6-9-7-15z"/><path fill="#213322" d="M236 214h6l-1 5-7-1 2-4z"/><path fill="#E8E8E8" d="m109 204 4 1-2 3 1 2-7 2-1-3 5-5z"/><path fill="#9E3824" d="M265 199h2l1 14-2 1v-5l-2-1 1-9z"/><path fill="#2D2826" d="m251 187 1 3h2l-1 3-11 2 3-3 3-4 3-1z"/><path fill="#4E4C4B" d="m197 166-3 1v2h-4v3l-3-1v-2l-2-1c4-3 7-3 12-2z"/><path fill="#324832" d="M247 148v4l-8-1v-3h8z"/><path fill="#395737" d="M101 127v11l-4-1c0-4 0-5 2-8l2-2z"/><path fill="#375C37" d="m190 130 5 1c-1 3-1 3-4 5h-5l2-4h2v-2z"/><path fill="#303E30" d="m87 118 2 2 3-1v5h-3v2h-4l2-8z"/><path fill="#702E20" d="M255 117c4 3 6 5 7 9l-1 3-7-11 1-1z"/><path fill="#1A241B" d="m91 108 4 2h-2l-4 11-2-4c1-6 1-6 4-9z"/><path fill="#46271D" d="m70 100 3 1-4 5-2 3-2 2h-2c1-5 3-8 7-11z"/><path fill="#823725" d="m79 92 3 3-2 1c-2 1-3 2-4 5l-3-2 6-7z"/><path fill="#100F0F" d="M189 91h2v4l-10 1c4-5 4-5 8-5z"/><path fill="#85967E" d="m118 88 2 1-2 4-2 2-1 2h-4l1-5 5-1 1-3z"/><path fill="#181818" d="m130 263 2 1 1 5v5h-2v-4l-7-1 2-1c2-1 3-2 4-5z"/><path fill="#1B1615" d="M59 240h2l5 10-1 2 2 1-2 2-2-5-2-3-2-7z"/><path fill="#161211" d="M316 143h1l-1 14-1-2h-2l3-12z"/><path fill="#17100E" d="m223 126 3 1 3 1v1c-6 0-11 0-16-2v-1h10z"/><path fill="#263A27" d="M138 114v2h5v2l-6-1-1 3h-5c1-3 3-6 7-6z"/><path fill="#413F3F" d="M267 103c3 3 3 6 3 10l-2 7h-1v-17z"/><path fill="#33241F" d="m300 101 3 1-2 5-6 1-1-3h4v-3l2-1z"/><path fill="#50281E" d="M215 50c6 0 9 0 14 3-3 2-7 2-10 1l-4-4z"/><path fill="#603227" d="m147 298 11 2-1 3c-5 0-5 0-8-2l-2-3z"/><path fill="#090808" d="m243 184-2 4-7 1 1-4 8-1z"/><path fill="#151414" d="m215 157 2 1h2v2c-6 2-6 2-10 1l-2-1v-2l8-1z"/><path fill="#152017" d="M61 137c2 3 2 5 2 9l-5 1c1-7 1-7 3-10z"/><path fill="#693327" d="M282 128c3 4 2 6 1 11h-2l-2-5h2l-1-5 2-1z"/><path fill="#090909" d="M249 131h5l-2 5h-2v2l-3-1 1-1-2-2 3-1v-2z"/><path fill="#030403" d="m184 131 2 1-10 8-2-1 4-4 2-2 4-2z"/><path fill="#0E130F" d="m121 125 4 1-2 4-4 1v2h-7l1-3v2h5v-2h2l1-5z"/><path fill="#677362" d="m153 87 3 4-6 2-1 5h-1l-1-7c2-3 3-3 6-4z"/><path fill="#71836A" d="m160 69 3 1-1 2 3 1-2 2-7-1v-2l-2-1 6-2z"/><path fill="#323232" d="m175 312 3 1v6l-5 2 2-9z"/><path fill="#181413" d="m144 302 2 1h5v1h-4l-3 1-5 1-6-2c4-3 6-2 11-2z"/><path fill="#E2E1E1" d="m118 284 14 3v1h-7l-5-1v-2l-2-1z"/><path fill="#121A14" d="M187 209v6l2 1-2 7h-2c-2-4-1-8 0-12l2-2z"/><path fill="#BFBFBF" d="M144 188v3h6v1a292 292 0 0 1-8 2l-5-2 7-4z"/><path fill="#1E1513" d="m264 185 3 2-1 12h-1l-1-10-3-1 3-3z"/><path fill="#31362F" d="M166 162h2l-2 11-3 1c0-5 0-8 3-12z"/><path fill="#B63C26" d="M303 140h3c2 4 1 8 0 12h-2l-1-12z"/><path fill="#362723" d="m298 132 1 4h2l1 8-4-5-1 2h-2l3-9z"/><path fill="#3D513C" d="m255 133 2 1-2 7-4 1v-2h2l-1-5 3-2z"/><path fill="#3F613D" d="M130 125h3v6l-2 2h-3v-6h2v-2z"/><path fill="#64372D" d="M180 126h7l5 2c-2 2-4 2-7 2l-5-4z"/><path fill="#523D37" d="m248 84 1 2 2 1-3 3h-3l1 2-8-2 7-3 3-3z"/><path fill="#3D3C3B" d="M173 88h7l5 2-1 2-3-1-4 1-2 1-2 1v-2l4-2-4-2z"/><path fill="#497D43" d="m112 87-2 4-2 1-1 2h-3c1-6 1-6 4-7h4z"/><path fill="#6F6F6B" d="m161 59 3 1-11 4-1-3c5-3 5-3 9-2z"/><path fill="#7C7B7B" d="M177 310h2v4l3-1h4l2 2-10 2-2-5 1-2z"/><path fill="#A7452D" d="m120 292 9 1v2h2v2c-5 1-7-1-11-4v-1z"/><path fill="#474747" d="m171 242 2 4-3 2-2 5-1-8-4-1h3l5-2z"/><path fill="#140B09" d="m286 234 3 1-2 8h-3v-5h2v-4z"/><path fill="#943825" d="m298 214 4 1-3 9h-2l1-10z"/><path fill="#4C251C" d="M278 193h1v10l-4 2-2 3 1-8h3l1-7z"/><path fill="#5F5F5F" d="M142 193h2v2l4 4 1 4-2 3-5-13z"/><path fill="#767676" d="m120 190 2 1v1h-6v7h-2v-8c2-2 3-2 6-1z"/><path fill="#213422" d="M95 154h4v2l7-1c-1 2-3 3-5 3l-6 1-1-4 1-1z"/><path fill="#9C3925" d="M201 152h8l4 2-12 2v-4z"/><path fill="#253926" d="m169 145 2 1-7 9-2-1 7-9z"/><path fill="#0D0F0D" d="M193 141v2l-5 3-2 2h-3c2-5 4-7 10-7z"/><path fill="#7E9578" d="M191 137h10c4 0 6 1 9 3v1l-7-1-7-2h-5v-1z"/><path fill="#863322" d="M220 124c6-1 8 1 13 4l-1 3-12-6v-1z"/><path fill="#314A30" d="m158 119 1 3-2 2h-4l-1 3h-2v2l-2-1 1-2-2-1h4v-2h4v-2h3v-2z"/><path fill="#412822" d="m292 107 1 2h2l2 10-1-2-3-1-1-9z"/><path fill="#253524" d="m131 98 4 1-2 4-2 2-1 2h-2c0-4 1-6 3-9z"/><path fill="#1D281E" d="m88 96 3 1-4 5-2 2-2 2h-1v-5l6-5z"/><path fill="#973A26" d="m88 85 2 1-4 7h-3l-1 2-2-4 2-1c3-1 4-2 6-5z"/><path fill="#506F4A" d="m115 73 1 2h10c-3 3-3 3-7 3h-3v-2h-3v-2l2-1z"/><path fill="#354935" d="m129 74 6 3 5-3-4 7-4-1 1-3h-2v-2l-2-1z"/><path fill="#4D4643" d="m168 52 2 1h2v1l-8 1 1 3-3-1v-2l-2-1c3-2 4-2 8-2z"/><path fill="#171413" d="M200 42a333 333 0 0 1 7 1l4 2h-5v2l-5-1 1-3-2-1z"/><path fill="#833727" d="m202 293 2 1-3 2 2 1v3h-8l2-1 1-4 4-2z"/><path fill="#642F23" d="M237 264h1c0 5 0 9-3 13l-2-3 4-10z"/><path fill="#333" d="M149 255h5c-1 5-1 5-4 6l-2 1v-5l1-2z"/><path fill="#662B1F" d="M250 251v8l-5 1 2-4-2-1 5-4z"/><path fill="#542F26" d="M52 211h2l1 6 3 1v5l-1-3-2-1-2-1-1-7z"/><path fill="#2F211C" d="M47 198c4 7 4 7 2 11l-2 7-2-1v-2l2-9v-6z"/><path fill="#325425" d="M74 194h2v10l-6-1v-5l1 4h3v-8z"/><path fill="#935546" d="m66 111 1 6 2 1-6 3c0-7 0-7 2-9l1-1z"/><path fill="#41673E" d="m130 109-1 6-6 3c3-9 3-9 7-9z"/><path fill="#7C3D30" d="m241 105 2 3 2 2h3l3 4-4 1-3-3-2-1-1-6z"/><path fill="#535D4F" d="m119 89 1 3h2v4h-2l-5 1 4-8z"/><path fill="#6C7566" d="M157 82h6l5 2-3 2-6-2-3 2 1-4z"/><path fill="#3A2C28" d="m192 53 6 1 1 3h-9l-1-2h3v-2z"/><path fill="#55281F" d="m233 265 1 4c-2 4-4 7-8 9l-2-1 1-3h2l3-3 1-2 1-2 1-2z"/><path fill="#161514" d="M60 254c3 3 3 6 3 10l-7-9h2v2h2v-3z"/><path fill="#323232" d="m113 246 5 2 4 5-4 1-1-2-4-4v-2z"/><path fill="#793624" d="m50 215 3 1-1 1 1 4 1 2v2h-4v-10z"/><path fill="#050504" d="M198 203h5v2c-2 2-4 3-7 3h-2l1-3h3v-2z"/><path fill="#4B4A4A" d="M104 185h7l6 2-5 1h-7l-1 2v-5z"/><path fill="#191615" d="M206 157c-2 3-4 4-8 4l-2 1h-2l1-4 11-1z"/><path fill="#1A2A1C" d="m107 158 1 3h5l-1 2h-2l-7 2v-4l4-3z"/><path fill="#1E1C1B" d="M209 149h11c-5 3-8 3-13 3l2-3z"/><path fill="#355634" d="M144 137h2l-1 4h4v2l-8 1v-4h2l1-3z"/><path fill="#372D29" d="m258 130 4 5-2 6h-2v-4l-2-4h2v-3z"/><path fill="#542C23" d="m244 127 2 1-2 4h-7l2-4 5-1z"/><path fill="#202F22" d="m123 126 5 1v4l-7 1v-2l2-1v-3z"/><path fill="#303B29" d="m199 125-1 3-4 1-2 1h-2v2l-3 1 2-5c3-2 6-3 10-3z"/><path fill="#3E4B3D" d="M215 114h7l-2 1v2h7l4 2h-9c-4-1-5-2-7-5z"/><path fill="#46493D" d="m203 89 1 2-2 1 1 2h-4l-1-3-6-1c4-3 7-2 11-1z"/><path fill="#293228" d="M105 86h2l-2 6h-2l-1 3h-3l2-6 4-1v-2z"/><path fill="#8D9288" d="m145 63 4 2-3 4-1 1-2 2h-2l4-9z"/><path fill="#0A0A0A" d="m265 270 4 2c-2 3-4 4-7 5v-5l3-2z"/><path fill="#170E0B" d="m277 242 3 1v8h-3v-9z"/><path fill="#DCDCDC" d="M97 238h7l1 3-5 3-3-6z"/><path fill="#838383" d="m107 199 2 2-2 3h-2l-4 6-1-4 2-3h2l1-3 2-1z"/><path fill="#D3D3D2" d="m96 202 2 11h-3v-4h-2l3-7z"/><path fill="#812E1E" d="M280 193h1a797 797 0 0 1-1 16h-1c-1-6 0-10 1-16z"/><path fill="#111C0D" d="m68 203 14 2-1 3-5-1-3-1-5-3z"/><path fill="#242323" d="m240 181 2 3-7 1 2-2h-8c4-2 7-2 11-2z"/><path fill="#110F0D" d="m54 171 2 4-2 2 1 4h-3v-9l2-1z"/><path fill="#582D21" d="M309 151h1l2 19c-2-5-3-7-3-13v-6z"/><path fill="#883826" d="M54 152c1 4 1 5-1 8l-3-1 1-3h-2l1-3 4 1v-2z"/><path fill="#49522F" d="m194 150 7 2 1 5-4 1h-2v-3h4v-2h-2l-3-1-1-2z"/><path fill="#181A18" d="M204 146h2l1 4-2 2h-5l-2-1h-2v-1l8-1v-3z"/><path fill="#0D0D0D" d="M204 146v3l-10 1 3-3 7-1z"/><path fill="#948F8E" d="m295 136 1 3-4 6-2 2-1 2h-2l4-5 1-6h3v-2z"/><path fill="#535151" d="m167 138-5 4h-3a281810 281810 0 0 0-4 0v-2c4-2 7-2 12-2z"/><path fill="#393636" d="m275 130 4 7 1 2 1 2-3 1c-3-4-3-7-3-12z"/><path fill="#333832" d="M187 113h3l1 3-2 1-3 2v2l-6-1 3-2-1-2h7v-2l-2-1z"/><path fill="#315031" d="M152 116c-5 3-9 4-15 4v-3h3l6-1h6z"/><path fill="#575E54" d="M163 92h7l5 5-10-2v-2l-2-1z"/><path fill="#131110" d="m280 84 5 5-1 3-4-1v-7z"/><path fill="#8F918C" d="M190 84h3l1 3 2 2h-7l-5-2 6-1v-2z"/><path fill="#615F5F" d="M180 83c7 0 7 0 11 2l-1 2-10-2v-2z"/><path fill="#A5A5A2" d="m184 65 7 2v3l-8-1 1-4z"/><path fill="#241D1C" d="M170 43v1h-14c4-4 9-3 14-1z"/><path fill="#E2E2E2" d="M91 222h2l1 3 4 2v1l-7 1-1-6 1-1z"/><path fill="#3D7138" d="M218 179h-2v2l-9 1v-2c8-2 8-2 11-1z"/><path fill="#A4A79F" d="M202 168h5v2h5v1h-15v-1h5v-2z"/><path fill="#C7BAB7" d="M286 131h3v10h-2l-1-10z"/><path fill="#282423" d="M312 125h3v4l-1 3-2 4v-11z"/><path fill="#4A2D25" d="m300 123 2 1 6-1v3h-2l1 5-2 1v-4h-2l-1-3-2-2z"/><path fill="#B9C2B5" d="m171 124 9 2v2l-9-1v-3z"/><path fill="#212B22" d="m99 106 1 2-2 4-1 2-1 2h-1v-5l-2-1 6-4z"/><path fill="#181312" d="m80 98-1 5h-2l-1 5-3 1c0-5 3-8 7-11z"/><path fill="#593A32" d="m271 92 5 3v3h2l1 3h-4v-4h-3l-1-5z"/><path fill="#0B0B0B" d="m198 94 3 1-5 5-4-1 1-4 5-1z"/><path fill="#040405" d="m211 94-7 5-4-1c4-4 6-4 11-4z"/><path fill="#2A3129" d="m187 89 12 1-3 3-9-2v-2z"/><path fill="#4C413A" d="m99 84 2 1v2l-6 1v2l-3 1-1-3a333 333 0 0 1 6-3l2-1z"/><path fill="#6B8764" d="M125 82h9l-1 4-7-1-1-3z"/><path fill="#121412" d="M164 55h10c-3 3-3 3-6 3h-3l-1-3z"/><path fill="#503E39" d="m159 52-1 2-7 2v2l-3 1c1-5 1-5 4-6l7-1z"/><path fill="#505050" d="m129 327 10 2-1 4v-2l-9-2v-2z"/><path fill="#52251B" d="M171 296h7l-2 1v2c-3 2-5 2-9 2l1-2 4-1-1-2z"/><path fill="#160F0C" d="m94 288 14 4-2 2-5-1-3-1-4-2v-2z"/><path fill="#6B6A6A" d="m157 253 1 2h7l-4 1v2l-7 1 3-6z"/><path fill="#D7D6D6" d="m94 252 14 2v1l-11 1v-3l-3-1z"/><path fill="#6E6D6D" d="m83 246 1 2 6 1 3 1h3l-1 2-12-1v-5z"/><path fill="#7E7E7D" d="m109 223 10 2v3l-4-1-3-1-3-3z"/><path fill="#242323" d="m209 194 9 3-7 3-2-6z"/><path fill="#2C4A21" d="M74 186h3l-1 3 3 1v2h-7l2-6z"/><path fill="#5A3C33" d="m249 184 3 3-2 2-2-1-1 3v-2l-2-1 1-3 3-1z"/><path fill="#1C1A19" d="m256 180 3 1-2 1-2 4h-4v-2l5-4z"/><path fill="#2C302A" d="m174 172-4 1v3l-3 1-2-1-1 2 1-4c5-3 5-3 9-2z"/><path fill="#A33C26" d="M306 168h1v10h-2l-1-8h2v-2z"/><path fill="#325525" d="M69 163h2v2l3 1-1 3-8 1 2-2h4l-2-5z"/><path fill="#141E16" d="m86 145 5 1-1 5-5 1 3-6-2-1z"/><path fill="#212521" d="M119 120h2l-2 5h-2l-2 4-1-3 5-6z"/><path fill="#090B0A" d="M97 113h1v7h-2l-1 2h-2c1-4 1-6 4-9z"/><path fill="#050505" d="M100 112h4l-2 6-3 1 1-7z"/><path fill="#778871" d="M231 110h2v7l-5-1 1-4h2v-2z"/><path fill="#070807" d="M118 105h3v6l-1 2-2-1v-7z"/><path fill="#293D29" d="m244 94 2 1v2l3 1-9 1c1-3 1-3 4-5z"/><path fill="#1B1A1A" d="m181 90 2 1v2l-5 3-3-1v-2l6-3z"/><path fill="#212A22" d="m121 88 6 1-2 5-5-2 1-4z"/><path fill="#797876" d="m183 85 5 1-2 4-13-2v-1h4l3-1 3-1z"/><path fill="#385A37" d="M126 71v3h2v2h-6l-2-2c3-3 3-3 6-3z"/><path fill="#2D3D2D" d="M132 66h3v2l-4 3-5-3c2-2 2-2 6-2z"/><path fill="#B0ACAC" d="M205 60h2l1 7-2 1v-3h-5v-2h4v-3z"/><path fill="#8C3826" d="m209 54 7 1 1 3h-10l2-4z"/><path fill="#595858" d="M140 322h1v6l-2 1v-2l-8-2v-1l9 1v-3z"/><path fill="#241F1D" d="M186 304h5l1 4h-8l2-4z"/><path fill="#331610" d="M188 294h3l-8 5h-2c2-5 2-5 7-5z"/><path fill="#464544" d="m85 258 4 3 2 1 5 5-6-1-2-2-2-2-1-4z"/><path fill="#382621" d="m69 254 5 1v3l4 1-1 3h-2v-3h-2l-3-3-1-2z"/><path fill="#5A2D20" d="M58 236h3v2l4 1 1 4-3-1v-2h-4l-1-4z"/><path fill="#101010" d="m199 210-3 3h-5l-1-3h9z"/><path fill="#6F6F6F" d="M117 209h5l2 3h-8l1-3z"/><path fill="#6D6D6D" d="m157 203 3 2c-8 5-8 5-13 4l2-3 6-1 2-2z"/><path fill="#383533" d="M240 201c-3 2-4 2-8 2h-4c4-4 7-3 12-2z"/><path fill="#343831" d="m205 192 6 1-2 1v2h-3v2h-4v-2l4-2-1-2z"/><path fill="#59423D" d="m222 160 2 1v1h-7l-1 2-3-2c5-3 5-3 9-2z"/><path fill="#161815" d="M133 142h7l-2 5-1-3-6 2 2-4z"/><path fill="#171616" d="m222 138 4 1-1 2h2v2l-8 1 4-3-1-3z"/><path fill="#2A1D19" d="M245 130h13v3l-5 1 1-3h-9v-1z"/><path fill="#212420" d="m97 124 5 2-3 5h-3l1-7z"/><path fill="#A33B26" d="m297 126 4 1 1 4-2-1h-2l-2 2 1-6z"/><path fill="#A23824" d="m248 114 4 1 3 5-3 1-4-7z"/><path fill="#653023" d="M289 106h3l1 8-3-1-2-6 1-1z"/><path fill="#7F3724" d="M71 102c0 4-1 6-3 9l-4 1-1 2c0-3 0-3 2-5l3-3 3-4z"/><path fill="#365C36" d="M89 105c-3 3-4 4-8 5l2-5h6z"/><path fill="#070606" d="m237 92 2 2-2 2-8-1 1-2 7-1z"/><path fill="#201E1E" d="M200 81c4 1 7 2 10 6l-1 4-1-2-8-7v-1z"/><path fill="#394E37" d="m136 83 5 1c-1 3-3 5-6 7l1-2v-6z"/><path fill="#416B3E" d="m158 77 4 1v3l-4 1-3-2 3-3z"/><path fill="#B83D26" d="m101 77 1 3-5 4-3-1 7-6z"/><path fill="#3E6A3A" d="M178 55h5v4h-4l-1 3v-7z"/><path fill="#693429" d="M180 50h7v2h7l-2 1v2h-3v-2l-9-1v-2z"/><path fill="#2F221F" d="M149 296h3v2l8 1v1l-6 1v-2h-5v-3z"/><path fill="#A73A25" d="m108 286 5 1v2h2v2l-6-1-1-4z"/><path fill="#37231D" d="m253 278 1 4-8 3v-2l6-4 1-1z"/><path fill="#603026" d="m242 262 2 2-1 4 1 5-2 1-1-5v-3l1-4z"/><path fill="#8F3925" d="M294 230h1v7l-4 3v-6l3 1v-2l-2-1h2v-2z"/><path fill="#20241F" d="m187 196-4 3-2 1-2 1-2-1c5-5 5-5 10-4z"/><path fill="#131313" d="m165 176 3 1c-4 5-4 5-8 5l-3-2h5v-2h3v-2z"/><path fill="#1D2E1F" d="M86 167v3c-3 3-3 3-6 3v-4l6-2z"/><path fill="#252823" d="m190 147 1 4 4 1-7 2-1-5 3-2z"/><path fill="#375030" d="m187 149-1 4-1-3-3 2-5 1 1-3 9-1z"/><path fill="#222321" d="M170 119h9v1h-6v3h-5v-2h2v-2z"/><path fill="#64755E" d="m124 95 1 2h2l-2 4h-3v2l-2-1 4-7z"/><path fill="#352623" d="m83 96-1 4h-3l-5 4c2-4 4-8 9-8z"/><path fill="#424040" d="m158 90 7 1v4l-7-1v-4z"/><path fill="#161816" d="M167 88v4l-9-2c3-2 5-2 9-2z"/><path fill="#222822" d="M194 84h2v2l6 2c-4 1-6 0-10-1l2-3z"/><path fill="#231712" d="M89 80v3h-2l-4 3-1 2-3-1h2l1-2c2-3 4-4 7-5z"/><path fill="#AE3C26" d="M210 74c7 0 7 0 9 3l1 2-8-2v-2l-2-1z"/><path fill="#626060" d="m195 59 1 2 2-1 4 1-1 4h-5l2-2-3-1v-3z"/><path fill="#DBDADA" d="m270 308 2 1c-2 3-4 4-7 5v-4l5-2z"/><path fill="#1E0F0B" d="m222 283-2 5-4 1 1-4 5-2z"/><path fill="#3F3E3E" d="m167 270 5 1 1 2h-3l-1 2-6-2 4-1v-2z"/><path fill="#444545" d="m111 246-1 3-1-1-2 3-4-1 1-3 7-1z"/><path fill="#1F110D" d="M267 222h1a763 763 0 0 1-1 7l-1 4h-2l1-4v-3l2-4z"/><path fill="#343C34" d="M211 222h7v3h-8l1-3z"/><path fill="#121B13" d="m75 224-2 4-5-1v-2l7-1z"/><path fill="#1B1B1B" d="M132 211h5l-1 4-5-1 1-3z"/><path fill="#242523" d="M175 179v4l-4 2-3-1c5-5 5-5 7-5z"/><path fill="#191E18" d="m223 179 10 1v1l-11 1 1-3z"/><path fill="#27421E" d="m73 177 8 5-4 1-3-3-2 3v-5l1-1z"/><path fill="#1A281C" d="M100 172v3l-5 4-1-3 6-4z"/><path fill="#13100F" d="m209 161-2 1-5 4-4-2h2v-2l9-1z"/><path fill="#090F0A" d="m98 157 4 2-6 5 1-3-2-2 3-2z"/><path fill="#171A16" d="m195 152 5 1v2l-7 2-2-1 4-4z"/><path fill="#B23C26" d="m232 129 3 1v2h-7l-5-2 9 1v-2z"/><path fill="#BAB7B3" d="M274 125c3 2 4 3 5 7l-1 4-2-4-1-2-1-5z"/><path fill="#625E5D" d="M271 122c1 4 0 6-1 10l-2-1c0-4 1-6 3-9z"/><path fill="#3A5D39" d="M149 117v2h-2l1 3 3 1v2l-5-1v-5l-2-1 5-1z"/><path fill="#101611" d="m79 121 2 1-5 5 2 2h-4l2-7 3-1z"/><path fill="#737170" d="m181 116 3 3h-11l1-2 7-1z"/><path fill="#121212" d="M266 106h1v15h-1v-4l-1-3 1-8z"/><path fill="#323F31" d="m114 103 11 1-2 3h-2v-2l-7 1v-3z"/><path fill="#283E29" d="m144 101 1 3h-3l-1 3h-5l4-4h4v-2z"/><path fill="#120C0B" d="M263 97h1v9h-3l2-9z"/><path fill="#202B20" d="M117 95h6v4h-4v-2l-4 2 2-4z"/><path fill="#A23F26" d="M238 90c5 0 7 1 10 5l-10-4v-1z"/><path fill="#385B37" d="m142 90 5 1-6 8c-1-4 0-5 1-9z"/><path fill="#40733B" d="M260 86h5l3 5-3 1-5-6z"/><path fill="#313131" d="M298 74h2l3 5-1 3-5-5 1-3z"/><path fill="#9CA296" d="M154 72h2v2l4 1-2 3h-3l-1-6z"/><path fill="#6C6E68" d="m181 70 3 1-8 3-2 1h-2c4-5 4-5 9-5z"/><path fill="#2A2220" d="m230 66 9 3 1 5-4-3-3-1-3-4z"/><path fill="#402A24" d="M199 43h3v4h-9l1-2h5v-2z"/><path fill="#504F4F" d="M173 329h7l-1 3h-6v-3z"/><path fill="#2A2321" d="m226 290 3 3-7 2v-3l4-2z"/><path fill="#933623" d="M197 290h3c-1 4-2 6-5 8h-2v-2h2v-2l2-2v-2z"/><path fill="#A8A7A7" d="m97 259-1 3-3 1-4-4h8z"/><path fill="#983A27" d="M263 247h1l-1 8-2 2-1-4 3-6z"/><path fill="#C2C1C1" d="m113 243 9 6-1 3-4-3-2-2-2-2v-2z"/><path fill="#100F0F" d="m50 237 5 1v5l-4-1-1-5z"/><path fill="#B13C26" d="m294 224 3 1-1 3-1-2-2 1h-5c2-3 3-3 6-3z"/><path fill="#100F0F" d="m219 198-1 3-7 1v-2c3-2 4-2 8-2z"/><path fill="#070707" d="M116 192h3l1 5-4 2v-7z"/><path fill="#0E150F" d="m91 181 4 2-4 5-3-1 2-1 1-5z"/><path fill="#8E7F74" d="m228 177 8 1v2h-7l-1-3z"/><path fill="#020201" d="M206 162h3l-1 4-6 1 4-5z"/><path fill="#1E3020" d="M64 159h6l-3 4h-4l1-4z"/><path fill="#613327" d="m47 153 3 1-1 2h2l-1 5-3-2v-6z"/><path fill="#1A1F1A" d="M118 147h8v2l-8 1v-3z"/><path fill="#75453A" d="M211 139v2l3 1-1 4-1-1-6-4 5-2z"/><path fill="#151515" d="M155 134h2l-2 6h-4v-2h2l2-4z"/><path fill="#454241" d="m68 118-1 5-5 1v-3l6-3z"/><path fill="#213322" d="M128 115h1l1 12-2-1 1-4-3-1 2-6z"/><path fill="#556551" d="M202 111h5l1 4-4 2 1-5-4 1 1-2z"/><path fill="#151813" d="m224 108 1 2-4 1-3 1-6-1 8-3h4z"/><path fill="#253525" d="m131 109 2 1-1 2h2v3h-5l2-6z"/><path fill="#50574C" d="M155 107h5l-2 4-4 1 1-5z"/><path fill="#324C32" d="M102 105h3l-1 6h-3v-5l1-1z"/><path fill="#2D2C2C" d="M186 96c4 1 5 1 9 4h-10l1-4z"/><path fill="#171916" d="m134 85 3 1c-1 4-2 5-5 7v-6h2v-2z"/><path fill="#1E1D1D" d="M207 76h2l1 2 3 1v2h-8l3-1v-2l-2-1 1-1z"/><path fill="#5D6157" d="m111 76 2 1-2 4-7 1 7-6z"/><path fill="#72746E" d="m168 75 5 1h5c-3 2-5 3-9 3l-3-2 2-2z"/><path fill="#B43C26" d="m237 63 2 4-8-1-1-2 7-1z"/><path fill="#232222" d="m199 63-3 1v2h3v2l-5-1 1-3-2-1h6z"/><path fill="#171514" d="m135 51 2 1-1 2-7 2v-3l6-2z"/><path fill="#26211F" d="m220 295-3 1v2l-6 1v-2h3v-2h6z"/><path fill="#201714" d="M108 293c7 0 7 0 9 2l1 1-8-1-2-2z"/><path fill="#953624" d="M203 286h5v2l2 1-4 2-2-2 1-2-2-1z"/><path fill="#1D1B1B" d="m80 274 4 2 2 6c-3-1-4-2-6-5v-3z"/><path fill="#252525" d="M155 248h1v5l-5 1 4-6z"/><path fill="#B1B1B1" d="M103 245v6l2 1h-6l2-4-2-2 4-1z"/><path fill="#919191" d="m322 238 1 3 2 1-6 3 3-7z"/><path fill="#CAC9C9" d="m104 239 8 2v2l-8-1v-3z"/><path fill="#3D3D3D" d="m105 237 6 1 2 3c-4 0-6-1-9-3l1-1z"/><path fill="#171616" d="m218 229 2 1-1 7-5 2 2-3c2-3 2-3 2-7z"/><path fill="#E3E3E3" d="m121 223 4 1-1 2 3 1h-7l-1-2h2v-2z"/><path fill="#261C18" d="M308 209h2l-3 10h-1v-7h2v-3z"/><path fill="#142210" d="M71 195h3v7h-3v-7z"/><path fill="#0F0F0F" d="M321 180h1l-1 7-4-1 4-6z"/><path fill="#1C2C1E" d="m89 169 2 3-6 3 1-4 3-2z"/><path fill="#263E1D" d="m72 169-1 5h-4l-1-4 6-1z"/><path fill="#416F3D" d="M199 139h5l1 2c-6 2-6 2-10 1l4-1v-2z"/><path fill="#181A17" d="m182 135 1 2-2 1-5 4-4-1 7-4 3-2z"/><path fill="#1E201D" d="m191 111 3 2-2 1 2 1v2l-6 1 2-3 1-4z"/><path fill="#110F0F" d="M191 108v2c-3 2-5 2-9 2 3-3 5-4 9-4z"/><path fill="#080B08" d="M151 108c-1 3-3 5-6 7l1-5 5-2z"/><path fill="#1A1D1A" d="M125 104h2v6h-3l-1-4 2-2z"/><path fill="#2A1D18" d="m290 100 2 6-5 1-2-4 5 1v-4z"/><path fill="#364134" d="M151 100h7l1 3h-6v-2l-2-1z"/><path fill="#5F7F57" d="m139 76 1 2 3 3h2l-1 3-5-2v-6z"/><path fill="#5E685A" d="M154 72v6l-4 1v-5l4-2z"/><path fill="#645E5D" d="M202 65h4c2 2 2 2 2 5l-6-1 2-1v-2l-2-1z"/><path fill="#332B29" d="m203 58 1 4-8-1v-2l7-1z"/><path fill="#2B3929" d="m186 58-1 3-6 1v-3l7-1z"/><path fill="#32201B" d="M211 46h6l1 3 2 1h-6v-2l-3-2z"/><path fill="#4F2B21" d="m198 300 1 3h-11v-1l10-2z"/><path fill="#AA432B" d="m184 291 5 1v2l-7 1 2-4z"/><path fill="#3D2D29" d="m188 288 8 1c-3 2-5 2-9 2l1-3z"/><path fill="#723323" d="m253 279-8 5 1-4c4-2 4-2 7-1z"/><path fill="#2B201D" d="m75 248 5 5-2 3c-3-3-3-4-3-8z"/><path fill="#63342A" d="m245 249 2 1c-4 5-4 5-7 6v-3h3l2-4z"/><path fill="#29140F" d="M294 227v5l-5-2v-2l5-1z"/><path fill="#212621" d="M208 220h7l1 3h-3l-6 1 1-4z"/><path fill="#27411D" d="m80 206-3 3-6-1c3-2 5-2 9-2z"/><path fill="#5B5B5A" d="m108 202 3 2-8 6 2-5 3-1v-2z"/><path fill="#151B16" d="M184 201h2l3 4 3 2-7-1-1-5z"/><path fill="#713325" d="m49 197 3 1 1 6-5-2 1-5z"/><path fill="#32362F" d="m215 188 3 1-3 3h-6l6-4z"/><path fill="#834635" d="m236 178 7 2 1 2-11-1 3-1v-2z"/><path fill="#382926" d="m213 165 5 2c-3 2-3 2-7 2l2-4z"/><path fill="#A4432D" d="m211 162 9 3-3 2-6-3v-2z"/><path fill="#615957" d="M221 150v2l-10 1c4-2 5-3 10-3z"/><path fill="#292625" d="M206 146h5l-2 1-1 4h-3l1-5z"/><path fill="#51614C" d="M241 140c-3 2-6 3-10 3v-2c6-2 6-2 10-1z"/><path fill="#030404" d="M239 134v1h-3l-5 2h-5c4-4 8-3 13-3z"/><path fill="#151414" d="m274 130 2 3-1 3-5-1v-3l4 2v-4z"/><path fill="#100F10" d="M96 125h2l-2 6 2 1-5-1v-2h2l1-4z"/><path fill="#883928" d="m293 123 4 3-1 5c-2-2-4-4-4-7l1-1z"/><path fill="#111010" d="m311 121 3 1v3h-2v7h-1v-11z"/><path fill="#335733" d="M138 113h7v2l-7 1v-3z"/><path fill="#262C1F" d="M203 110h11l-4 3-7-2v-1z"/><path fill="#080908" d="M147 86v5l-5-1 1-3 4-1z"/><path fill="#334A32" d="m148 75 3 1-2 4h-2l-1 2 2-7z"/><path fill="#ABB3A5" d="m161 64-8 3v-3h8z"/><path fill="#642E22" d="m212 288-2 4-6 1c5-5 5-5 8-5z"/><path fill="#2C1B15" d="m97 284 3 1 2 5-7-1 4-1-2-4z"/><path fill="#993724" d="m217 274 3 1-3 4-2 1-2 1 4-7z"/><path fill="#DFDFDF" d="m119 270 8 1v2h-7l-1-3z"/><path fill="#49261C" d="M265 267h2v3l4 1h-8l2-4z"/><path fill="#131111" d="m76 266 4 6-3 1-2-5 1-2z"/><path fill="#878786" d="M127 259h2l2 7-3 1-1-2h2v-2h-2v-4z"/><path fill="#62291D" d="M281 233h6l-1 5-1-3-5 1 1-3z"/><path fill="#2A432B" d="M204 216h2v5h-4l2-5z"/><path fill="#6D3223" d="M301 215h2c-1 4-1 6-4 9l2-9z"/><path fill="#7E7C7C" d="m239 205-2 5h-4c1-3 2-5 6-5z"/><path fill="#69382B" d="m255 191 3 2-3 1 1 2-6 1 5-6z"/><path fill="#264228" d="m57 186 2 1 1 8c-3-2-4-4-4-8l1-1z"/><path fill="#090909" d="m163 174 1 4h-2v2l-4-1 5-5z"/><path fill="#896A5E" d="m211 166-1 4h-3v-2l-3-1 7-1z"/><path fill="#362F21" d="M56 141h1l1 11h-3l1-11z"/><path fill="#384F37" d="M128 139h6v3h-6v-3z"/><path fill="#4E281E" d="M51 135h1v8h-3l2-8z"/><path fill="#0B0B0B" d="m259 134 1 4-5 4c0-4 2-5 4-8z"/><path fill="#0C0F0C" d="m85 130 7 1v3l-7-2v-2z"/><path fill="#2E3B2C" d="m159 129 3 1-3 4h-4l1-3h3v-2z"/><path fill="#0B0F0B" d="m71 130 4 1-8 6 4-7z"/><path fill="#313C30" d="m286 124 4 1-2 6c-2-2-2-2-2-5v-2z"/><path fill="#1C1614" d="m296 111 2 3 3 2-2 3h-2l-1-8z"/><path fill="#040504" d="M145 106v2l-6 1-1-2c4-2 4-2 7-1z"/><path fill="#273127" d="M128 85h3v2l-6 1-2-2 5-1z"/><path fill="#677362" d="M102 82h2l-1 5-4 1 2-1-1-3 2-2z"/><path fill="#1A1A1A" d="m175 79-5 3-4-2c3-2 5-2 9-1z"/><path fill="#3F2F2B" d="m209 76 8 3h-3l-1 2v-2l-4-1v-2z"/><path fill="#313030" d="m302 71 6 7-4-1-2-6z"/><path fill="#BEB5B3" d="M196 69h4v4h-5l1-4z"/><path fill="#9BA993" d="M148 71h6l-4 4h-2v-4z"/><path fill="#2B412C" d="m141 68-1 5-4-1 1-3 4-1z"/><path fill="#585C4D" d="m131 66-2 1-4 4h-2v-3h2v-2h6z"/><path fill="#BEBEBA" d="M148 60h5l-3 4-4-1 2-3z"/><path fill="#B93D26" d="M145 51h8l-4 1v2h-5l1-3z"/></svg>