<svg version="1.1" xmlns="http://www.w3.org/2000/svg" viewBox="0 0 1390 993.3333333333335" width="1390" height="993.3333333333335" filter="invert(93%) hue-rotate(180deg)"><!-- svg-source:excalidraw --><metadata></metadata><defs><clipPath id="9o-J1W4QRZbKtlrqNOv03"><rect transform="translate(0 0) rotate(0 695 496.66666666666674)" width="1390" height="993.3333333333335"></rect></clipPath><style class="style-fonts">
      </style></defs><rect x="0" y="0" width="1390" height="993.3333333333335" fill="#ffffff"></rect><g clip-path="url(#9o-J1W4QRZbKtlrqNOv03)"><g stroke-linecap="round" transform="translate(328.96555999084705 34.87410465565404) rotate(0 26.25 26.25000000000003)"><path d="M35.93 2.14 C41.07 3.95, 46.34 9.48, 49.18 14.48 C52.03 19.48, 53.94 26.67, 52.98 32.15 C52.03 37.64, 47.93 44.07, 43.45 47.4 C38.97 50.74, 31.99 52.55, 26.1 52.16 C20.21 51.77, 12.29 48.7, 8.12 45.05 C3.95 41.4, 1.84 35.82, 1.08 30.27 C0.33 24.73, 0.8 16.58, 3.6 11.79 C6.39 6.99, 11.95 3.12, 17.84 1.48 C23.73 -0.16, 35.29 1.63, 38.96 1.97 C42.63 2.31, 40.06 2.92, 39.86 3.51 M29.04 1.07 C34.73 1.41, 43 3.93, 46.95 7.97 C50.89 12.01, 52.65 19.63, 52.7 25.33 C52.76 31.02, 50.9 37.74, 47.27 42.13 C43.64 46.51, 36.55 50.38, 30.91 51.64 C25.27 52.9, 18.36 52.08, 13.41 49.7 C8.45 47.33, 3.11 42.67, 1.17 37.39 C-0.77 32.11, 0 23.62, 1.77 18.03 C3.54 12.43, 6.9 6.74, 11.76 3.82 C16.63 0.9, 27.87 1.15, 30.97 0.5 C34.08 -0.15, 30.52 -0.46, 30.39 -0.09" stroke="none" stroke-width="0" fill="#a5d8ff"></path><path d="M28.06 -0.82 C33.63 -0.55, 41.66 3.52, 45.67 7.85 C49.67 12.19, 51.91 19.53, 52.11 25.18 C52.32 30.82, 50.17 37.13, 46.9 41.71 C43.63 46.29, 37.7 51.39, 32.5 52.64 C27.29 53.89, 20.65 51.89, 15.66 49.21 C10.67 46.52, 4.96 41.59, 2.55 36.54 C0.15 31.48, -0.21 24.24, 1.24 18.89 C2.69 13.55, 6.16 7.72, 11.25 4.48 C16.34 1.24, 28.35 -0.2, 31.77 -0.56 C35.2 -0.91, 32.08 1.74, 31.78 2.34 M29.61 -0.9 C34.75 -0.59, 40.64 3.01, 44.47 7.27 C48.3 11.53, 51.87 18.99, 52.6 24.66 C53.32 30.33, 51.93 37, 48.84 41.3 C45.75 45.6, 39.44 49, 34.07 50.45 C28.69 51.9, 21.87 52.36, 16.59 49.98 C11.31 47.6, 5.22 41.35, 2.38 36.17 C-0.46 30.99, -2.06 24.19, -0.44 18.92 C1.18 13.64, 7.05 7.45, 12.11 4.52 C17.17 1.59, 27.08 1.92, 29.94 1.33 C32.8 0.75, 29.7 1.03, 29.29 1.01" stroke="#1971c2" stroke-width="2" fill="none"></path></g></g><g clip-path="url(#9o-J1W4QRZbKtlrqNOv03)"><g stroke-linecap="round" transform="translate(864.7429544527032 68.29381515141563) rotate(0 26.25 26.25)"><path d="M22.73 1.03 C28.14 0.07, 36.47 1.85, 41.36 4.85 C46.26 7.85, 50.5 13.83, 52.1 19.02 C53.7 24.21, 53.39 31.04, 50.97 35.98 C48.55 40.91, 42.51 45.98, 37.58 48.64 C32.64 51.31, 26.74 53.16, 21.34 51.96 C15.94 50.75, 8.73 45.88, 5.17 41.42 C1.62 36.95, -0.43 30.82, 0 25.19 C0.44 19.57, 3.45 12.02, 7.79 7.66 C12.13 3.3, 22.31 0.13, 26.05 -0.96 C29.79 -2.06, 30.17 0.59, 30.23 1.09 M24.7 -0.54 C30.16 -1.57, 36.62 1.29, 41.14 4.51 C45.65 7.72, 50.41 13.39, 51.79 18.74 C53.17 24.1, 51.83 31.41, 49.41 36.63 C46.98 41.86, 42.26 47.37, 37.22 50.1 C32.18 52.83, 24.44 54.43, 19.16 53 C13.87 51.58, 8.79 46.34, 5.52 41.55 C2.25 36.76, -0.97 29.79, -0.48 24.25 C0.01 18.7, 4.36 12.44, 8.46 8.28 C12.55 4.12, 21.45 0.57, 24.08 -0.71 C26.72 -2, 24.43 -0.01, 24.25 0.54" stroke="none" stroke-width="0" fill="#a5d8ff"></path><path d="M19.66 0.98 C24.77 -0.5, 31.69 0.88, 36.6 3.2 C41.52 5.52, 46.67 9.84, 49.15 14.9 C51.62 19.96, 52.57 28.24, 51.45 33.55 C50.33 38.86, 46.92 43.71, 42.45 46.77 C37.98 49.82, 30.34 52.21, 24.65 51.89 C18.95 51.57, 12.4 48.68, 8.29 44.85 C4.18 41.02, 0.45 34.61, -0.03 28.9 C-0.51 23.2, 2.07 15.18, 5.39 10.62 C8.72 6.06, 17.07 3.18, 19.91 1.54 C22.75 -0.1, 22.14 0.43, 22.42 0.79 M13.5 2.65 C17.92 0.11, 26.09 -0.01, 31.84 1.21 C37.59 2.44, 44.39 5.88, 48.01 10 C51.63 14.12, 53.67 20.32, 53.55 25.94 C53.43 31.56, 51.21 39.54, 47.27 43.73 C43.33 47.93, 35.93 50.39, 29.9 51.1 C23.86 51.82, 15.66 50.86, 11.04 48.04 C6.42 45.23, 3.48 39.27, 2.18 34.21 C0.88 29.16, 1.17 22.82, 3.25 17.7 C5.32 12.58, 12.97 6.09, 14.63 3.48 C16.29 0.88, 12.93 1.9, 13.21 2.08" stroke="#1971c2" stroke-width="2" fill="none"></path></g></g><g clip-path="url(#9o-J1W4QRZbKtlrqNOv03)"><g stroke-linecap="round" transform="translate(132.78538207664394 399.371627288587) rotate(0 26.25 26.25)"><path d="M31.67 1.1 C37.14 1.65, 43.53 5.8, 47.08 9.92 C50.63 14.03, 53.21 20.41, 52.97 25.78 C52.74 31.14, 49.21 37.72, 45.67 42.12 C42.13 46.51, 37.17 51.14, 31.73 52.16 C26.29 53.18, 18.03 51.03, 13.01 48.25 C7.98 45.47, 3.37 40.74, 1.61 35.46 C-0.16 30.18, 0.54 22.03, 2.42 16.56 C4.31 11.08, 7.49 5.12, 12.92 2.62 C18.35 0.13, 30.92 1.63, 35.02 1.59 C39.12 1.55, 37.85 2.11, 37.54 2.37 M33.52 0.99 C38.61 2.18, 45.21 6.57, 48.22 11.16 C51.22 15.75, 52.24 22.84, 51.54 28.52 C50.85 34.21, 48.08 41.06, 44.07 45.26 C40.07 49.46, 32.95 53.34, 27.51 53.7 C22.08 54.07, 16.01 50.97, 11.47 47.46 C6.93 43.94, 1.58 37.98, 0.28 32.6 C-1.02 27.21, 1.06 20.35, 3.68 15.16 C6.29 9.98, 10.94 3.88, 15.99 1.49 C21.05 -0.9, 31.27 0.87, 34 0.84 C36.74 0.8, 32.55 0.86, 32.4 1.28" stroke="none" stroke-width="0" fill="#a5d8ff"></path><path d="M13.94 3.84 C18.31 1.13, 25.88 -0.43, 31.37 0.82 C36.87 2.07, 43.24 7.01, 46.89 11.34 C50.53 15.67, 53.42 21.45, 53.23 26.82 C53.03 32.18, 49.63 39.34, 45.73 43.54 C41.82 47.73, 35.45 51.22, 29.81 52 C24.16 52.78, 16.48 51.37, 11.86 48.21 C7.24 45.05, 3.88 38.24, 2.09 33.05 C0.3 27.86, -1.07 22.18, 1.1 17.06 C3.26 11.94, 12.42 4.71, 15.09 2.34 C17.77 -0.03, 17.06 2.33, 17.14 2.84 M17.84 2.1 C23.03 0.1, 31.31 -0.02, 36.71 1.68 C42.12 3.38, 47.45 7.39, 50.25 12.31 C53.04 17.22, 54.75 25.64, 53.5 31.16 C52.25 36.69, 47.58 42.01, 42.75 45.48 C37.91 48.95, 29.97 51.93, 24.5 52 C19.03 52.07, 13.75 49.29, 9.95 45.89 C6.15 42.5, 2.6 37.1, 1.69 31.64 C0.78 26.18, 1.97 18.44, 4.47 13.16 C6.98 7.88, 14.32 1.98, 16.74 -0.04 C19.16 -2.06, 18.53 0.48, 19.01 1.05" stroke="#1971c2" stroke-width="2" fill="none"></path></g></g><g clip-path="url(#9o-J1W4QRZbKtlrqNOv03)"><g stroke-linecap="round" transform="translate(1150.367954452703 303.91881515141563) rotate(0 26.25 26.25)"><path d="M37.36 2.75 C42.32 4.36, 47.85 9.28, 50.13 14.04 C52.41 18.79, 52.26 25.75, 51.04 31.3 C49.82 36.84, 47.21 43.93, 42.8 47.32 C38.39 50.72, 30.34 51.96, 24.59 51.66 C18.84 51.36, 12.21 49.37, 8.3 45.52 C4.38 41.67, 1.76 34.32, 1.08 28.56 C0.39 22.8, 1.11 15.46, 4.17 10.95 C7.24 6.44, 13.48 2.8, 19.48 1.51 C25.49 0.22, 36.36 2.48, 40.19 3.21 C44.02 3.94, 42.63 5.27, 42.45 5.88 M20.59 0.43 C25.54 -1.16, 32.4 -0.08, 37.27 2.55 C42.15 5.18, 47.61 10.76, 49.84 16.19 C52.06 21.62, 52.07 29.82, 50.62 35.14 C49.16 40.45, 45.77 45.25, 41.1 48.08 C36.43 50.92, 28.06 52.73, 22.57 52.12 C17.09 51.52, 11.86 48.67, 8.2 44.45 C4.54 40.24, 1.01 32.51, 0.63 26.83 C0.26 21.15, 2.8 14.77, 5.95 10.38 C9.09 5.99, 17.02 2.05, 19.52 0.5 C22.01 -1.05, 20.72 0.77, 20.9 1.07" stroke="none" stroke-width="0" fill="#a5d8ff"></path><path d="M25.05 0.18 C30.39 -0.26, 37.84 3.39, 42.45 6.78 C47.07 10.16, 51.6 15.21, 52.77 20.47 C53.93 25.74, 52.25 33.38, 49.45 38.38 C46.65 43.38, 41.29 48.35, 35.97 50.45 C30.66 52.55, 22.79 52.92, 17.58 50.98 C12.37 49.05, 7.73 43.49, 4.69 38.85 C1.65 34.22, -1.29 28.57, -0.64 23.18 C0.01 17.79, 3.61 10.25, 8.58 6.51 C13.56 2.77, 25.45 1.5, 29.21 0.73 C32.98 -0.04, 31.38 1.6, 31.19 1.9 M23.43 0.25 C28.8 -1.18, 36.12 -0.26, 40.98 2.67 C45.85 5.6, 50.99 12.49, 52.6 17.83 C54.21 23.17, 53.15 29.53, 50.63 34.69 C48.11 39.85, 42.26 45.95, 37.48 48.79 C32.7 51.64, 27.01 52.6, 21.95 51.78 C16.89 50.96, 10.63 48.16, 7.1 43.86 C3.57 39.57, 1 32.08, 0.76 26 C0.52 19.92, 1.85 11.84, 5.64 7.41 C9.43 2.98, 20.53 0.6, 23.51 -0.59 C26.48 -1.79, 23.71 -0.35, 23.51 0.26" stroke="#1971c2" stroke-width="2" fill="none"></path></g></g><g clip-path="url(#9o-J1W4QRZbKtlrqNOv03)"><g stroke-linecap="round" transform="translate(530.7217406407332 341.26004554442784) rotate(0 26.25 26.25)"><path d="M36.09 1.39 C40.93 2.73, 45.62 7.6, 48.41 12.59 C51.19 17.57, 53.78 25.76, 52.81 31.3 C51.84 36.84, 47.06 42.27, 42.56 45.82 C38.06 49.37, 31.25 52.7, 25.81 52.6 C20.38 52.5, 14.21 49.11, 9.95 45.25 C5.69 41.38, 1.14 34.79, 0.25 29.44 C-0.64 24.08, 1.65 17.91, 4.6 13.14 C7.54 8.37, 11.57 2.09, 17.94 0.82 C24.31 -0.45, 37.68 3.37, 42.81 5.5 C47.94 7.63, 49.05 13.17, 48.73 13.62 M25.67 -0.28 C30.87 -0.48, 38.48 2.65, 42.76 6.56 C47.05 10.48, 50.29 17.73, 51.39 23.21 C52.49 28.69, 52.18 34.85, 49.35 39.45 C46.53 44.04, 39.65 48.87, 34.45 50.81 C29.25 52.75, 23.22 53.17, 18.14 51.08 C13.07 49, 6.82 43.26, 3.99 38.3 C1.16 33.34, 0.34 26.74, 1.14 21.32 C1.95 15.9, 4.49 9.37, 8.8 5.79 C13.11 2.22, 24.1 0.91, 27 -0.13 C29.91 -1.16, 26.23 -1.04, 26.23 -0.39" stroke="none" stroke-width="0" fill="#a5d8ff"></path><path d="M37.77 3.76 C42.93 5.71, 48.81 10.24, 51.12 15.15 C53.42 20.06, 53.31 27.78, 51.61 33.24 C49.91 38.7, 45.7 44.74, 40.93 47.9 C36.17 51.06, 28.49 52.99, 23.02 52.22 C17.54 51.45, 12.05 47.2, 8.06 43.29 C4.08 39.38, -0.37 34.2, -0.91 28.75 C-1.45 23.3, 1.25 15.18, 4.8 10.6 C8.35 6.03, 14.61 2.24, 20.38 1.29 C26.16 0.33, 35.91 4.08, 39.47 4.86 C43.02 5.63, 41.82 5.68, 41.7 5.95 M32.98 -0.55 C38.33 0.28, 45.3 5.75, 48.54 10.22 C51.78 14.68, 53.12 20.7, 52.41 26.24 C51.7 31.79, 47.91 39.17, 44.27 43.47 C40.63 47.78, 35.7 51.04, 30.57 52.07 C25.45 53.09, 18.29 52.55, 13.52 49.63 C8.75 46.71, 4.05 40.36, 1.97 34.54 C-0.1 28.73, -1.14 20.15, 1.08 14.74 C3.3 9.33, 9.98 4.53, 15.3 2.08 C20.63 -0.36, 30.35 0.2, 33.03 0.07 C35.72 -0.06, 31.61 0.81, 31.41 1.3" stroke="#1971c2" stroke-width="2" fill="none"></path></g></g><g clip-path="url(#9o-J1W4QRZbKtlrqNOv03)"><g stroke-linecap="round" transform="translate(778.8054544527032 377.35631515141563) rotate(0 26.25 26.25)"><path d="M33.8 0.46 C39.03 1.91, 46.39 7.81, 49.42 12.62 C52.45 17.44, 52.94 23.77, 51.97 29.33 C51 34.9, 47.64 42.3, 43.62 46.02 C39.59 49.74, 33.45 51.68, 27.82 51.65 C22.18 51.61, 14.23 49.12, 9.82 45.82 C5.42 42.53, 2.45 37.31, 1.39 31.85 C0.33 26.4, 0.96 18.19, 3.46 13.09 C5.97 8, 10 2.51, 16.42 1.27 C22.84 0.03, 37.04 4.09, 41.98 5.65 C46.93 7.21, 46.46 10.37, 46.12 10.63 M23.47 0.36 C28.77 -0.17, 35.82 2.89, 40.59 6.06 C45.37 9.23, 50.64 14.17, 52.12 19.37 C53.6 24.56, 51.76 32.05, 49.47 37.2 C47.19 42.36, 43.31 48.06, 38.4 50.31 C33.48 52.57, 25.5 52.26, 20 50.73 C14.5 49.2, 8.86 45.63, 5.42 41.13 C1.97 36.63, -1.13 29.32, -0.66 23.72 C-0.19 18.12, 4.17 11.61, 8.23 7.52 C12.3 3.43, 21.03 0.14, 23.75 -0.82 C26.48 -1.78, 24.63 1.17, 24.58 1.75" stroke="none" stroke-width="0" fill="#a5d8ff"></path><path d="M29.25 -0.62 C34.69 -0.75, 41.09 3.07, 44.99 7.11 C48.9 11.15, 52.23 17.95, 52.66 23.63 C53.1 29.31, 50.71 36.67, 47.6 41.17 C44.49 45.67, 39.56 48.98, 34 50.63 C28.44 52.28, 19.56 53.24, 14.24 51.04 C8.92 48.84, 4.27 42.58, 2.07 37.42 C-0.12 32.26, -0.29 25.41, 1.06 20.08 C2.41 14.75, 5.36 8.78, 10.18 5.46 C15 2.13, 26.28 0.79, 29.98 0.12 C33.67 -0.55, 32.23 0.86, 32.34 1.46 M27.33 -0.04 C32.48 -0.45, 38.86 1.28, 42.75 4.76 C46.65 8.23, 49.46 15.13, 50.68 20.8 C51.9 26.48, 52.35 33.63, 50.06 38.83 C47.77 44.03, 42.23 49.91, 36.96 52.01 C31.68 54.11, 24.09 53.73, 18.4 51.43 C12.71 49.14, 5.62 43.27, 2.81 38.23 C-0.01 33.19, 0.29 26.59, 1.52 21.19 C2.75 15.79, 6.2 9.35, 10.19 5.85 C14.18 2.34, 22.77 1.09, 25.46 0.18 C28.16 -0.74, 26.1 -0.29, 26.37 0.37" stroke="#1971c2" stroke-width="2" fill="none"></path></g></g><g clip-path="url(#9o-J1W4QRZbKtlrqNOv03)"><g stroke-linecap="round" transform="translate(643.2516124696559 503.31160465565404) rotate(0 26.25 26.25)"><path d="M22.68 0.45 C27.98 -0.75, 34.6 -0.03, 39.31 2.82 C44.03 5.67, 48.89 12.28, 50.96 17.57 C53.03 22.86, 53.71 29.48, 51.73 34.58 C49.76 39.67, 44.01 45.14, 39.11 48.12 C34.22 51.1, 27.83 53.4, 22.36 52.44 C16.89 51.47, 10.05 46.83, 6.29 42.34 C2.53 37.85, -0.3 30.87, -0.21 25.49 C-0.12 20.1, 2.17 14.24, 6.82 10.03 C11.47 5.82, 23.13 1.56, 27.69 0.22 C32.24 -1.13, 34.13 1.65, 34.15 1.97 M23.05 1.39 C28.51 0.49, 37.01 1.56, 41.67 4.51 C46.33 7.47, 49.43 13.62, 51.02 19.11 C52.61 24.6, 53.36 32.45, 51.21 37.45 C49.05 42.45, 43.23 46.77, 38.08 49.11 C32.93 51.46, 25.98 52.83, 20.31 51.52 C14.64 50.2, 7.36 45.83, 4.08 41.25 C0.79 36.66, 0.05 29.72, 0.59 23.99 C1.13 18.27, 3.36 10.68, 7.32 6.88 C11.27 3.09, 21.69 2.3, 24.32 1.24 C26.95 0.19, 23.21 0.13, 23.09 0.58" stroke="none" stroke-width="0" fill="#a5d8ff"></path><path d="M38.61 2.43 C43.42 4.68, 48.7 10.67, 50.78 15.94 C52.86 21.22, 52.69 28.82, 51.1 34.07 C49.51 39.32, 46.12 44.24, 41.24 47.44 C36.37 50.64, 27.64 53.83, 21.84 53.25 C16.04 52.68, 10.08 48.22, 6.47 44 C2.87 39.78, 0.54 33.46, 0.2 27.95 C-0.13 22.43, 1.17 15.53, 4.46 10.93 C7.75 6.33, 13.88 1.41, 19.93 0.37 C25.98 -0.67, 36.8 3.49, 40.74 4.69 C44.68 5.9, 43.78 7.13, 43.58 7.59 M16.23 0.83 C20.58 -1.59, 27.38 -1.12, 32.89 0.75 C38.41 2.61, 45.87 6.98, 49.32 12.03 C52.78 17.07, 54.4 25.33, 53.62 31.01 C52.84 36.68, 49.2 42.72, 44.66 46.06 C40.12 49.39, 31.93 50.98, 26.38 50.99 C20.83 51, 15.49 49.41, 11.38 46.12 C7.27 42.84, 3.18 36.6, 1.72 31.28 C0.26 25.96, 0.11 19.13, 2.62 14.21 C5.14 9.3, 14.29 3.51, 16.81 1.8 C19.32 0.09, 17.44 3.31, 17.71 3.94" stroke="#1971c2" stroke-width="2" fill="none"></path></g></g><g clip-path="url(#9o-J1W4QRZbKtlrqNOv03)"><g stroke-linecap="round" transform="translate(324.09764534147746 839.069357971862) rotate(0 26.25 26.25)"><path d="M14.6 1.81 C19.13 -0.81, 27.05 -0.47, 32.69 0.91 C38.33 2.29, 45.16 5.68, 48.44 10.07 C51.71 14.45, 52.76 21.42, 52.34 27.23 C51.93 33.04, 49.79 40.85, 45.92 44.94 C42.06 49.02, 34.93 51.33, 29.16 51.74 C23.38 52.15, 15.87 50.32, 11.27 47.39 C6.66 44.47, 3.1 39.48, 1.53 34.19 C-0.04 28.89, -0.58 20.94, 1.86 15.62 C4.29 10.29, 13.56 4.59, 16.16 2.23 C18.76 -0.13, 17.33 1.15, 17.47 1.45 M29.02 -0.04 C34.41 -0.16, 40.18 3.45, 44.26 7.49 C48.34 11.53, 52.82 18.71, 53.5 24.2 C54.18 29.69, 51.64 35.89, 48.35 40.44 C45.06 44.98, 39.41 49.9, 33.75 51.47 C28.1 53.04, 19.53 52.23, 14.4 49.85 C9.27 47.48, 5.27 42.44, 2.97 37.23 C0.68 32.01, -0.82 23.77, 0.63 18.55 C2.09 13.32, 7.18 8.97, 11.7 5.88 C16.23 2.8, 25.05 0.71, 27.76 0.04 C30.48 -0.63, 27.96 1.56, 27.99 1.85" stroke="none" stroke-width="0" fill="#a5d8ff"></path><path d="M17.35 1.36 C22.18 -0.74, 29.46 -0.36, 34.87 1.41 C40.28 3.18, 47.08 6.96, 49.8 11.99 C52.52 17.02, 52.34 25.88, 51.18 31.6 C50.03 37.31, 46.96 42.69, 42.87 46.27 C38.78 49.85, 32.34 52.93, 26.62 53.08 C20.9 53.23, 13.02 50.89, 8.55 47.17 C4.07 43.45, 0.67 36.38, -0.23 30.75 C-1.14 25.13, -1.15 18.42, 3.12 13.42 C7.39 8.43, 20.46 2.66, 25.4 0.77 C30.35 -1.12, 32.99 1.61, 32.81 2.09 M24.56 -0.5 C30.06 -0.75, 38.93 1.87, 43.74 5.72 C48.55 9.57, 52.37 16.96, 53.4 22.58 C54.43 28.21, 53.03 35.01, 49.9 39.46 C46.78 43.92, 39.82 47.53, 34.64 49.31 C29.45 51.09, 23.76 51.84, 18.78 50.14 C13.81 48.44, 7.95 43.77, 4.81 39.12 C1.67 34.46, -0.85 27.69, -0.05 22.2 C0.75 16.72, 5.1 9.65, 9.62 6.2 C14.15 2.75, 24.22 2.24, 27.12 1.5 C30.02 0.75, 27.04 1.44, 27.01 1.75" stroke="#1971c2" stroke-width="2" fill="none"></path></g></g><g clip-path="url(#9o-J1W4QRZbKtlrqNOv03)"><g stroke-linecap="round" transform="translate(1148.024204452703 647.8250651514152) rotate(0 26.25 26.25)"><path d="M27.33 0.13 C32.87 0.01, 40.69 2.41, 44.84 6.02 C48.98 9.63, 51.45 16.03, 52.19 21.81 C52.93 27.59, 52.24 35.88, 49.28 40.69 C46.33 45.49, 40 49.1, 34.46 50.65 C28.92 52.19, 21.19 51.87, 16.04 49.96 C10.88 48.06, 6.18 44.09, 3.53 39.22 C0.88 34.35, -0.97 26.35, 0.15 20.76 C1.27 15.17, 5.15 9.14, 10.25 5.66 C15.36 2.18, 26.8 0.57, 30.77 -0.13 C34.74 -0.83, 34.11 1, 34.09 1.44 M36.56 2.16 C41.66 4.13, 48.41 10.21, 51.03 15.17 C53.65 20.13, 53.73 26.55, 52.27 31.93 C50.8 37.31, 47.02 44.09, 42.22 47.47 C37.42 50.85, 29.1 52.66, 23.46 52.23 C17.82 51.8, 12.32 48.93, 8.38 44.87 C4.45 40.81, 0.41 33.27, -0.14 27.88 C-0.68 22.49, 2.02 17.04, 5.12 12.54 C8.21 8.04, 13.19 2.4, 18.44 0.9 C23.69 -0.59, 33.6 3.41, 36.61 3.58 C39.63 3.75, 36.45 1.64, 36.53 1.91" stroke="none" stroke-width="0" fill="#a5d8ff"></path><path d="M18.97 0.88 C24.13 -1, 32.96 -1.14, 37.96 1.36 C42.96 3.85, 46.73 10.61, 48.95 15.84 C51.17 21.08, 52.48 27.38, 51.28 32.77 C50.08 38.15, 46.41 44.75, 41.75 48.14 C37.09 51.53, 29.06 53.67, 23.31 53.11 C17.56 52.55, 11.17 48.81, 7.25 44.79 C3.34 40.77, 0.21 34.42, -0.17 28.99 C-0.55 23.56, 1.28 16.86, 5 12.2 C8.71 7.54, 18.86 2.81, 22.1 1.03 C25.34 -0.74, 24.35 1.22, 24.42 1.53 M17.45 1.65 C22.74 -0.35, 30.56 0.7, 35.88 2.56 C41.19 4.43, 46.78 8.53, 49.35 12.86 C51.92 17.2, 52.05 23.23, 51.31 28.58 C50.56 33.93, 48.75 41.08, 44.88 44.98 C41.02 48.87, 34.01 51.6, 28.12 51.94 C22.23 52.28, 14.08 50.43, 9.57 47.01 C5.06 43.58, 1.92 36.68, 1.05 31.39 C0.18 26.1, 1.59 20, 4.36 15.28 C7.13 10.56, 15.44 5.11, 17.66 3.07 C19.89 1.03, 17.84 3.04, 17.73 3.05" stroke="#1971c2" stroke-width="2" fill="none"></path></g></g><g clip-path="url(#9o-J1W4QRZbKtlrqNOv03)"><g stroke-linecap="round" transform="translate(903.6492044527032 855.9500651514152) rotate(0 26.25 26.25)"><path d="M16.9 1.23 C21.68 -1.34, 28.49 -1.66, 33.86 0.19 C39.23 2.04, 46.02 7.57, 49.14 12.34 C52.26 17.12, 53.45 23.42, 52.58 28.84 C51.71 34.27, 48 40.83, 43.93 44.91 C39.86 48.98, 33.81 52.87, 28.15 53.27 C22.49 53.68, 14.55 50.84, 9.98 47.35 C5.4 43.86, 1.9 37.94, 0.69 32.35 C-0.53 26.75, -0.31 19.04, 2.7 13.76 C5.71 8.48, 15.49 2.91, 18.73 0.68 C21.98 -1.55, 21.9 -0.17, 22.19 0.37 M26.1 0.28 C31.61 -0.42, 38.33 1.16, 42.74 4.5 C47.15 7.84, 51.54 14.74, 52.56 20.34 C53.57 25.93, 51.43 33.09, 48.82 38.09 C46.21 43.09, 42 48.28, 36.9 50.34 C31.8 52.39, 23.56 51.86, 18.19 50.4 C12.83 48.94, 7.81 46.16, 4.69 41.57 C1.56 36.98, -1.1 28.43, -0.56 22.87 C-0.01 17.31, 3.75 12.16, 7.95 8.2 C12.15 4.24, 21.62 0.3, 24.64 -0.89 C27.66 -2.08, 26.21 0.63, 26.06 1.04" stroke="none" stroke-width="0" fill="#a5d8ff"></path><path d="M23.39 -0.69 C28.5 -1.61, 34.54 1.78, 39.1 4.91 C43.67 8.03, 48.82 12.79, 50.77 18.06 C52.72 23.34, 52.99 31.22, 50.81 36.55 C48.63 41.88, 42.79 47.53, 37.7 50.05 C32.6 52.58, 25.64 52.94, 20.24 51.7 C14.85 50.46, 8.64 46.89, 5.34 42.63 C2.04 38.38, 0.23 31.72, 0.45 26.19 C0.66 20.67, 2.52 13.69, 6.63 9.48 C10.75 5.28, 21.36 2.46, 25.13 0.99 C28.9 -0.49, 29.24 0.54, 29.25 0.66 M23.26 1.59 C28.46 0.47, 35.85 1.61, 40.32 4.01 C44.78 6.41, 48.13 10.9, 50.08 15.99 C52.03 21.08, 53.66 29.12, 52.03 34.54 C50.4 39.97, 45.46 45.59, 40.31 48.54 C35.15 51.49, 26.72 53.19, 21.09 52.24 C15.45 51.28, 9.82 46.92, 6.51 42.8 C3.2 38.68, 1.07 32.92, 1.21 27.53 C1.35 22.13, 3.77 14.84, 7.38 10.43 C10.99 6.02, 20.52 2.86, 22.87 1.07 C25.23 -0.71, 21.81 -0.8, 21.49 -0.29" stroke="#1971c2" stroke-width="2" fill="none"></path></g></g><g clip-path="url(#9o-J1W4QRZbKtlrqNOv03)"><g stroke-linecap="round"><g transform="translate(383.09948290079944 65.46625074300186) rotate(0 238.38824650295476 16.086463801456603)"><path d="M-0.35 -0.21 C79.21 5.28, 397.32 28.06, 476.65 33.27 M1.67 -1.37 C81.11 3.79, 396.27 26.2, 475.64 31.72" stroke="#f08c00" stroke-width="2" fill="none"></path></g></g><mask></mask></g><g clip-path="url(#9o-J1W4QRZbKtlrqNOv03)"><g stroke-linecap="round"><g transform="translate(922.2694646480992 112.7515586096481) rotate(0 118.27454087207957 96.26997512843684)"><path d="M-0.12 1.1 C39.17 33.03, 195.75 159.57, 235.39 191.4 M-1.65 0.63 C38.02 32.68, 197.63 160.25, 237.5 192.33" stroke="#f08c00" stroke-width="2" fill="none"></path></g></g><mask></mask></g><g clip-path="url(#9o-J1W4QRZbKtlrqNOv03)"><g stroke-linecap="round"><g transform="translate(1186.3242535718118 362.1366370375988) rotate(0 -2.75057071795527 139.36224970973728)"><path d="M-1.16 -1.14 C-1.86 45.05, -3.61 231.56, -4.32 278.24 M0.44 0.87 C-0.31 47.74, -3.55 232.94, -4.65 279.52" stroke="#f08c00" stroke-width="2" fill="none"></path></g></g><mask></mask></g><g clip-path="url(#9o-J1W4QRZbKtlrqNOv03)"><g stroke-linecap="round"><g transform="translate(1156.9848325802877 697.7062646281499) rotate(0 -94.4362613164667 89.85197678654106)"><path d="M1.18 -0.48 C-30.1 29.69, -157.27 150.08, -188.83 179.92 M0.34 -1.78 C-30.99 28.11, -158.26 147.74, -189.75 177.91" stroke="#f08c00" stroke-width="2" fill="none"></path></g></g><mask></mask></g><g clip-path="url(#9o-J1W4QRZbKtlrqNOv03)"><g stroke-linecap="round"><g transform="translate(908.4092749287487 903.9495388238572) rotate(0 -261.7941551721925 -17.06153305094176)"><path d="M0.05 0.21 C-87.3 -5.59, -435.76 -29.44, -522.89 -35.3 M-1.39 -0.72 C-88.93 -6.38, -436.52 -28.83, -523.47 -34.38" stroke="#f08c00" stroke-width="2" fill="none"></path></g></g><mask></mask></g><g clip-path="url(#9o-J1W4QRZbKtlrqNOv03)"><g stroke-linecap="round"><g transform="translate(320.6776277578057 871.2782269088973) rotate(0 -75.38163611050447 -207.7126252544375)"><path d="M0.7 -1.18 C-24.3 -70.58, -124.65 -347.12, -149.94 -416.23 M-0.4 0.82 C-25.49 -68.47, -125.19 -345.86, -150.46 -415.11" stroke="#f08c00" stroke-width="2" fill="none"></path></g></g><mask></mask></g><g clip-path="url(#9o-J1W4QRZbKtlrqNOv03)"><g stroke-linecap="round"><g transform="translate(173.2311838398449 390.26604817044404) rotate(0 86.49172711576011 -150.31122706776023)"><path d="M0.82 -0.8 C29.49 -50.77, 143.96 -251.1, 172.68 -300.98 M-0.21 1.39 C28.21 -48.3, 142.8 -249.04, 171.58 -299.64" stroke="#f08c00" stroke-width="2" fill="none"></path></g></g><mask></mask></g><g clip-path="url(#9o-J1W4QRZbKtlrqNOv03)"><g stroke-linecap="round"><g transform="translate(372.1553210570313 90.74699286600548) rotate(0 83.43397844464528 121.94196849601997)"><path d="M-0.3 -0.36 C27.4 40.51, 139.01 203.7, 167.02 244.41 M1.74 -1.6 C29.23 38.98, 138.54 201.43, 166.15 242.56" stroke="#2f9e44" stroke-width="2" fill="none"></path></g></g><mask></mask></g><g clip-path="url(#9o-J1W4QRZbKtlrqNOv03)"><g stroke-linecap="round"><g transform="translate(383.1576039288526 76.07728237024344) rotate(0 216.37822981248678 147.6139618636032)"><path d="M0.15 0.52 C72.48 49.78, 361.4 246.23, 433.64 295.19 M-1.23 -0.25 C71.04 49.24, 360.74 247.48, 433.16 296.71" stroke="#2f9e44" stroke-width="2" fill="none"></path></g></g><mask></mask></g><g clip-path="url(#9o-J1W4QRZbKtlrqNOv03)"><g stroke-linecap="round"><g transform="translate(586.6998370575478 371.3052060974503) rotate(0 93.51940441048157 10.085425965836293)"><path d="M0.89 -0.04 C32.18 3.08, 156.67 15.88, 187.89 19.24 M-0.11 -1.1 C31.09 2.1, 156.03 16.53, 187.39 20.29" stroke="#2f9e44" stroke-width="2" fill="none"></path></g></g><mask></mask></g><g clip-path="url(#9o-J1W4QRZbKtlrqNOv03)"><g stroke-linecap="round"><g transform="translate(570.196412749816 395.14348565306295) rotate(0 49.510272923196 52.26084364115138)"><path d="M0.85 -0.93 C17.4 16.49, 83.85 87.07, 100.2 104.49 M-0.16 1.19 C16.26 18.82, 83.48 88.8, 99.87 106.01" stroke="#2f9e44" stroke-width="2" fill="none"></path></g></g><mask></mask></g><g clip-path="url(#9o-J1W4QRZbKtlrqNOv03)"><g stroke-linecap="round"><g transform="translate(797.5769254341238 429.9840480804976) rotate(0 -57.76198507706215 34.84056242743418)"><path d="M1.18 -0.03 C-18.23 11.59, -95.95 57.22, -115.58 68.77 M0.34 -1.09 C-19.3 10.73, -97.45 57.92, -116.55 69.84" stroke="#2f9e44" stroke-width="2" fill="none"></path></g></g><mask></mask></g><g clip-path="url(#9o-J1W4QRZbKtlrqNOv03)"><g stroke-linecap="round"><g transform="translate(691.2215243398508 552.8428734825027) rotate(0 225.54679887233794 57.761985077062036)"><path d="M-0.05 -0.91 C74.75 18.29, 374.71 95.75, 450.02 115.12 M-1.54 1.23 C73.52 20.6, 376.67 97.23, 452.16 116.45" stroke="#2f9e44" stroke-width="2" fill="none"></path></g></g><mask></mask></g><g clip-path="url(#9o-J1W4QRZbKtlrqNOv03)"><g stroke-linecap="round" transform="translate(406.41787685204883 607.2762812091926) rotate(0 26.25 26.25)"><path d="M21.67 0.83 C26.79 -0.51, 33.79 1.26, 38.63 3.89 C43.48 6.51, 48.73 11.33, 50.76 16.58 C52.8 21.83, 52.74 30.03, 50.86 35.39 C48.97 40.74, 44.39 45.86, 39.46 48.71 C34.53 51.56, 26.68 53.47, 21.27 52.48 C15.86 51.49, 10.57 47.15, 7.02 42.76 C3.47 38.36, -0.01 31.69, -0.04 26.11 C-0.07 20.54, 2.72 13.52, 6.84 9.28 C10.96 5.05, 20.92 2.29, 24.68 0.71 C28.43 -0.87, 29.37 -0.7, 29.37 -0.22 M15.87 0.96 C21.17 -1, 30.85 -0.68, 36.2 1.48 C41.56 3.65, 45.33 9.32, 48 13.94 C50.67 18.56, 52.83 23.75, 52.22 29.19 C51.61 34.62, 48.62 42.87, 44.36 46.56 C40.1 50.26, 32.63 51.49, 26.66 51.35 C20.69 51.21, 13.08 49.32, 8.56 45.72 C4.03 42.11, 0.15 35.25, -0.52 29.71 C-1.18 24.16, 1.81 17.34, 4.59 12.46 C7.37 7.58, 14.1 1.88, 16.17 0.41 C18.23 -1.06, 16.9 3.08, 16.96 3.63" stroke="none" stroke-width="0" fill="#a5d8ff"></path><path d="M34.66 1.62 C39.94 2.59, 45.69 6.52, 48.47 11.27 C51.25 16.03, 52.13 24.34, 51.32 30.15 C50.52 35.96, 47.62 42.46, 43.62 46.13 C39.63 49.81, 32.84 51.95, 27.34 52.2 C21.85 52.44, 15.1 50.8, 10.64 47.61 C6.18 44.41, 1.72 38.46, 0.59 33.05 C-0.55 27.64, 1.13 20.19, 3.82 15.14 C6.51 10.1, 11.34 5.06, 16.72 2.77 C22.11 0.48, 32.85 1.53, 36.14 1.41 C39.42 1.3, 36.54 1.6, 36.43 2.08 M23.25 1.52 C28.5 0.53, 34.87 1.07, 39.32 4.13 C43.76 7.2, 47.98 14.45, 49.92 19.92 C51.86 25.39, 53.08 32.06, 50.96 36.96 C48.84 41.87, 42.44 46.73, 37.19 49.34 C31.94 51.95, 24.59 53.97, 19.47 52.63 C14.35 51.3, 9.68 45.95, 6.47 41.32 C3.27 36.7, 0.1 30.41, 0.26 24.86 C0.41 19.32, 3.73 12.22, 7.39 8.06 C11.06 3.9, 19.73 1.09, 22.26 -0.09 C24.8 -1.27, 22.54 0.28, 22.61 0.97" stroke="#1971c2" stroke-width="2" fill="none"></path></g></g><g clip-path="url(#9o-J1W4QRZbKtlrqNOv03)"><g stroke-linecap="round"><g transform="translate(186.95022604803842 442.82004476428915) rotate(0 112.77339943616892 85.26769225661542)"><path d="M0.7 -0.16 C38.66 28.49, 189.06 143.02, 226.63 171.52" stroke="#e03131" stroke-width="2.5" fill="none" stroke-dasharray="8 10"></path></g></g><mask></mask></g><g clip-path="url(#9o-J1W4QRZbKtlrqNOv03)"><g stroke-linecap="round"><g transform="translate(463.84101165554273 653.6971331408647) rotate(0 220.9625143424122 101.7711165643475)"><path d="M1.09 0.98 C74.72 34.98, 369.18 170.29, 442.53 203.85" stroke="#e03131" stroke-width="2.5" fill="none" stroke-dasharray="8 10"></path></g></g><mask></mask></g><g clip-path="url(#9o-J1W4QRZbKtlrqNOv03)"><g stroke-linecap="round"><g transform="translate(654.5472481004464 554.6765872944727) rotate(0 -137.52853589776691 142.11282042769255)"><path d="M0.6 0.31 C-45.54 47.32, -230 235.84, -275.79 283.04 M-0.54 -0.58 C-46.39 46.44, -227.82 236.44, -273.46 283.95" stroke="#2f9e44" stroke-width="2" fill="none"></path></g></g><mask></mask></g><g clip-path="url(#9o-J1W4QRZbKtlrqNOv03)"><g stroke-linecap="round"><g transform="translate(898.4311850924863 125.58755529343966) rotate(0 22.00456574364273 361.2416209581346)"><path d="M-0.73 -1.19 C6.66 119.06, 37.36 601.23, 44.96 721.77" stroke="#2f9e44" stroke-width="2.5" fill="none" stroke-dasharray="8 10"></path></g></g><mask></mask></g><g clip-path="url(#9o-J1W4QRZbKtlrqNOv03)"><g stroke-linecap="round"><g transform="translate(379.4901763049123 859.0730800815302) rotate(0 383.2461867017772 -84.3508353506304)"><path d="M0.95 -0.71 C128.97 -28.71, 639.85 -141.17, 767.39 -169.14" stroke="#1e1e1e" stroke-width="2.5" fill="none" stroke-dasharray="8 10"></path></g></g><mask></mask></g><g clip-path="url(#9o-J1W4QRZbKtlrqNOv03)"><g stroke-linecap="round"><g transform="translate(421.6655939802275 662.8657022007162) rotate(0 -26.588850273568255 85.26769225661553)"><path d="M0.89 -0.44 C-8.18 28.12, -44.55 142.2, -53.49 170.67" stroke="#e03131" stroke-width="2.5" fill="none" stroke-dasharray="8 10"></path></g></g><mask></mask></g><g clip-path="url(#9o-J1W4QRZbKtlrqNOv03)"><g stroke-linecap="round"><g transform="translate(188.78393986000867 411.646909960795) rotate(0 337.4033414025216 -144.86339114564782)"><path d="M-0.31 0.14 C112.07 -48.1, 562.53 -241.74, 675.21 -289.85 M1.72 -0.83 C113.91 -48.84, 562.18 -240.15, 674.48 -288.38" stroke="#e03131" stroke-width="2" fill="none"></path></g></g><mask></mask></g></svg>